<svg width="585" height="122" viewBox="0 0 585 122" fill="none" xmlns="http://www.w3.org/2000/svg">
<g clip-path="url(#clip0_740_172)">
<path d="M553.04 2.63965C535.63 2.63965 521.51 16.7596 521.51 34.1696C521.51 51.5796 535.62 65.6996 553.04 65.6996C570.46 65.6996 584.57 51.5896 584.57 34.1696C584.57 16.7496 570.46 2.63965 553.04 2.63965ZM553.04 57.3596C540.23 57.3596 529.85 46.9796 529.85 34.1696C529.85 21.3596 540.23 10.9796 553.04 10.9796C565.85 10.9796 576.23 21.3596 576.23 34.1696C576.23 46.9796 565.85 57.3596 553.04 57.3596Z" fill="white"/>
<path d="M553.77 37.9305L541.03 40.0805L539.59 37.8205L554.22 16.9205L557.32 16.4805L553.18 30.2505L565.14 28.2405L566.48 30.5105L552.67 50.9605L548.75 51.8705L553.77 37.9305Z" fill="white"/>
<path d="M0 117.4V4.08008H71.74V20.7601H18.28V46.6601H67.25V63.3401H18.28V100.72H72.53V117.4H0Z" fill="white"/>
<path d="M86.4404 117.4V94.4501L145.63 22.0701L145.54 20.6001H88.2104V4.08008H164.28V27.0301L105.1 99.4101L105.19 100.88H164.92V117.4H86.4404Z" fill="white"/>
<path d="M333.53 117.4V4.08008H405.27V20.7601H351.81V46.6601H400.77V63.3401H351.81V100.72H406.06V117.4H333.53Z" fill="white"/>
<path d="M472.1 117.4L441.59 16.4301H439.86V117.4H421.73V4.08008H455.95L486.45 104.89H488.19V4.08008H506.31V117.4H472.1Z" fill="white"/>
<path d="M182.821 84.3897C182.821 84.3897 184.321 67.6397 189.751 45.8497C194.551 26.5797 199.081 13.9597 199.081 13.9597L216.691 12.6797C216.691 12.6797 210.251 29.3297 206.531 48.0597C202.811 66.7897 201.391 84.0097 201.391 84.0097L182.811 84.3997L182.821 84.3897Z" fill="white"/>
<path d="M201.931 48.5299L202.151 43.8999C202.151 43.8999 288.661 46.5699 289.201 26.3999C289.621 10.7999 230.151 14.4799 217.721 15.9799C204.661 17.5499 185.901 21.8999 182.701 20.3399C180.451 19.2399 183.511 9.54987 186.781 6.17987C189.651 3.21987 222.641 -0.250129 245.161 0.0098713C291.251 0.559871 308.431 11.1399 307.971 26.2899C307.301 48.5499 273.841 53.5799 245.051 53.5799L238.031 53.4399V48.5299H201.921H201.931Z" fill="white"/>
<path d="M271.73 101.86V97.4C271.73 97.4 297.22 87.8 297.58 75.94C297.81 68.31 288.54 60.85 265.64 58.15C247.81 56.04 202.51 57.87 202.51 57.87V48.54H233.14V47.21H266.92C306.66 47.35 320.87 60.76 319.73 75.32C318.19 95.05 294.5 106.06 294.5 106.06V101.86H271.73Z" fill="white"/>
<path d="M309.55 118.08C302.9 115.85 279.78 104.46 259.94 97.6997C238.19 90.2897 217.45 88.4997 207.69 88.5297C194.12 88.5697 191.36 93.3697 192.49 96.5897C194.08 101.11 209.95 103.86 224.11 104.28C257.5 105.29 271.46 97.2997 271.46 97.2997V101.35H289.79V109.45C289.79 109.45 269.28 123.01 223.57 121.63C208.91 121.19 171.37 117.12 172.07 94.0697C172.5 79.8797 187.26 72.2897 208.47 72.8297C221.19 73.1497 242.25 75.8397 259.59 80.9897C287.3 89.2097 315.19 104.1 319.75 107.42C323.32 110.02 314.84 119.86 309.55 118.09V118.08Z" fill="white"/>
<path d="M280.34 46.0099L289.36 44.1699V52.6399L280.34 50.9799V46.0099Z" fill="white"/>
</g>
<defs>
<clipPath id="clip0_740_172">
<rect width="584.56" height="121.73" fill="white"/>
</clipPath>
</defs>
</svg>
