<svg width="139" height="51" viewBox="0 0 139 51" fill="none" xmlns="http://www.w3.org/2000/svg">
<path d="M0 22.5961V0H9.43879C10.7749 0 11.9493 0.236721 12.9622 0.710164C13.975 1.18361 14.767 1.84535 15.338 2.6954C15.9091 3.54544 16.1946 4.54075 16.1946 5.68131V5.93955C16.1946 6.99404 15.9953 7.86023 15.5966 8.53811C15.198 9.21599 14.7131 9.74324 14.142 10.1198C13.571 10.4964 13.0161 10.7708 12.4773 10.943V11.3949C13.0161 11.524 13.5763 11.7769 14.1582 12.1535C14.74 12.5301 15.2303 13.0627 15.629 13.7514C16.0276 14.44 16.227 15.3116 16.227 16.3661V16.6889C16.227 17.9155 15.9307 18.9754 15.338 19.8685C14.7454 20.7615 13.9373 21.4394 12.9137 21.9021C11.8901 22.3648 10.7318 22.5961 9.43879 22.5961H0ZM2.81224 9.9423H9.1802C10.4732 9.9423 11.5022 9.6195 12.2672 8.97389C13.0322 8.32829 13.4147 7.46748 13.4147 6.39148V6.06867C13.4147 4.99267 13.0376 4.13186 12.2834 3.48626C11.5291 2.84066 10.4947 2.51785 9.1802 2.51785H2.81224V9.9423ZM2.81224 20.0783H9.11555C10.5163 20.0783 11.5884 19.7501 12.3318 19.0937C13.0753 18.4374 13.447 17.5389 13.447 16.3983V16.1401C13.447 14.9995 13.0753 14.1011 12.3318 13.4447C11.5884 12.7883 10.5163 12.4602 9.11555 12.4602H2.81224V20.0783Z" fill="white"/>
<path d="M18.8643 22.5961V0H32.8285V2.51785H21.6765V9.97458H31.9234V12.4924H21.6765V20.0783H32.9901V22.5961H18.8643Z" fill="white"/>
<path d="M35.292 22.5961V0H40.7225L48.4158 20.8207H48.8683V0H51.6159V22.5961H46.2177L38.5245 1.74313H38.0719V22.5961H35.292Z" fill="white"/>
<path d="M61.1273 23.0481C58.9077 23.0481 57.1514 22.424 55.8584 21.1758C54.5654 19.9276 53.9189 18.1415 53.9189 15.8173V14.0419H56.6989V15.8173C56.6989 17.2161 57.0652 18.3513 57.7979 19.2229C58.5306 20.0944 59.6296 20.5302 61.095 20.5302C62.5604 20.5302 63.6325 20.0944 64.2467 19.2229C64.8608 18.3513 65.1679 17.2161 65.1679 15.8173V0H67.9802V15.8173C67.9802 18.163 67.3983 19.9545 66.2346 21.1919C65.0709 22.4293 63.3685 23.0481 61.1273 23.0481Z" fill="white"/>
<path d="M69.2148 22.5961L76.1323 0H81.0457L87.9631 22.5961H85.0862L83.373 16.9148H73.8049L72.0917 22.5961H69.2148ZM74.5161 14.397H82.6619L78.8153 1.71085H78.3627L74.5161 14.397Z" fill="white"/>
<path d="M90.0156 22.5961V0H95.3492L101.232 20.8207H101.685L107.568 0H112.869V22.5961H110.186V1.83997H109.734L103.851 22.5961H99.0665L93.1834 1.83997H92.7309V22.5961H90.0156Z" fill="white"/>
<path d="M116.174 22.5961V0H118.986V22.5961H116.174Z" fill="white"/>
<path d="M122.256 22.5961V0H127.686L135.38 20.8207H135.832V0H138.58V22.5961H133.182L125.488 1.74313H125.036V22.5961H122.256Z" fill="white"/>
<path d="M0 49.1801V26.584H13.9642V29.1018H2.81224V36.5586H13.0592V39.0764H2.81224V46.6623H14.1259V49.1801H0Z" fill="white"/>
<path d="M16.0938 49.1801V45.5002L28.6357 29.4892V29.1018H16.4493V26.584H31.3833V30.2639L18.8413 46.2749V46.6623H31.6419V49.1801H16.0938Z" fill="white"/>
<path d="M34.0381 49.1801V26.584H48.0023V29.1018H36.8503V36.5586H47.0972V39.0764H36.8503V46.6623H48.164V49.1801H34.0381Z" fill="white"/>
<path d="M58.5818 49.6318C55.8665 49.6318 53.7007 48.8517 52.0845 47.2915C50.4683 45.7313 49.6602 43.4663 49.6602 40.4965V35.2671C49.6602 32.2974 50.4683 30.0324 52.0845 28.4722C53.7007 26.9119 55.8665 26.1318 58.5818 26.1318C61.297 26.1318 63.4574 26.9119 65.0628 28.4722C66.6683 30.0324 67.471 32.2974 67.471 35.2671V40.4965C67.471 43.4663 66.6683 45.7313 65.0628 47.2915C63.4574 48.8517 61.297 49.6318 58.5818 49.6318ZM58.5818 47.114C60.5212 47.114 62.0243 46.5383 63.091 45.387C64.1578 44.2356 64.6911 42.627 64.6911 40.5611V35.2026C64.6911 33.1366 64.1578 31.528 63.091 30.3767C62.0243 29.2254 60.5212 28.6497 58.5818 28.6497C56.6423 28.6497 55.1392 29.2254 54.0725 30.3767C53.0058 31.528 52.4724 33.1366 52.4724 35.2026V40.5611C52.4724 42.627 53.0058 44.2356 54.0725 45.387C55.1392 46.5383 56.6423 47.114 58.5818 47.114ZM68.5027 49.0373L66.5377 50.9997L59.2242 43.6963L61.1893 41.7339L68.5027 49.0373Z" fill="white"/>
<path d="M78.4824 49.632C76.8016 49.632 75.3308 49.3308 74.0701 48.7282C72.8095 48.1256 71.8343 47.2272 71.1447 46.0328C70.4551 44.8384 70.1104 43.3589 70.1104 41.5943V26.584H72.8903V41.6588C72.8903 43.4665 73.3805 44.8277 74.361 45.7423C75.3416 46.6569 76.7154 47.1142 78.4824 47.1142C80.2495 47.1142 81.6502 46.6569 82.62 45.7423C83.5897 44.8277 84.0746 43.4665 84.0746 41.6588V26.584H86.8545V41.5943C86.8545 43.3589 86.5151 44.8384 85.8363 46.0328C85.1575 47.2272 84.1877 48.1256 82.9271 48.7282C81.6664 49.3308 80.1849 49.632 78.4824 49.632Z" fill="white"/>
<path d="M90.1064 49.1801V26.584H92.9187V49.1801H90.1064Z" fill="white"/>
<path d="M96.1904 49.1801V26.584H110.155V29.1018H99.0027V36.5586H109.25V39.0764H99.0027V46.6623H110.316V49.1801H96.1904Z" fill="white"/>
<path d="M112.618 49.1801V26.584H115.43V46.6623H126.809V49.1801H112.618Z" fill="white"/>
<path d="M134.175 33.023L130.463 33.6471L130.841 33.1306L131.994 29.6914L131.16 29.8111L127.655 35.1992L128.125 35.9148L131.837 35.2907L131.46 35.8072L130.307 39.2477L131.141 39.1266L134.645 33.7385L134.175 33.023Z" fill="white"/>
<path d="M131.155 26.584C130.471 26.584 129.785 26.6754 129.118 26.8543C124.938 27.9788 122.449 32.3097 123.569 36.5088C124.487 39.9493 127.603 42.3529 131.147 42.3529C131.831 42.3529 132.517 42.2614 133.183 42.0825C137.364 40.9581 139.853 36.6272 138.732 32.428C137.815 28.9875 134.7 26.584 131.155 26.584ZM125.239 36.0636C124.364 32.7831 126.306 29.4018 129.568 28.5235C130.088 28.3836 130.622 28.3137 131.154 28.3137C133.916 28.3137 136.344 30.1886 137.061 32.8746C137.936 36.1551 135.994 39.5364 132.732 40.4147C132.213 40.5546 131.679 40.6245 131.147 40.6245C128.386 40.6245 125.956 38.7496 125.239 36.0636Z" fill="white"/>
</svg>
