<svg width="32" height="8" viewBox="0 0 32 8" fill="none" xmlns="http://www.w3.org/2000/svg">
<path d="M0.078125 7.87102V0.791016H0.438125V7.87102H0.078125ZM1.51813 7.87102V0.791016H1.87813V7.87102H1.51813ZM2.23813 7.87102V0.791016H2.95813V7.87102H2.23813Z" fill="white"/>
<path d="M4.03906 7.87102V0.791016H4.39906V7.87102H4.03906ZM5.47906 7.87102V0.791016H6.19906V7.87102H5.47906ZM6.55906 7.87102V0.791016H6.91906V7.87102H6.55906Z" fill="white"/>
<path d="M8 7.87102V0.791016H8.36V7.87102H8ZM8.72 7.87102V0.791016H9.8V7.87102H8.72ZM10.88 7.87102V0.791016H11.6V7.87102H10.88Z" fill="white"/>
<path d="M11.9609 7.87102V0.791016H12.3209V7.87102H11.9609ZM12.6809 7.87102V0.791016H13.4009V7.87102H12.6809ZM13.7609 7.87102V0.791016H14.8409V7.87102H13.7609Z" fill="white"/>
<path d="M15.9219 7.87102V0.791016H16.2819V7.87102H15.9219ZM16.6419 7.87102V0.791016H17.0019V7.87102H16.6419ZM18.0819 7.87102V0.791016H18.8019V7.87102H18.0819Z" fill="white"/>
<path d="M19.8828 7.87102V0.791016H20.2428V7.87102H19.8828ZM20.6028 7.87102V0.791016H21.6828V7.87102H20.6028ZM22.0428 7.87102V0.791016H22.7628V7.87102H22.0428Z" fill="white"/>
<path d="M23.8438 7.87102V0.791016H24.5637V7.87102H23.8438ZM25.6437 7.87102V0.791016H26.0037V7.87102H25.6437ZM27.0837 7.87102V0.791016H27.4438V7.87102H27.0837Z" fill="white"/>
<path d="M27.8047 7.87102V0.791016H28.1647V7.87102H27.8047ZM28.5247 7.87102V0.791016H29.6047V7.87102H28.5247ZM30.6847 7.87102V0.791016H31.4047V7.87102H30.6847Z" fill="white"/>
</svg>
