<svg width="200" height="16" viewBox="0 0 200 16" fill="none" xmlns="http://www.w3.org/2000/svg">
<path d="M5.04058 9.52344H0.28125V15.2185H5.04058V9.52344Z" fill="white"/>
<path d="M13.5093 9.52344H8.75V15.2185H13.5093V9.52344Z" fill="white"/>
<path d="M30.4546 9.52344H25.6953V15.2185H30.4546V9.52344Z" fill="white"/>
<path d="M55.8609 9.52344H51.1016V15.2185H55.8609V9.52344Z" fill="white"/>
<path d="M72.8062 9.52344H68.0469V15.2185H72.8062V9.52344Z" fill="white"/>
<path d="M81.2828 9.52344H76.5234V15.2185H81.2828V9.52344Z" fill="white"/>
<path d="M98.2125 9.52344H93.4531V15.2185H98.2125V9.52344Z" fill="white"/>
<path d="M115.158 9.52344H110.398V15.2185H115.158V9.52344Z" fill="white"/>
<path d="M123.627 9.52344H118.867V15.2185H123.627V9.52344Z" fill="white"/>
<path d="M132.103 9.52344H127.344V15.2185H132.103V9.52344Z" fill="white"/>
<path d="M149.033 9.52344H144.273V15.2185H149.033V9.52344Z" fill="white"/>
<path d="M174.455 9.52344H169.695V15.2185H174.455V9.52344Z" fill="white"/>
<path d="M182.923 9.52344H178.164V15.2185H182.923V9.52344Z" fill="white"/>
<path d="M191.4 9.52344H186.641V15.2185H191.4V9.52344Z" fill="white"/>
<path d="M199.877 9.52344H195.117V15.2185H199.877V9.52344Z" fill="white"/>
<path d="M5.04058 0.0664062H0.28125V5.76151H5.04058V0.0664062Z" fill="white"/>
<path d="M21.9859 0.0664062H17.2266V5.76151H21.9859V0.0664062Z" fill="white"/>
<path d="M47.4 0.0664062H42.6406V5.76151H47.4V0.0664062Z" fill="white"/>
<path d="M64.3296 0.0664062H59.5703V5.76151H64.3296V0.0664062Z" fill="white"/>
<path d="M72.8062 0.0664062H68.0469V5.76151H72.8062V0.0664062Z" fill="white"/>
<path d="M89.7359 0.0664062H84.9766V5.76151H89.7359V0.0664062Z" fill="white"/>
<path d="M106.689 0.0664062H101.93V5.76151H106.689V0.0664062Z" fill="white"/>
<path d="M115.158 0.0664062H110.398V5.76151H115.158V0.0664062Z" fill="white"/>
<path d="M98.2125 0.0664062H93.4531V5.76151H98.2125V0.0664062Z" fill="white"/>
<path d="M140.58 0.0664062H135.82V5.76151H140.58V0.0664062Z" fill="white"/>
<path d="M149.033 0.0664062H144.273V5.76151H149.033V0.0664062Z" fill="white"/>
<path d="M199.877 0.0664062H195.117V5.76151H199.877V0.0664062Z" fill="white"/>
<path d="M165.986 0.0664062H161.227V5.76151H165.986V0.0664062Z" fill="white"/>
<path d="M174.455 0.0664062H169.695V5.76151H174.455V0.0664062Z" fill="white"/>
<path d="M182.923 0.0664062H178.164V5.76151H182.923V0.0664062Z" fill="white"/>
<path d="M191.4 0.0664062H186.641V5.76151H191.4V0.0664062Z" fill="white"/>
</svg>
