<?xml version="1.0" encoding="UTF-8"?>
<svg id="Camada_1" data-name="Camada 1" xmlns="http://www.w3.org/2000/svg" viewBox="0 0 4224 3765.33">
  <defs>
    <style>
      .cls-1 {
        fill: #fff;
        stroke: #fff;
        stroke-miterlimit: 15;
      }
    </style>
  </defs>
  <line class="cls-1" x1="1915.35" y1="3327.31" x2="1923.31" y2="3268.85"/>
  <line class="cls-1" x1="1804" y1="3307.73" x2="1816.46" y2="3250.06"/>
  <line class="cls-1" x1="1694.49" y1="3279.58" x2="1711.39" y2="3223.05"/>
  <line class="cls-1" x1="1587.5" y1="3243.02" x2="1608.72" y2="3187.97"/>
  <line class="cls-1" x1="1483.66" y1="3198.29" x2="1509.08" y2="3145.05"/>
  <line class="cls-1" x1="1383.6" y1="3145.64" x2="1413.07" y2="3094.53"/>
  <line class="cls-1" x1="1287.91" y1="3085.4" x2="1321.26" y2="3036.73"/>
  <line class="cls-1" x1="1197.19" y1="3017.92" x2="1234.21" y2="2971.98"/>
  <line class="cls-1" x1="1111.97" y1="2943.61" x2="1152.44" y2="2900.68"/>
  <line class="cls-1" x1="1032.76" y1="2862.93" x2="1076.43" y2="2823.26"/>
  <line class="cls-1" x1="960.04" y1="2776.35" x2="1006.66" y2="2740.18"/>
  <line class="cls-1" x1="894.25" y1="2684.39" x2="943.53" y2="2651.95"/>
  <line class="cls-1" x1="835.79" y1="2587.62" x2="887.43" y2="2559.09"/>
  <line class="cls-1" x1="785" y1="2486.6" x2="838.7" y2="2462.16"/>
  <line class="cls-1" x1="742.19" y1="2381.95" x2="797.62" y2="2361.75"/>
  <line class="cls-1" x1="707.61" y1="2274.3" x2="764.45" y2="2258.45"/>
  <line class="cls-1" x1="681.49" y1="2164.29" x2="739.38" y2="2152.9"/>
  <line class="cls-1" x1="663.97" y1="2052.59" x2="722.56" y2="2045.71"/>
  <line class="cls-1" x1="655.15" y1="1939.87" x2="714.11" y2="1937.55"/>
  <line class="cls-1" x1="655.1" y1="1826.8" x2="714.06" y2="1829.06"/>
  <line class="cls-1" x1="663.81" y1="1714.07" x2="722.42" y2="1720.89"/>
  <line class="cls-1" x1="681.23" y1="1602.35" x2="739.13" y2="1613.7"/>
  <line class="cls-1" x1="707.26" y1="1492.32" x2="764.1" y2="1508.12"/>
  <line class="cls-1" x1="741.73" y1="1384.64" x2="797.18" y2="1404.8"/>
  <line class="cls-1" x1="784.44" y1="1279.95" x2="838.16" y2="1304.34"/>
  <line class="cls-1" x1="835.14" y1="1178.89" x2="886.81" y2="1207.37"/>
  <line class="cls-1" x1="893.52" y1="1082.06" x2="942.83" y2="1114.46"/>
  <line class="cls-1" x1="959.22" y1="990.04" x2="1005.87" y2="1026.17"/>
  <line class="cls-1" x1="1031.86" y1="903.4" x2="1075.57" y2="943.02"/>
  <line class="cls-1" x1="1110.99" y1="822.64" x2="1151.5" y2="865.53"/>
  <line class="cls-1" x1="1196.15" y1="748.26" x2="1233.21" y2="794.16"/>
  <line class="cls-1" x1="1286.81" y1="680.69" x2="1320.2" y2="729.33"/>
  <line class="cls-1" x1="1382.44" y1="620.36" x2="1411.96" y2="671.45"/>
  <line class="cls-1" x1="1482.45" y1="567.62" x2="1507.92" y2="620.84"/>
  <line class="cls-1" x1="1586.25" y1="522.79" x2="1607.52" y2="577.82"/>
  <line class="cls-1" x1="1693.21" y1="486.14" x2="1710.16" y2="542.65"/>
  <line class="cls-1" x1="1802.69" y1="457.89" x2="1815.21" y2="515.54"/>
  <line class="cls-1" x1="1914.03" y1="438.2" x2="1922.04" y2="496.65"/>
  <line class="cls-1" x1="2026.56" y1="427.2" x2="2030.02" y2="486.1"/>
  <line class="cls-1" x1="2139.6" y1="424.96" x2="2138.49" y2="483.95"/>
  <line class="cls-1" x1="2252.48" y1="431.48" x2="2246.8" y2="490.21"/>
  <line class="cls-1" x1="2364.51" y1="446.73" x2="2354.3" y2="504.84"/>
  <line class="cls-1" x1="2475.03" y1="470.62" x2="2460.34" y2="527.76"/>
  <line class="cls-1" x1="2583.36" y1="502.99" x2="2564.29" y2="558.83"/>
  <line class="cls-1" x1="2688.86" y1="543.67" x2="2665.51" y2="597.86"/>
  <line class="cls-1" x1="2790.88" y1="592.4" x2="2763.41" y2="644.61"/>
  <line class="cls-1" x1="2888.83" y1="648.89" x2="2857.39" y2="698.82"/>
  <line class="cls-1" x1="2982.1" y1="712.8" x2="2946.89" y2="760.14"/>
  <line class="cls-1" x1="3070.14" y1="783.74" x2="3031.37" y2="828.21"/>
  <line class="cls-1" x1="3152.42" y1="861.29" x2="3110.32" y2="902.63"/>
  <line class="cls-1" x1="3228.44" y1="944.99" x2="3183.26" y2="982.93"/>
  <line class="cls-1" x1="3297.74" y1="1034.32" x2="3249.76" y2="1068.65"/>
  <line class="cls-1" x1="3359.92" y1="1128.76" x2="3309.42" y2="1159.27"/>
  <line class="cls-1" x1="3414.59" y1="1227.73" x2="3361.88" y2="1254.24"/>
  <line class="cls-1" x1="3461.42" y1="1330.64" x2="3406.82" y2="1352.98"/>
  <line class="cls-1" x1="3500.14" y1="1436.87" x2="3443.97" y2="1454.91"/>
  <line class="cls-1" x1="3530.52" y1="1545.78" x2="3473.11" y2="1559.42"/>
  <line class="cls-1" x1="3552.36" y1="1656.72" x2="3494.07" y2="1665.86"/>
  <line class="cls-1" x1="3565.53" y1="1769.02" x2="3506.71" y2="1773.62"/>
  <line class="cls-1" x1="3569.97" y1="1882" x2="3510.97" y2="1882.02"/>
  <line class="cls-1" x1="3565.64" y1="1994.98" x2="3506.81" y2="1990.44"/>
  <line class="cls-1" x1="3552.56" y1="2107.29" x2="3494.27" y2="2098.2"/>
  <line class="cls-1" x1="3530.82" y1="2218.25" x2="3473.41" y2="2204.67"/>
  <line class="cls-1" x1="3500.55" y1="2327.19" x2="3444.36" y2="2309.2"/>
  <line class="cls-1" x1="3461.93" y1="2433.45" x2="3407.3" y2="2411.16"/>
  <line class="cls-1" x1="3415.19" y1="2536.4" x2="3362.45" y2="2509.95"/>
  <line class="cls-1" x1="3360.61" y1="2635.43" x2="3310.08" y2="2604.96"/>
  <line class="cls-1" x1="3298.52" y1="2729.92" x2="3250.51" y2="2695.63"/>
  <line class="cls-1" x1="3229.3" y1="2819.32" x2="3184.09" y2="2781.41"/>
  <line class="cls-1" x1="3153.36" y1="2903.08" x2="3111.21" y2="2861.79"/>
  <line class="cls-1" x1="3071.15" y1="2980.71" x2="3032.34" y2="2936.28"/>
  <line class="cls-1" x1="2983.18" y1="3051.74" x2="2947.92" y2="3004.43"/>
  <line class="cls-1" x1="2889.96" y1="3115.73" x2="2858.48" y2="3065.83"/>
  <line class="cls-1" x1="2792.07" y1="3172.31" x2="2764.55" y2="3120.12"/>
  <line class="cls-1" x1="2690.09" y1="3221.13" x2="2666.69" y2="3166.97"/>
  <line class="cls-1" x1="2584.63" y1="3261.91" x2="2565.5" y2="3206.09"/>
  <line class="cls-1" x1="2476.33" y1="3294.38" x2="2461.58" y2="3237.25"/>
  <line class="cls-1" x1="2365.83" y1="3318.37" x2="2355.56" y2="3260.27"/>
  <line class="cls-1" x1="2253.81" y1="3333.72" x2="2248.07" y2="3275"/>
  <line class="cls-1" x1="2140.94" y1="3340.35" x2="2139.77" y2="3281.36"/>
  <line class="cls-1" x1="2027.89" y1="3338.21" x2="2031.3" y2="3279.31"/>
</svg>