<svg width="695" height="19" viewBox="0 0 695 19" fill="none" xmlns="http://www.w3.org/2000/svg">
<path d="M5.46667 0.603516V18.3846H0.464844V0.603516M126.598 0.603516V18.3846H131.6V0.603516M310.152 0.603516V18.3846H315.154V0.603516M20.7806 0.603516V18.3846H25.7824V0.603516M180.598 0.603516V18.3846H185.6V0.603516M197.37 0.603516V18.3846H202.372V0.603516M422.957 0.603516V18.3846H427.958V0.603516M469.975 0.603516V18.3846H474.977V0.603516M689.018 0.603516V18.3846H694.02V0.603516M515.636 0.603516V18.3846H520.638V0.603516M532.408 0.603516V18.3846H537.41V0.603516M586.396 0.603516V18.3846H591.398V0.603516M603.168 0.603516V18.3846H608.17V0.603516M246.418 0.603516V18.3846H251.42V0.603516M302.733 0.603516V18.3846H307.735V0.603516" fill="white"/>
</svg>
