<svg width="351" height="267" viewBox="0 0 351 267" fill="none" xmlns="http://www.w3.org/2000/svg">
<path fill-rule="evenodd" clip-rule="evenodd" d="M1.12109 1.24902V156.586L111.016 266.481H324.315L350.281 240.514V103.261L324.315 77.2947H210.246L134.201 1.24902H1.12109ZM126.911 18.0352H14.5293V147.645L119.554 251.695H207.744V100.492L126.911 18.0352Z" fill="#D9D9D9"/>
<path d="M1.12109 156.586H0.621094V156.793L0.76754 156.939L1.12109 156.586ZM1.12109 1.24902V0.749023H0.621094V1.24902H1.12109ZM111.016 266.481L110.663 266.835L110.809 266.981H111.016V266.481ZM324.315 266.481V266.981H324.522L324.668 266.835L324.315 266.481ZM350.281 240.514L350.635 240.868L350.781 240.721V240.514H350.281ZM350.281 103.261H350.781V103.054L350.635 102.908L350.281 103.261ZM324.315 77.2947L324.668 76.9411L324.522 76.7947H324.315V77.2947ZM210.246 77.2947L209.893 77.6482L210.039 77.7947H210.246V77.2947ZM134.201 1.24902L134.554 0.89547L134.408 0.749023H134.201V1.24902ZM14.5293 18.0352V17.5352H14.0293V18.0352H14.5293ZM126.911 18.0352L127.268 17.6852L127.121 17.5352H126.911V18.0352ZM14.5293 147.645H14.0293V147.853L14.1774 148L14.5293 147.645ZM119.554 251.695L119.202 252.05L119.348 252.195H119.554V251.695ZM207.744 251.695V252.195H208.244V251.695H207.744ZM207.744 100.492H208.244V100.288L208.101 100.142L207.744 100.492ZM1.62109 156.586V1.24902H0.621094V156.586H1.62109ZM111.37 266.127L1.47465 156.232L0.76754 156.939L110.663 266.835L111.37 266.127ZM324.315 265.981H111.016V266.981H324.315V265.981ZM349.928 240.161L323.961 266.127L324.668 266.835L350.635 240.868L349.928 240.161ZM349.781 103.261V240.514H350.781V103.261H349.781ZM323.961 77.6482L349.928 103.615L350.635 102.908L324.668 76.9411L323.961 77.6482ZM210.246 77.7947H324.315V76.7947H210.246V77.7947ZM133.847 1.60258L209.893 77.6482L210.6 76.9411L134.554 0.89547L133.847 1.60258ZM1.12109 1.74902H134.201V0.749023H1.12109V1.74902ZM14.5293 18.5352H126.911V17.5352H14.5293V18.5352ZM15.0293 147.645V18.0352H14.0293V147.645H15.0293ZM119.905 251.34L14.8812 147.289L14.1774 148L119.202 252.05L119.905 251.34ZM207.744 251.195H119.554V252.195H207.744V251.195ZM207.244 100.492V251.695H208.244V100.492H207.244ZM126.554 18.3853L207.387 100.842L208.101 100.142L127.268 17.6852L126.554 18.3853Z" fill="black"/>
</svg>
