<svg width="2044" height="369" viewBox="0 0 2044 369" fill="none" xmlns="http://www.w3.org/2000/svg">
<path d="M261.277 259.71V264.241C261.277 266.687 261.277 269.132 261.277 271.577C261.421 273.879 261.78 276.037 262.356 278.05C261.637 285.099 261.061 292.147 260.63 299.195C260.342 306.244 260.198 313.292 260.198 320.34L255.451 320.556C254.732 320.556 254.157 320.053 253.725 319.046C253.437 318.183 253.15 317.032 252.862 315.593C252.718 314.299 252.574 312.86 252.431 311.278C252.431 309.696 252.431 308.257 252.431 306.963V302.648H250.273C250.273 303.511 250.057 305.381 249.626 308.257C249.194 311.134 248.619 314.155 247.9 317.32C247.324 320.484 246.533 323.289 245.526 325.734C244.519 328.324 243.368 329.618 242.074 329.618C241.067 329.618 240.204 328.611 239.485 326.597C238.765 324.727 238.19 322.57 237.759 320.125C237.327 317.679 236.967 315.306 236.68 313.004C236.392 310.847 236.248 309.408 236.248 308.689C234.954 296.031 234.306 283.373 234.306 270.714C234.306 257.912 233.731 245.182 232.58 232.524C232.149 228.209 231.501 224.037 230.638 220.01C229.775 215.838 228.84 211.667 227.833 207.495C226.97 203.324 226.179 199.153 225.46 194.981C224.885 190.81 224.597 186.422 224.597 181.819C224.597 175.346 226.251 170.312 229.56 166.716C232.868 162.976 236.967 160.171 241.858 158.301C246.893 156.431 252.287 155.28 258.04 154.849C263.794 154.417 269.116 154.202 274.007 154.202C283.932 154.202 293.642 154.921 303.135 156.359C312.773 157.798 321.331 160.603 328.811 164.774C336.291 168.945 342.261 174.843 346.72 182.467C351.323 189.947 353.624 199.728 353.624 211.811C353.624 222.024 352.042 230.942 348.877 238.565C345.857 246.189 341.541 252.518 335.931 257.553C330.322 262.587 323.489 266.399 315.434 268.988C307.522 271.434 298.676 272.656 288.895 272.656C288.463 272.656 287.528 272.656 286.09 272.656C284.651 272.512 283.141 272.369 281.559 272.225C279.977 271.937 278.538 271.577 277.243 271.146C276.093 270.571 275.517 269.851 275.517 268.988L276.165 267.478C278.61 267.622 281.055 267.766 283.501 267.909C285.946 267.909 288.391 267.909 290.837 267.909C295.152 267.909 299.395 267.694 303.567 267.262C307.882 266.831 312.054 265.968 316.081 264.673C320.109 263.378 323.849 261.58 327.301 259.279C330.465 257.121 333.414 254.388 336.147 251.08C333.27 254.388 330.178 257.121 326.869 259.279C323.273 261.58 319.389 263.307 315.218 264.457C311.19 265.608 306.947 266.399 302.488 266.831C298.173 267.118 293.785 267.262 289.326 267.262C287.312 267.262 285.227 267.262 283.069 267.262C280.911 267.118 278.826 266.974 276.812 266.831L276.596 262.731C275.445 262.875 274.439 263.019 273.575 263.163C272.712 263.163 271.921 263.163 271.202 263.163C269.476 263.163 267.894 262.947 266.455 262.515C265.017 261.94 263.291 261.005 261.277 259.71ZM280.911 178.799C276.021 178.799 270.842 179.014 265.376 179.446C259.91 179.734 254.876 180.669 250.273 182.251L249.194 183.977C254.66 182.395 259.695 181.46 264.298 181.172C268.901 180.884 273.288 180.741 277.459 180.741H278.322C284.508 180.741 290.621 180.956 296.662 181.388C302.704 181.676 308.098 182.898 312.845 185.056C317.591 187.07 321.403 190.306 324.28 194.765C327.301 199.081 328.811 205.266 328.811 213.321C328.811 215.766 328.595 218.068 328.164 220.226C327.732 222.383 327.157 224.541 326.438 226.698C327.013 224.685 327.445 222.671 327.732 220.657C328.164 218.499 328.38 216.342 328.38 214.184C328.38 208.718 327.445 203.755 325.575 199.296C323.705 194.837 320.684 190.81 316.513 187.214L315.002 186.35C312.845 185.344 310.112 184.552 306.803 183.977C303.639 183.402 300.258 182.97 296.662 182.682C293.066 182.251 289.398 182.035 285.658 182.035C282.062 181.891 278.682 181.819 275.517 181.819H269.476C266.887 181.819 263.866 182.035 260.414 182.467C257.105 182.898 254.229 183.474 251.783 184.193C251.783 187.789 252.071 191.385 252.646 194.981C253.366 198.433 254.085 201.886 254.804 205.338L257.177 215.694C258.04 219.147 258.616 222.599 258.903 226.051L260.845 253.022C261.852 252.303 262.931 251.727 264.082 251.296C265.376 250.72 267.031 250.433 269.044 250.433H270.123C273.288 251.439 276.524 252.015 279.833 252.159C283.285 252.303 286.665 252.374 289.974 252.374C296.878 252.374 302.991 251.727 308.314 250.433C313.78 249.138 318.383 246.98 322.123 243.96C325.862 240.795 328.667 236.696 330.537 231.661C332.551 226.483 333.558 220.154 333.558 212.674C333.558 209.365 332.983 205.769 331.832 201.886C330.825 197.858 329.243 194.118 327.085 190.666C324.927 187.214 322.194 184.337 318.886 182.035C315.721 179.734 312.053 178.511 307.882 178.367C311.91 178.799 315.506 180.093 318.67 182.251C321.835 184.409 324.496 187.142 326.654 190.45C328.811 193.758 330.393 197.426 331.4 201.454C332.551 205.338 333.127 209.15 333.127 212.89C333.127 225.979 329.962 235.617 323.633 241.802C317.304 247.987 307.594 251.08 294.505 251.08C291.34 251.08 288.176 250.936 285.011 250.648L275.517 249.785C280.264 248.635 285.083 247.987 289.974 247.843C295.008 247.556 299.755 246.98 304.214 246.117C308.817 245.254 312.917 243.672 316.513 241.37C320.253 238.925 323.273 234.898 325.575 229.288L327.517 229.935C329.243 225.188 330.106 220.226 330.106 215.047C330.106 207.136 328.739 200.807 326.006 196.06C323.417 191.313 319.893 187.645 315.434 185.056C310.975 182.467 305.724 180.813 299.683 180.093C293.785 179.23 287.528 178.799 280.911 178.799ZM349.309 211.379C349.309 205.482 348.518 200.087 346.935 195.197C345.353 190.162 342.908 185.272 339.599 180.525C342.62 185.272 344.85 190.378 346.288 195.844C347.87 201.166 348.662 206.632 348.662 212.242C348.662 221.304 346.864 230.007 343.267 238.35C345.137 234.322 346.576 230.079 347.583 225.62C348.733 220.873 349.309 216.126 349.309 211.379ZM313.06 162.616C315.074 163.336 317.016 163.983 318.886 164.558C320.9 164.99 322.914 165.637 324.927 166.5C321.331 164.63 317.376 163.336 313.06 162.616ZM333.558 172.973C332.983 171.822 331.688 170.6 329.674 169.305C327.804 168.154 326.294 167.291 325.143 166.716C326.582 167.867 327.948 168.802 329.243 169.521C330.681 170.384 332.12 171.535 333.558 172.973ZM380.913 240.723C381.345 250.792 381.776 260.861 382.208 270.93C382.783 280.999 383.215 291.068 383.502 301.137V302.216L382.855 301.569V300.058C382.136 287.113 381.417 274.382 380.698 261.868C380.122 249.21 379.834 236.408 379.834 223.462V199.081C379.834 195.197 379.834 191.385 379.834 187.645C379.978 183.761 380.122 179.878 380.266 175.994C380.41 171.535 380.769 167.219 381.345 163.048C381.92 158.733 382.208 154.273 382.208 149.671H383.071C384.078 149.671 384.941 149.599 385.66 149.455C386.379 149.311 386.955 149.239 387.386 149.239C388.825 149.239 389.688 150.174 389.975 152.044C390.263 153.914 390.407 155.352 390.407 156.359L390.191 160.89H392.78C392.924 160.027 393.14 158.661 393.428 156.791C393.859 154.777 394.435 152.763 395.154 150.749C395.873 148.736 396.664 147.009 397.527 145.571C398.534 143.989 399.685 143.198 400.979 143.198C402.418 143.198 403.497 144.492 404.216 147.081C405.079 149.671 405.726 152.763 406.158 156.359C406.589 159.811 406.805 163.408 406.805 167.147C406.949 170.744 407.021 173.62 407.021 175.778V178.367C407.021 194.909 407.165 211.451 407.452 227.993C407.74 244.535 407.884 261.077 407.884 277.619C407.884 278.913 407.812 280.28 407.668 281.718C407.668 283.013 407.668 284.308 407.668 285.602C407.668 286.321 407.668 286.969 407.668 287.544C407.812 288.119 407.884 288.767 407.884 289.486H410.041C411.336 289.486 412.631 289.558 413.925 289.702C415.22 289.702 416.514 289.702 417.809 289.702C426.871 289.702 435.789 289.27 444.564 288.407C453.482 287.4 462.472 286.897 471.534 286.897H472.397C473.836 286.897 475.562 287.113 477.576 287.544C479.59 287.832 480.596 288.839 480.596 290.565V290.996C472.973 290.996 465.493 291.284 458.157 291.859C450.821 292.291 443.341 292.866 435.717 293.585C441.327 293.298 446.865 292.938 452.331 292.507C457.941 292.075 463.551 291.859 469.161 291.859C471.031 291.859 472.829 291.931 474.555 292.075C476.281 292.075 478.079 292.147 479.949 292.291L479.086 294.88C479.949 295.024 481.1 295.24 482.538 295.527C483.977 295.671 485.343 296.031 486.638 296.606C488.076 297.182 489.299 297.901 490.306 298.764C491.313 299.483 491.816 300.418 491.816 301.569C491.816 303.583 490.881 304.949 489.011 305.668C487.141 306.531 485.415 307.322 483.833 308.042C481.675 307.322 479.374 306.891 476.929 306.747C474.627 306.747 472.326 306.747 470.024 306.747C464.99 306.747 460.027 306.963 455.136 307.394C450.533 307.826 445.858 308.257 441.112 308.689C444.564 308.545 447.872 308.401 451.037 308.257C454.633 308.114 458.229 308.042 461.825 308.042C464.99 308.042 468.082 308.114 471.103 308.257C474.267 308.401 477.432 308.761 480.596 309.336C478.007 310.487 474.771 311.35 470.887 311.925C467.147 312.501 463.191 312.932 459.02 313.22C454.992 313.508 450.965 313.652 446.937 313.652C442.91 313.795 439.385 313.939 436.365 314.083L434.423 311.925C431.258 312.645 428.094 313.076 424.929 313.22C421.765 313.508 418.528 313.652 415.22 313.652C411.768 313.652 408.315 313.508 404.863 313.22C401.411 312.932 398.031 312.501 394.722 311.925C393.14 310.199 391.558 308.473 389.975 306.747C388.393 305.165 386.667 303.583 384.797 302C384.797 291.644 384.509 281.431 383.934 271.362C383.502 261.293 382.927 251.08 382.208 240.723H380.913ZM426.871 309.768C423.419 309.912 419.823 309.984 416.083 309.984C411.624 309.984 407.452 309.84 403.569 309.552C399.685 309.264 396.952 308.761 395.37 308.042L388.897 301.785L386.955 276.324V281.071C386.955 284.38 387.17 287.688 387.602 290.996C388.034 294.305 388.249 297.613 388.249 300.921V302.216C389.4 303.367 390.479 304.518 391.486 305.668C392.636 306.819 393.715 308.042 394.722 309.336H396.233C399.397 309.336 402.49 309.48 405.51 309.768C408.675 310.199 411.84 310.415 415.004 310.415C418.312 310.415 421.549 310.271 424.713 309.984C425.864 309.984 427.087 309.912 428.381 309.768H426.871ZM408.531 294.664C409.25 294.808 409.97 294.952 410.689 295.096C411.552 295.096 412.415 295.096 413.278 295.096C417.018 295.096 420.758 295.024 424.498 294.88C428.238 294.736 431.978 294.305 435.717 293.585C431.115 293.873 426.583 294.017 422.124 294.017C417.665 294.017 413.134 294.089 408.531 294.233V294.664ZM394.075 313.436C396.52 314.155 399.038 314.587 401.627 314.73C404.36 315.018 407.165 315.162 410.041 315.162C411.768 315.162 413.422 315.09 415.004 314.946C416.443 314.946 417.809 314.946 419.104 314.946C418.241 315.09 417.234 315.162 416.083 315.162C414.932 315.306 413.781 315.378 412.631 315.378H408.315C406.589 315.378 404.791 315.306 402.921 315.162C401.195 315.018 399.469 314.874 397.743 314.73C396.161 314.587 395.01 314.371 394.291 314.083C393.859 313.652 393.14 312.86 392.133 311.71C391.126 310.703 390.047 309.624 388.897 308.473C387.746 307.322 386.667 306.172 385.66 305.021C384.797 304.014 384.294 303.367 384.15 303.079L394.075 313.436ZM402.921 293.801L398.174 292.938C399.038 293.226 400.332 293.801 402.058 294.664C403.784 295.383 405.079 295.815 405.942 295.959L405.295 293.585L402.921 293.801ZM618.271 267.909L616.977 267.262C610.935 265.68 604.534 264.673 597.773 264.241C591.013 263.81 584.108 262.875 577.06 261.437C583.965 262.875 590.725 264.026 597.342 264.889C603.959 265.608 610.504 267.046 616.977 269.204C614.963 270.499 612.805 271.146 610.504 271.146C607.771 270.858 605.038 270.427 602.305 269.851C599.715 269.276 596.91 268.844 593.89 268.557C593.89 267.694 594.105 267.046 594.537 266.615C590.366 266.615 586.194 266.183 582.023 265.32C577.995 264.457 574.039 263.522 570.156 262.515C566.272 261.365 562.46 260.358 558.72 259.495C555.124 258.488 551.744 257.984 548.579 257.984C548.579 258.416 548.507 258.632 548.363 258.632C552.103 259.351 555.627 260.358 558.936 261.652C562.244 262.947 565.984 263.954 570.156 264.673C574.183 265.68 578.067 266.399 581.807 266.831C585.691 267.262 589.503 267.838 593.242 268.557C587.201 267.981 581.016 267.118 574.687 265.968C568.501 264.817 562.388 263.522 556.347 262.084L546.206 259.495C542.61 268.701 538.942 277.763 535.202 286.681C531.606 295.455 528.082 304.374 524.629 313.436C524.342 312.86 523.838 312.501 523.119 312.357C522.544 312.357 521.896 312.357 521.177 312.357C520.602 312.357 520.026 312.141 519.451 311.71C518.876 311.422 518.588 310.703 518.588 309.552C518.588 308.401 518.876 306.747 519.451 304.589C520.026 302.576 521.105 299.843 522.687 296.39C522.4 296.103 521.896 295.959 521.177 295.959C520.602 295.815 520.17 295.743 519.882 295.743C517.006 301.785 514.201 306.387 511.468 309.552C508.878 312.86 506.793 314.515 505.21 314.515C503.484 314.515 502.621 312.86 502.621 309.552C502.621 306.819 503.125 303.367 504.132 299.195C505.139 294.88 506.361 290.277 507.8 285.386C509.382 280.496 511.108 275.461 512.978 270.283C514.848 264.961 516.646 259.782 518.372 254.748C516.79 253.741 515.064 253.022 513.194 252.59C511.468 252.159 509.526 251.799 507.368 251.511C507.8 250.936 508.015 250.217 508.015 249.354C508.015 248.491 508.087 247.628 508.231 246.765C508.375 245.901 508.663 245.182 509.094 244.607C509.526 244.032 510.317 243.744 511.468 243.744C511.755 243.744 512.618 243.888 514.057 244.175V242.233C511.755 241.083 509.957 239.716 508.663 238.134C507.512 236.552 506.937 234.969 506.937 233.387C506.937 229.935 510.245 228.209 516.862 228.209C518.732 228.209 520.602 228.353 522.472 228.64C524.485 228.784 526.499 229 528.513 229.288L538.438 206.632C540.596 201.742 542.897 196.707 545.343 191.529C547.932 186.35 550.953 181.244 554.405 176.21C557.857 171.175 561.741 166.428 566.056 161.969C570.515 157.366 575.622 153.267 581.375 149.671L584.612 148.376C588.639 149.383 591.876 150.246 594.321 150.965C596.91 151.54 598.996 151.972 600.578 152.26C602.017 152.835 603.168 153.195 604.031 153.339H603.815L604.031 153.986C604.031 154.13 603.959 154.273 603.815 154.417L606.404 158.948C615.754 174.627 623.665 190.882 630.138 207.711C636.611 224.541 642.149 241.083 646.752 257.337C647.903 260.933 649.269 264.817 650.852 268.988C652.578 273.016 654.16 276.9 655.598 280.64C657.181 284.236 658.475 287.544 659.482 290.565C660.489 293.442 660.992 295.527 660.992 296.822C660.992 297.829 660.777 298.476 660.345 298.764C659.914 298.908 659.338 298.98 658.619 298.98C654.879 289.63 651.355 280.424 648.047 271.362C644.738 262.443 641.502 253.453 638.337 244.391C641.214 253.453 644.235 262.443 647.399 271.362C650.708 280.424 654.016 289.63 657.325 298.98H655.814C654.951 298.98 654.376 299.411 654.088 300.274C654.376 300.562 654.735 301.353 655.167 302.648C655.598 303.798 656.03 305.021 656.461 306.316C656.893 307.754 657.253 309.192 657.54 310.631C657.828 312.069 657.972 313.148 657.972 313.867C657.972 317.032 657.037 318.614 655.167 318.614C654.16 318.614 653.369 318.398 652.793 317.967C652.218 317.535 651.571 316.96 650.852 316.241L648.694 314.083C647.831 313.22 646.752 312.357 645.457 311.494L624.744 251.943C627.765 261.293 630.714 270.642 633.59 279.992C636.611 289.342 639.704 298.548 642.868 307.61C640.567 304.877 638.409 301.569 636.395 297.685C634.525 293.801 632.727 289.702 631.001 285.386C629.419 281.071 627.909 276.684 626.47 272.225C625.032 267.622 623.593 263.307 622.155 259.279C622.155 259.567 622.155 259.854 622.155 260.142C622.299 260.286 622.371 260.502 622.371 260.789C622.371 263.091 621.651 264.817 620.213 265.968L618.271 267.909ZM616.977 245.47C617.264 245.47 617.696 245.398 618.271 245.254C618.846 244.967 619.278 244.823 619.566 244.823C614.819 232.884 610.072 221.304 605.325 210.085C600.722 198.865 595.616 188.077 590.006 177.72L588.711 179.014L591.948 184.84C596.982 194.046 601.513 203.54 605.541 213.321C609.569 223.102 613.38 233.171 616.977 243.528C612.805 232.308 608.274 221.16 603.383 210.085C598.637 198.865 593.53 188.724 588.064 179.662L587.201 180.093C582.31 185.128 577.707 191.169 573.392 198.218C569.221 205.266 565.265 212.458 561.525 219.794L555.915 233.387L559.583 234.25C561.741 234.826 563.827 235.473 565.84 236.192C567.998 236.767 569.868 237.415 571.45 238.134C574.615 239.716 578.786 240.939 583.965 241.802C589.143 242.665 594.177 243.528 599.068 244.391C604.103 245.11 608.418 245.973 612.014 246.98C615.754 247.843 617.624 249.138 617.624 250.864L591.301 247.843C592.883 248.131 594.825 248.491 597.126 248.922C599.428 249.21 601.729 249.569 604.031 250.001C606.476 250.433 608.849 250.864 611.151 251.296C613.452 251.583 615.394 251.871 616.977 252.159C616.977 252.59 616.905 253.022 616.761 253.453C616.761 253.741 616.761 254.029 616.761 254.316C616.761 254.604 616.905 254.82 617.192 254.964C617.624 254.964 618.055 255.036 618.487 255.179C619.062 255.179 619.566 255.323 619.997 255.611C620.429 255.755 620.86 256.186 621.292 256.905L616.977 245.47ZM570.156 199.296C570.443 199.296 570.515 199.512 570.371 199.944C570.371 200.231 570.443 200.375 570.587 200.375C570.875 200.375 571.738 199.368 573.176 197.354C574.615 195.341 576.269 193.039 578.139 190.45C580.009 187.861 581.807 185.415 583.533 183.114C585.259 180.813 586.482 179.302 587.201 178.583L586.122 177.073C583.101 179.949 580.297 183.33 577.707 187.214C575.118 191.097 572.601 195.125 570.156 199.296ZM591.948 175.994C596.551 183.761 600.794 191.888 604.678 200.375C608.418 208.718 611.942 217.061 615.25 225.404C612.517 217.061 609.209 208.718 605.325 200.375C601.298 191.888 596.91 183.761 592.164 175.994H591.948ZM624.96 208.358C629.419 219.866 633.806 231.589 638.121 243.528C634.094 231.877 629.85 220.369 625.391 209.006C621.22 197.786 616.401 186.494 610.935 175.131C616.113 186.063 620.788 197.139 624.96 208.358ZM593.242 171.247C595.112 171.678 596.407 172.11 597.126 172.542C597.845 172.973 598.349 173.189 598.637 173.189L598.852 172.542C598.996 172.542 598.708 172.47 597.989 172.326C597.27 172.182 596.695 172.038 596.263 171.894L596.695 171.031L594.105 170.168L593.242 171.247ZM582.67 169.089L584.396 173.62L584.18 169.089C583.893 169.089 583.533 169.017 583.101 168.874C582.814 168.73 582.526 168.658 582.238 168.658L582.67 169.089ZM588.28 175.346L586.769 176.425L588.064 178.151L589.359 176.857L588.28 175.346ZM591.301 174.915H591.516L590.437 173.405V173.62L591.301 174.915ZM698.718 308.257C698.718 307.538 699.077 305.309 699.796 301.569C700.516 297.829 701.307 293.657 702.17 289.054C701.451 291.931 700.66 294.736 699.796 297.469C699.077 300.202 698.286 302.935 697.423 305.668C696.416 303.654 695.913 301.425 695.913 298.98C695.913 294.377 696.488 289.917 697.639 285.602C698.933 281.143 699.94 276.612 700.66 272.009H702.817C702.961 266.543 703.321 261.077 703.896 255.611C704.471 250.001 704.759 244.463 704.759 238.997C704.759 233.675 704.184 228.496 703.033 223.462C701.882 218.427 699.796 213.681 696.776 209.222L695.481 209.869C696.488 211.595 697.423 213.753 698.286 216.342C699.293 218.787 700.156 221.376 700.875 224.109C701.595 226.842 702.17 229.575 702.601 232.308C703.177 234.898 703.464 237.127 703.464 238.997C703.464 244.319 703.249 249.641 702.817 254.964C702.529 260.286 701.81 265.536 700.66 270.714C701.091 266.543 701.523 262.372 701.954 258.2C702.386 253.885 702.601 249.641 702.601 245.47C702.601 238.997 701.81 232.884 700.228 227.13C698.646 221.232 696.56 215.551 693.971 210.085C691.382 204.475 688.361 199.153 684.909 194.118C681.6 188.94 678.076 183.833 674.336 178.799C671.603 175.059 669.302 171.247 667.432 167.363C665.706 163.336 663.62 159.452 661.175 155.712C662.325 155.424 663.26 154.921 663.98 154.202C664.699 153.338 665.634 152.835 666.784 152.691C667.935 153.123 668.942 153.914 669.805 155.065C670.812 156.215 671.675 157.366 672.394 158.517L674.336 157.222C673.186 154.202 672.61 151.325 672.61 148.592C672.61 147.441 672.826 146.074 673.257 144.492C673.833 142.766 674.912 141.903 676.494 141.903C678.22 141.903 680.45 143.269 683.183 146.003C685.916 148.592 688.864 151.972 692.029 156.143C695.337 160.315 698.646 164.99 701.954 170.168C705.263 175.203 708.355 180.093 711.232 184.84C714.109 189.587 716.554 193.974 718.568 198.002C720.726 201.886 722.164 204.69 722.883 206.417L726.551 204.043L727.846 205.338C729.86 202.317 732.161 199.584 734.75 197.139C737.339 194.55 739.929 192.032 742.518 189.587C745.251 187.142 747.84 184.696 750.285 182.251C752.875 179.662 755.032 176.785 756.758 173.62L755.464 172.973C751.292 178.295 746.761 183.33 741.871 188.077C737.268 192.392 732.737 196.851 728.277 201.454C735.182 193.83 741.871 186.35 748.343 179.014C755.104 171.247 761.937 163.264 768.841 155.065L777.903 145.139C778.335 145.427 778.838 145.715 779.414 146.003C780.133 146.29 780.852 146.578 781.571 146.866C782.29 147.153 782.866 147.513 783.297 147.944C783.873 148.376 784.16 148.879 784.16 149.455C784.16 149.886 783.945 150.462 783.513 151.181C783.225 151.756 782.938 152.188 782.65 152.475L784.592 153.77C787.037 151.612 789.77 150.534 792.791 150.534C794.373 150.534 795.596 150.965 796.459 151.828C797.466 152.691 797.969 153.914 797.969 155.496C797.969 158.805 796.819 162.473 794.517 166.5C792.216 170.384 789.267 174.483 785.671 178.799C782.075 182.97 778.119 187.214 773.804 191.529C769.632 195.7 765.533 199.656 761.505 203.396C757.478 207.136 753.881 210.588 750.717 213.753C747.696 216.773 745.539 219.219 744.244 221.089C743.669 221.232 742.877 221.736 741.871 222.599C741.007 223.462 740.001 224.397 738.85 225.404C737.843 226.411 736.764 227.346 735.613 228.209C734.463 228.928 733.384 229.288 732.377 229.288L729.788 228.425C730.075 227.705 731.082 226.411 732.808 224.541C734.535 222.671 736.476 220.729 738.634 218.715C740.792 216.701 742.806 214.831 744.675 213.105C746.545 211.379 747.84 210.228 748.559 209.653C746.689 210.228 744.675 211.379 742.518 213.105C740.504 214.688 738.49 216.486 736.476 218.499C734.606 220.369 732.88 222.239 731.298 224.109C729.86 225.979 728.925 227.418 728.493 228.425C728.493 232.596 728.349 237.487 728.062 243.097C727.774 248.563 727.342 254.244 726.767 260.142C726.336 266.04 725.76 271.865 725.041 277.619C724.322 283.373 723.531 288.479 722.668 292.938C721.948 297.397 721.085 300.993 720.078 303.726C719.215 306.603 718.28 308.042 717.273 308.042C716.986 308.042 716.554 307.898 715.979 307.61C716.698 302.432 717.417 297.253 718.136 292.075C718.856 287.328 719.575 282.581 720.294 277.835L714.684 307.61L711.664 306.747C711.376 308.329 710.729 310.127 709.722 312.141C708.715 314.155 707.276 315.162 705.406 315.162C703.824 315.162 702.314 314.371 700.875 312.789C699.437 311.35 698.718 309.84 698.718 308.257ZM724.825 211.163C726.551 210.3 728.493 208.862 730.651 206.848C732.952 204.834 735.254 202.677 737.555 200.375C739.857 197.93 742.014 195.485 744.028 193.039C746.186 190.594 748.056 188.508 749.638 186.782C745.179 190.522 741.079 194.621 737.339 199.081C733.6 203.396 729.284 207.064 724.394 210.085L724.825 211.163ZM706.269 264.889C706.845 262.012 707.348 259.135 707.78 256.258C708.211 253.237 708.427 250.217 708.427 247.196C708.427 241.73 707.852 235.904 706.701 229.719C707.132 234.466 707.348 239.213 707.348 243.96C707.348 247.412 707.204 250.936 706.917 254.532C706.773 257.984 706.557 261.437 706.269 264.889ZM720.51 276.54C721.517 270.499 722.38 264.529 723.099 258.632C723.818 252.878 724.322 247.052 724.609 241.155C724.034 247.052 723.387 252.878 722.668 258.632C721.948 264.529 721.229 270.499 720.51 276.54ZM720.294 277.187V277.835C720.294 277.547 720.294 277.331 720.294 277.187ZM927.915 310.631C926.764 310.631 925.326 310.127 923.6 309.121C922.018 308.257 921.226 307.107 921.226 305.668C921.226 303.223 921.514 300.921 922.09 298.764C922.665 296.462 923.096 294.161 923.384 291.859L922.521 292.507L919.932 304.805C918.206 302.36 917.343 299.915 917.343 297.469C917.343 296.894 917.487 296.318 917.774 295.743C915.041 297.038 912.236 298.117 909.359 298.98C906.626 299.843 903.75 300.274 900.729 300.274C892.961 300.274 885.625 299.267 878.721 297.253C871.96 295.24 865.128 292.722 858.223 289.702L857.144 286.897C850.24 284.02 843.839 280.136 837.941 275.245C832.188 270.355 827.153 264.817 822.838 258.632C818.666 252.303 815.358 245.542 812.913 238.35C810.611 231.158 809.46 223.822 809.46 216.342C809.46 209.869 810.323 203.54 812.05 197.354C813.92 191.169 816.653 185.415 820.249 180.093L818.954 179.446C815.502 184.768 812.697 190.45 810.539 196.491C808.525 202.533 807.519 208.79 807.519 215.263C807.519 221.592 808.382 227.993 810.108 234.466C811.834 240.795 814.279 246.908 817.444 252.806C820.608 258.704 824.348 264.17 828.663 269.204C832.979 273.951 837.726 278.05 842.904 281.503C837.869 278.338 833.123 274.454 828.663 269.851C824.204 264.961 820.321 259.639 817.012 253.885C813.848 247.987 811.33 241.874 809.46 235.545C807.59 229.072 806.655 222.815 806.655 216.773C806.655 206.129 809.029 196.348 813.776 187.429C818.666 178.367 824.995 170.6 832.763 164.127C840.531 157.654 849.305 152.619 859.086 149.023C869.011 145.283 879.009 143.413 889.078 143.413C895.55 143.413 901.736 144.276 907.633 146.003C913.675 147.729 919.716 149.599 925.758 151.612C925.038 152.044 924.607 152.619 924.463 153.339C924.463 154.058 924.391 154.777 924.247 155.496C924.103 156.072 923.816 156.575 923.384 157.006C923.096 157.438 922.377 157.654 921.226 157.654C919.357 157.654 917.487 157.366 915.617 156.791C913.89 156.215 912.236 155.568 910.654 154.849L910.007 157.654C911.014 157.941 912.308 158.517 913.89 159.38C915.617 160.243 917.271 161.25 918.853 162.401C920.579 163.408 922.018 164.558 923.168 165.853C924.463 167.147 925.11 168.37 925.11 169.521C925.11 171.247 924.391 172.326 922.953 172.757C921.658 173.045 920.363 173.189 919.069 173.189C914.754 173.189 910.438 172.542 906.123 171.247C901.808 169.952 897.492 169.305 893.177 169.305C885.41 169.305 877.93 170.384 870.738 172.542C863.545 174.699 857.216 177.864 851.75 182.035C846.284 186.063 841.897 191.097 838.589 197.139C835.28 203.036 833.626 209.869 833.626 217.636C833.626 225.548 835.568 233.028 839.452 240.076C843.335 246.98 848.298 253.094 854.339 258.416C860.525 263.594 867.429 267.694 875.053 270.714C882.677 273.735 890.228 275.245 897.708 275.245C898.283 275.245 899.147 275.245 900.297 275.245C901.592 275.102 902.958 275.03 904.397 275.03C906.411 275.03 908.209 275.245 909.791 275.677C911.517 275.965 912.452 276.684 912.596 277.835C910.582 278.122 908.496 278.482 906.339 278.913C904.181 279.201 902.095 279.345 900.082 279.345C894.184 279.345 888.071 278.554 881.742 276.972C888.502 278.985 895.263 279.992 902.023 279.992C903.606 279.992 905.26 279.92 906.986 279.777C908.712 279.633 910.366 279.417 911.949 279.129L914.106 281.718C915.401 281.431 916.48 281.287 917.343 281.287C918.206 281.143 919.716 280.64 921.874 279.777C921.874 275.174 922.09 270.714 922.521 266.399C922.953 261.94 923.168 257.409 923.168 252.806V249.785C923.168 247.196 922.953 244.463 922.521 241.586C922.233 238.565 921.226 236.192 919.5 234.466L918.206 235.113C919.644 238.422 920.579 241.946 921.011 245.686C921.442 249.426 921.658 253.166 921.658 256.905C921.658 263.091 921.226 269.06 920.363 274.814C920.795 270.067 921.011 265.32 921.011 260.573C921.011 259.567 920.867 257.625 920.579 254.748C920.435 251.727 920.148 248.706 919.716 245.686C919.285 242.521 918.709 239.716 917.99 237.271C917.415 234.826 916.767 233.603 916.048 233.603C912.596 233.603 909.072 233.315 905.476 232.74C902.023 232.164 898.571 231.877 895.119 231.877H894.04L888.214 232.093C888.214 231.661 888.143 231.158 887.999 230.582C887.999 230.007 887.999 229.431 887.999 228.856C887.999 227.705 888.214 226.627 888.646 225.62C889.078 224.613 890.084 224.109 891.667 224.109L894.256 224.325V221.736C892.242 221.16 890.156 220.226 887.999 218.931C885.985 217.636 884.978 215.766 884.978 213.321C884.978 211.595 885.913 210.228 887.783 209.222C889.653 208.215 891.811 207.495 894.256 207.064C896.845 206.489 899.362 206.129 901.808 205.985C904.253 205.841 906.123 205.769 907.418 205.769C920.507 205.769 930.36 209.15 936.977 215.91C943.738 222.671 947.118 232.596 947.118 245.686C947.118 254.316 946.399 262.947 944.961 271.577C943.522 280.064 942.803 288.623 942.803 297.253C942.803 299.123 942.515 300.85 941.94 302.432C941.508 304.014 940.142 304.805 937.84 304.805L938.919 289.27L936.977 304.158C936.546 304.158 936.114 304.158 935.683 304.158C935.251 304.302 934.82 304.374 934.388 304.374C934.1 304.374 933.885 304.302 933.741 304.158C933.597 304.158 933.381 304.158 933.094 304.158V307.394C931.943 309.552 930.217 310.631 927.915 310.631ZM918.206 293.585C915.617 293.729 913.027 294.017 910.438 294.449C907.993 294.88 905.476 295.096 902.886 295.096C892.674 295.096 882.533 293.442 872.464 290.133C862.395 286.681 853.189 281.934 844.846 275.893C836.647 269.708 829.598 262.3 823.701 253.669C819.529 247.484 816.437 240.795 814.423 233.603C816.437 241.802 819.817 249.21 824.564 255.827C830.749 264.745 838.301 272.225 847.219 278.266C856.137 284.308 865.991 288.839 876.779 291.859C887.567 294.88 898.427 296.39 909.359 296.39H910.654C912.092 296.39 913.459 296.247 914.754 295.959C916.048 295.671 917.199 294.88 918.206 293.585ZM837.078 247.412V247.843C837.078 249.282 838.013 251.008 839.883 253.022C841.753 255.036 843.911 257.049 846.356 259.063C848.801 260.933 851.175 262.731 853.476 264.457C855.922 266.04 857.72 267.118 858.871 267.694C857.576 266.687 855.85 265.392 853.692 263.81C851.678 262.228 849.593 260.502 847.435 258.632C845.277 256.762 843.192 254.892 841.178 253.022C839.308 251.008 837.941 249.138 837.078 247.412ZM924.679 280.208C924.966 276.9 925.398 273.735 925.973 270.714C926.549 267.55 926.836 264.313 926.836 261.005C926.836 258.991 926.764 257.049 926.621 255.179C926.477 253.309 926.189 251.368 925.758 249.354C925.758 254.532 925.686 259.71 925.542 264.889C925.398 270.067 924.966 275.174 924.247 280.208H924.679ZM943.019 254.748C941.293 259.063 940.501 263.307 940.645 267.478C940.789 271.362 940.573 275.245 939.998 279.129C940.717 275.245 941.293 271.29 941.724 267.262C942.299 263.091 942.731 258.919 943.019 254.748ZM813.128 227.346C813.56 229.503 813.991 231.589 814.423 233.603C813.991 231.589 813.56 229.503 813.128 227.346ZM812.913 224.972C813.056 225.835 813.128 226.627 813.128 227.346C812.985 226.627 812.913 225.835 812.913 224.972ZM1104.02 296.39C1102.87 294.233 1100.86 292.075 1097.98 289.917C1095.11 287.616 1091.65 285.386 1087.63 283.229C1083.6 281.071 1079.28 278.985 1074.68 276.972C1070.08 274.958 1065.55 273.016 1061.09 271.146C1056.63 269.132 1052.46 267.262 1048.57 265.536C1045.84 264.385 1043.47 263.235 1041.45 262.084C1045.62 264.529 1050.01 266.759 1054.61 268.773C1059.94 271.218 1065.26 273.735 1070.58 276.324C1076.05 278.913 1081.3 281.646 1086.33 284.523C1091.37 287.4 1095.97 290.709 1100.14 294.449C1095.97 293.298 1090.72 291.428 1084.39 288.839C1078.06 286.106 1071.59 283.157 1064.97 279.992C1058.5 276.684 1052.17 273.376 1045.98 270.067C1039.94 266.759 1035.05 263.882 1031.31 261.437L1032.82 259.495C1028.79 256.762 1024.7 253.597 1020.52 250.001C1016.35 246.405 1013.12 242.449 1010.81 238.134C1009.23 244.895 1008.3 251.368 1008.01 257.553C1007.72 263.738 1007.58 269.636 1007.58 275.245C1007.58 277.259 1008.08 279.201 1009.09 281.071C1010.1 282.797 1010.6 284.451 1010.6 286.034C1010.6 288.191 1009.59 289.486 1007.58 289.917C1006.43 287.184 1005.56 284.451 1004.99 281.718C1004.41 278.985 1003.98 276.252 1003.69 273.519C1003.69 276.396 1003.84 279.201 1004.13 281.934C1004.56 284.811 1005.28 287.688 1006.28 290.565L1003.05 291.859L1004.99 294.449C1004.7 296.031 1004.05 297.541 1003.05 298.98C1002.18 300.274 1000.82 300.921 998.947 300.921C996.646 300.921 994.776 299.699 993.337 297.253C992.043 294.664 990.964 291.644 990.101 288.191C989.382 284.595 988.878 280.999 988.59 277.403C988.447 273.663 988.375 270.571 988.375 268.125C988.375 263.235 988.375 258.416 988.375 253.669C988.519 248.922 988.734 244.103 989.022 239.213C988.303 243.816 987.871 248.491 987.727 253.237C987.727 257.984 987.727 262.731 987.727 267.478C987.727 272.512 988.015 277.691 988.59 283.013C989.166 288.335 990.029 293.442 991.18 298.332C989.31 296.606 987.871 294.664 986.864 292.507C986.001 290.349 985.282 288.119 984.707 285.818C984.275 283.373 983.916 280.927 983.628 278.482C983.484 276.037 983.34 273.663 983.196 271.362L985.786 270.714C985.21 268.557 984.851 266.399 984.707 264.241C984.563 261.94 984.491 259.639 984.491 257.337C984.491 252.303 984.851 247.412 985.57 242.665C986.289 237.774 986.649 232.812 986.649 227.777V225.188L986.433 219.794H985.138C984.851 226.698 984.419 233.603 983.844 240.507C983.412 247.412 983.124 254.388 982.981 261.437C982.837 259.998 982.765 258.632 982.765 257.337V253.237C982.765 242.737 983.268 232.452 984.275 222.383C985.426 212.17 986.577 201.886 987.727 191.529C988.015 188.22 988.878 185.2 990.317 182.467C991.755 179.59 992.906 176.641 993.769 173.62C994.344 174.052 995.063 174.34 995.926 174.483C996.79 174.483 997.581 174.555 998.3 174.699C999.019 174.699 999.666 174.915 1000.24 175.346C1000.82 175.778 1001.1 176.497 1001.1 177.504C1001.1 178.08 1001.03 178.655 1000.89 179.23L1000.46 180.956L1002.4 181.604C1003.41 180.021 1004.7 178.511 1006.28 177.073C1007.87 175.634 1009.66 174.915 1011.68 174.915C1013.26 174.915 1014.41 175.562 1015.13 176.857C1015.85 178.151 1016.21 179.518 1016.21 180.956C1016.21 181.819 1016.06 183.617 1015.78 186.35C1015.63 189.083 1015.35 192.248 1014.91 195.844C1014.63 199.44 1014.27 203.324 1013.83 207.495C1013.4 211.523 1012.97 215.335 1012.54 218.931C1012.25 222.527 1011.96 225.62 1011.68 228.209C1011.39 230.654 1011.25 232.164 1011.25 232.74L1016.42 221.089C1015.99 222.383 1015.56 223.462 1015.13 224.325C1014.84 225.188 1014.55 226.051 1014.27 226.914C1013.98 227.777 1013.55 228.712 1012.97 229.719C1012.54 230.726 1011.89 232.021 1011.03 233.603V236.624L1018.15 220.441C1020.45 220.441 1022.68 220.441 1024.84 220.441C1027.14 220.297 1029.44 220.01 1031.74 219.578L1033.9 219.147C1030.74 219.147 1028.22 219.147 1026.35 219.147C1024.62 219.003 1022.97 218.787 1021.39 218.499C1027.14 218.499 1032.82 218.427 1038.43 218.284C1044.19 217.996 1050.01 217.852 1055.91 217.852C1061.09 217.852 1066.19 217.708 1071.23 217.421C1076.41 217.133 1081.01 216.126 1085.04 214.4C1089.21 212.674 1092.59 210.013 1095.18 206.417C1097.77 202.821 1099.06 197.714 1099.06 191.097C1099.06 184.337 1098.2 178.871 1096.47 174.699C1094.75 170.528 1092.23 167.291 1088.92 164.99C1085.76 162.544 1081.73 160.962 1076.84 160.243C1071.95 159.38 1066.41 158.948 1060.22 158.948C1047.57 158.948 1034.84 159.524 1022.03 160.674C1009.23 161.825 996.718 163.983 984.491 167.147C984.203 165.997 983.988 164.99 983.844 164.127C983.7 163.12 983.34 162.257 982.765 161.538C982.765 160.674 983.556 159.883 985.138 159.164C986.721 158.445 988.519 157.87 990.532 157.438C992.546 157.007 994.416 156.647 996.142 156.359C998.012 156.072 999.235 155.856 999.81 155.712V153.123C998.803 153.267 997.077 153.41 994.632 153.554C992.187 153.698 989.525 153.77 986.649 153.77C982.765 153.77 979.169 153.554 975.86 153.123C972.552 152.547 970.898 151.469 970.898 149.886C970.898 148.16 972.768 146.506 976.508 144.924C980.391 143.341 985.282 141.903 991.18 140.608C997.077 139.17 1003.55 137.947 1010.6 136.94C1017.65 135.933 1024.41 135.07 1030.88 134.351C1037.5 133.488 1043.32 132.913 1048.36 132.625C1053.54 132.194 1057.13 131.978 1059.15 131.978C1069.5 131.978 1078.85 133.057 1087.19 135.214C1095.54 137.228 1102.59 140.608 1108.34 145.355C1114.24 150.102 1118.7 156.359 1121.72 164.127C1124.88 171.75 1126.46 181.172 1126.46 192.392C1126.46 201.742 1124.67 209.725 1121.07 216.342C1117.62 222.815 1112.94 228.137 1107.05 232.308C1101.15 236.336 1094.39 239.357 1086.76 241.37C1079.14 243.24 1071.23 244.175 1063.03 244.175C1060.73 244.175 1058.43 244.103 1056.12 243.96C1053.97 243.816 1051.74 243.672 1049.44 243.528C1051.02 244.535 1053.61 245.901 1057.2 247.628C1060.94 249.354 1065.04 251.296 1069.5 253.453C1074.11 255.611 1078.85 257.912 1083.74 260.358C1088.78 262.659 1093.31 264.961 1097.34 267.262C1101.36 269.42 1104.67 271.506 1107.26 273.519C1109.85 275.389 1111.14 276.9 1111.14 278.05L1110.07 279.345C1105.32 275.893 1100.43 272.872 1095.39 270.283C1090.36 267.694 1085.18 265.248 1079.86 262.947C1074.68 260.645 1069.43 258.416 1064.11 256.258C1059.07 254.101 1054.04 251.583 1049 248.706C1053.9 251.583 1058.79 254.101 1063.68 256.258L1079 263.163C1084.17 265.464 1089.21 267.909 1094.1 270.499C1099.13 272.944 1103.95 275.893 1108.56 279.345L1105.75 281.934C1106.76 282.653 1107.91 283.66 1109.2 284.955C1110.64 286.106 1111.94 287.4 1113.09 288.839C1114.38 290.277 1115.46 291.787 1116.32 293.37C1117.19 294.808 1117.62 296.175 1117.62 297.469C1117.62 299.339 1116.75 300.274 1115.03 300.274C1113.3 300.274 1111.43 299.771 1109.42 298.764C1107.4 297.757 1105.61 296.966 1104.02 296.39ZM1056.99 219.147C1054.11 219.147 1051.09 219.219 1047.93 219.362C1044.91 219.362 1041.81 219.362 1038.65 219.362C1042.24 219.506 1045.98 219.722 1049.87 220.01C1053.75 220.154 1057.71 220.226 1061.73 220.226C1066.77 220.226 1071.66 219.938 1076.41 219.362C1081.3 218.643 1085.61 217.277 1089.35 215.263C1093.09 213.105 1096.04 210.228 1098.2 206.632C1100.5 202.892 1101.65 198.002 1101.65 191.96C1101.65 189.947 1101.51 188.005 1101.22 186.135C1100.93 184.265 1100.57 182.323 1100.14 180.309H1098.85C1099.71 183.761 1100.14 187.285 1100.14 190.882C1100.14 197.354 1098.99 202.461 1096.69 206.201C1094.39 209.941 1091.29 212.818 1087.41 214.831C1083.53 216.701 1078.92 217.924 1073.6 218.499C1068.42 218.931 1062.89 219.147 1056.99 219.147ZM1018.8 223.894C1024.55 224.181 1030.38 224.397 1036.27 224.541C1042.32 224.541 1048.5 224.541 1054.83 224.541C1058.57 224.541 1062.31 224.469 1066.05 224.325C1069.79 224.037 1073.39 223.534 1076.84 222.815C1075.26 223.102 1073.67 223.246 1072.09 223.246H1067.56C1065.83 223.246 1063.75 223.246 1061.3 223.246C1058.86 223.102 1056.2 222.959 1053.32 222.815C1050.44 222.671 1047.42 222.599 1044.26 222.599C1041.09 222.455 1038 222.383 1034.98 222.383C1031.67 222.383 1028.65 222.455 1025.92 222.599C1023.18 222.743 1020.81 223.174 1018.8 223.894ZM1010.6 240.507C1013.48 244.247 1016.35 247.771 1019.23 251.08C1022.25 254.244 1025.63 257.265 1029.37 260.142C1025.92 257.697 1022.39 254.748 1018.8 251.296C1015.35 247.843 1012.61 244.247 1010.6 240.507ZM1042.53 238.781C1045.41 239.069 1048.29 239.285 1051.16 239.429C1053.9 239.572 1056.48 239.716 1058.93 239.86C1056.92 239.716 1054.9 239.5 1052.89 239.213C1050.59 238.781 1048.29 238.565 1045.98 238.565H1044.26C1043.68 238.565 1043.11 238.637 1042.53 238.781ZM1018.15 223.894C1018.01 224.325 1017.57 225.188 1016.86 226.483C1016.28 227.777 1015.63 229.216 1014.91 230.798C1014.34 232.236 1013.76 233.603 1013.19 234.898C1012.61 236.192 1012.32 237.055 1012.32 237.487L1012.76 237.055L1018.15 224.541V223.894ZM1040.59 242.881H1039.94C1041.96 244.463 1044.26 245.973 1046.85 247.412L1040.59 242.881ZM1014.05 239.213C1014.34 239.932 1014.77 240.795 1015.35 241.802C1016.06 242.665 1016.93 243.6 1017.93 244.607C1017.07 243.6 1016.35 242.593 1015.78 241.586C1015.2 240.435 1014.77 239.357 1014.48 238.35L1014.05 239.213ZM1039.51 261.005C1039.94 261.293 1040.3 261.508 1040.59 261.652L1039.51 261.005ZM1198.42 316.457C1204.75 318.47 1211.22 319.477 1217.84 319.477C1225.32 319.477 1232.29 318.326 1238.77 316.025C1245.24 313.723 1251.14 310.559 1256.46 306.531C1261.78 302.504 1266.46 297.829 1270.48 292.507C1273.36 288.767 1275.88 284.739 1278.04 280.424C1276.17 284.451 1274.01 288.407 1271.56 292.291C1268.11 297.757 1263.79 302.576 1258.62 306.747C1253.58 310.919 1247.76 314.227 1241.14 316.672C1234.52 319.261 1227.04 320.556 1218.7 320.556H1215.9C1203.96 320.556 1193.6 317.895 1184.83 312.573C1176.05 307.251 1168.79 300.49 1163.03 292.291C1157.28 283.948 1152.96 274.67 1150.09 264.457C1147.35 254.244 1145.99 244.175 1145.99 234.25C1145.99 230.079 1146.2 225.692 1146.63 221.089C1147.07 216.342 1148 211.595 1149.44 206.848C1150.88 202.101 1152.89 197.498 1155.48 193.039C1158.21 188.436 1161.88 184.265 1166.49 180.525C1170.22 177.504 1174.25 174.987 1178.57 172.973C1183.03 170.815 1187.41 169.593 1191.73 169.305C1191.3 169.593 1191.08 169.88 1191.08 170.168C1191.08 170.744 1191.37 171.391 1191.95 172.11C1192.66 172.685 1193.02 173.333 1193.02 174.052V174.483C1193.02 175.059 1192.66 175.49 1191.95 175.778C1191.37 176.066 1190.36 176.497 1188.92 177.073C1187.49 177.504 1185.62 178.223 1183.31 179.23C1181.01 180.237 1178.28 181.748 1175.12 183.761C1175.98 184.624 1176.41 185.272 1176.41 185.703C1179.14 184.265 1181.66 183.258 1183.96 182.682C1186.26 182.107 1188.42 181.819 1190.43 181.819C1194.61 181.819 1197.63 182.539 1199.5 183.977C1201.37 185.415 1202.3 186.494 1202.3 187.214C1202.3 188.364 1201.37 189.299 1199.5 190.018C1197.77 190.738 1195.69 191.673 1193.24 192.823C1190.94 193.83 1188.49 195.269 1185.9 197.139C1183.31 198.865 1181.3 201.454 1179.86 204.906C1177.56 208.358 1175.76 212.674 1174.47 217.852C1173.32 223.03 1172.74 228.281 1172.74 233.603C1172.74 242.665 1173.82 250.936 1175.98 258.416C1178.14 265.896 1181.16 272.369 1185.04 277.835C1189.07 283.301 1193.89 287.544 1199.5 290.565C1205.25 293.585 1211.72 295.096 1218.92 295.096C1225.82 295.096 1232.01 293.37 1237.47 289.917C1243.08 286.465 1247.83 281.79 1251.71 275.893C1255.6 269.851 1258.54 262.947 1260.56 255.179C1262.57 247.268 1263.58 238.853 1263.58 229.935C1263.58 225.62 1263.29 221.376 1262.72 217.205C1262.28 212.89 1261.28 208.79 1259.7 204.906C1258.26 201.022 1256.17 197.354 1253.44 193.902C1250.85 190.45 1247.4 187.285 1243.08 184.409C1237.62 181.532 1233.16 179.518 1229.7 178.367C1226.25 177.073 1224.53 175.85 1224.53 174.699C1224.53 174.268 1224.81 173.764 1225.39 173.189C1232.58 174.771 1239.05 177.36 1244.81 180.956C1250.13 184.265 1254.59 188.58 1258.18 193.902C1254.3 188.005 1249.91 183.474 1245.02 180.309C1239.7 176.713 1233.37 173.908 1226.04 171.894C1226.76 171.175 1227.11 170.528 1227.11 169.952C1227.11 169.377 1226.04 168.874 1223.88 168.442C1221.86 168.01 1219.64 167.507 1217.19 166.932C1214.74 166.356 1212.44 165.637 1210.29 164.774C1208.27 163.911 1207.26 162.832 1207.26 161.538C1207.26 159.955 1208.56 158.805 1211.15 158.085C1213.74 157.366 1216.9 156.503 1220.64 155.496C1221.65 155.496 1222.58 155.64 1223.45 155.928C1224.45 156.215 1225.32 156.503 1226.04 156.791C1233.08 158.085 1239.77 160.387 1246.1 163.695C1252.58 167.004 1258.33 171.247 1263.36 176.425C1268.54 181.604 1272.86 187.789 1276.31 194.981C1279.76 202.029 1281.99 210.013 1283 218.931C1282.28 210.444 1280.34 202.749 1277.17 195.844C1274.15 188.796 1270.12 182.539 1265.09 177.073C1260.2 171.607 1254.45 167.004 1247.83 163.264C1241.21 159.524 1234.16 156.647 1226.68 154.633C1233.3 154.633 1239.84 156 1246.32 158.733C1252.93 161.322 1258.98 165.206 1264.44 170.384C1269.91 175.418 1274.65 181.676 1278.68 189.155C1282.71 196.635 1285.59 205.194 1287.31 214.831C1287.03 214.831 1286.59 214.975 1286.02 215.263C1285.44 215.407 1285.01 215.479 1284.72 215.479C1286.02 222.815 1286.67 229.935 1286.67 236.839C1286.67 246.908 1285.08 256.762 1281.92 266.399C1278.9 276.037 1274.44 284.667 1268.54 292.291C1262.79 299.771 1255.67 305.812 1247.18 310.415C1238.69 315.162 1228.98 317.535 1218.05 317.535C1211.58 317.535 1205.25 316.6 1199.07 314.73C1192.88 312.86 1187.13 310.343 1181.8 307.179C1182.09 307.466 1182.24 307.754 1182.24 308.042C1182.24 308.329 1181.88 308.473 1181.16 308.473C1186.48 311.925 1192.23 314.587 1198.42 316.457ZM1283.43 239.213C1282.71 244.823 1281.63 250.648 1280.19 256.69C1278.9 262.587 1277.03 268.413 1274.58 274.167C1272.28 279.92 1269.33 285.314 1265.74 290.349C1262.14 295.24 1257.9 299.483 1253.01 303.079C1257.9 299.627 1262.21 295.527 1265.95 290.781C1269.69 285.89 1272.79 280.568 1275.23 274.814C1277.82 269.06 1279.76 263.019 1281.06 256.69C1282.49 250.217 1283.36 243.816 1283.65 237.487C1283.5 237.918 1283.43 238.494 1283.43 239.213ZM1266.17 251.727C1265.02 257.193 1263.29 262.515 1260.99 267.694C1258.69 272.728 1255.74 277.259 1252.14 281.287C1255.88 277.403 1258.9 272.944 1261.21 267.909C1263.51 262.875 1265.16 257.481 1266.17 251.727ZM1288.39 232.74C1288.39 235.185 1288.25 237.702 1287.96 240.292C1287.82 242.737 1287.6 245.254 1287.31 247.843C1287.31 245.398 1287.46 242.665 1287.74 239.644C1288.03 236.48 1288.18 233.028 1288.18 229.288V225.404C1288.32 226.555 1288.39 227.777 1288.39 229.072V232.74ZM1266.17 251.727C1266.89 248.563 1267.39 245.398 1267.68 242.233C1268.11 238.925 1268.33 235.617 1268.33 232.308C1268.33 228.712 1268.11 225.044 1267.68 221.304C1267.82 222.887 1267.89 224.397 1267.89 225.835C1268.04 227.274 1268.11 228.784 1268.11 230.366C1268.11 237.702 1267.46 244.823 1266.17 251.727ZM1287.31 249.138L1285.37 259.71C1284.65 262.3 1283.93 264.889 1283.21 267.478C1282.49 269.923 1281.63 272.369 1280.62 274.814C1282.21 270.355 1283.5 265.896 1284.51 261.437C1285.66 256.977 1286.59 252.59 1287.31 248.275V249.138ZM1181.37 308.905C1181.37 308.761 1181.3 308.617 1181.16 308.473C1181.16 308.617 1181.23 308.761 1181.37 308.905ZM1280.62 274.814C1280.34 275.389 1280.12 275.893 1279.98 276.324C1280.12 275.893 1280.34 275.389 1280.62 274.814ZM1278.25 279.992C1278.54 279.561 1278.75 279.129 1278.9 278.698C1278.75 279.129 1278.54 279.561 1278.25 279.992ZM1259.48 195.628C1259.34 195.341 1259.12 195.053 1258.83 194.765C1258.98 195.053 1259.19 195.341 1259.48 195.628ZM1279.98 276.324C1279.69 277.044 1279.4 277.763 1279.11 278.482C1279.4 277.763 1279.69 277.044 1279.98 276.324ZM1454.58 164.127C1454.01 166.428 1453.57 168.802 1453.29 171.247C1453.14 173.692 1453.07 176.21 1453.07 178.799C1453.07 184.409 1453.14 190.162 1453.29 196.06C1453.43 201.814 1453.5 207.208 1453.5 212.242C1453.5 222.455 1452.71 232.812 1451.13 243.312C1449.69 253.669 1446.89 263.163 1442.71 271.793C1438.54 280.424 1432.65 287.76 1425.02 293.801C1417.4 299.699 1407.54 303.295 1395.46 304.589C1408.55 303.295 1419.05 299.483 1426.96 293.154C1434.87 286.681 1440.99 278.77 1445.3 269.42C1449.62 259.926 1452.5 249.569 1453.93 238.35C1455.37 227.13 1456.09 216.126 1456.09 205.338C1456.09 200.879 1456.02 196.419 1455.88 191.96C1455.73 187.501 1455.66 183.042 1455.66 178.583V173.62C1455.66 171.894 1455.73 170.24 1455.88 168.658C1457.75 173.117 1458.82 178.583 1459.11 185.056C1459.54 191.529 1459.76 197.642 1459.76 203.396C1459.76 209.437 1459.69 214.831 1459.54 219.578C1459.4 224.181 1458.9 229.503 1458.03 235.545L1455.88 238.781C1454.73 248.994 1452.57 258.344 1449.4 266.831C1446.24 275.317 1441.85 282.653 1436.24 288.839C1430.63 294.88 1423.73 299.627 1415.53 303.079C1407.33 306.387 1397.76 308.042 1386.83 308.042C1377.77 308.042 1368.85 306.747 1360.08 304.158C1351.45 301.713 1343.75 297.253 1336.99 290.781L1336.56 292.291C1343.32 298.908 1350.94 303.511 1359.43 306.1C1368.06 308.689 1376.98 309.984 1386.18 309.984C1396.54 309.984 1405.67 308.401 1413.59 305.237C1421.5 302.072 1428.33 297.685 1434.08 292.075C1439.98 286.321 1444.8 279.489 1448.54 271.577C1452.14 263.954 1454.94 255.467 1456.95 246.117C1454.94 255.755 1452.21 264.457 1448.76 272.225C1445.3 280.28 1440.77 287.184 1435.16 292.938C1429.55 298.692 1422.79 303.079 1414.88 306.1C1406.97 309.264 1397.55 310.847 1386.62 310.847C1374.1 310.847 1363.31 308.905 1354.25 305.021C1345.33 301.137 1338 295.671 1332.24 288.623C1326.49 281.575 1322.25 273.16 1319.51 263.378C1316.78 253.597 1315.41 242.809 1315.41 231.014C1315.41 224.685 1315.84 218.499 1316.71 212.458C1317.71 206.273 1318.87 200.159 1320.16 194.118C1321.45 188.077 1322.75 182.035 1324.04 175.994C1325.34 169.809 1326.35 163.623 1327.06 157.438H1332.24C1333.11 157.726 1333.68 158.445 1333.97 159.596C1334.26 160.746 1334.4 161.681 1334.4 162.401C1334.4 164.414 1334.26 166.356 1333.97 168.226C1333.68 170.096 1333.39 172.038 1333.11 174.052H1335.05C1335.19 173.189 1335.62 171.535 1336.34 169.089C1337.21 166.5 1338.14 163.911 1339.15 161.322C1340.3 158.733 1341.52 156.431 1342.82 154.417C1344.11 152.26 1345.4 151.181 1346.7 151.181C1347.56 151.181 1348.21 151.684 1348.64 152.691C1349.07 153.698 1349.36 154.849 1349.5 156.143C1349.79 157.438 1349.94 158.805 1349.94 160.243C1350.08 161.538 1350.15 162.544 1350.15 163.264C1350.15 169.161 1349.72 174.987 1348.86 180.741C1348.14 186.35 1347.27 192.032 1346.27 197.786C1345.26 203.54 1344.33 209.293 1343.46 215.047C1342.74 220.801 1342.38 226.555 1342.38 232.308C1342.38 239.932 1343.25 246.908 1344.97 253.237C1346.7 259.567 1349.43 265.033 1353.17 269.636C1357.06 274.095 1361.87 277.619 1367.63 280.208C1373.53 282.653 1380.57 283.876 1388.77 283.876C1397.55 283.876 1404.88 281.718 1410.78 277.403C1416.82 273.088 1421.64 267.622 1425.24 261.005C1428.98 254.244 1431.57 246.836 1433 238.781C1434.59 230.726 1435.38 223.03 1435.38 215.694C1435.38 209.653 1435.09 203.684 1434.52 197.786C1433.94 191.888 1433.65 185.919 1433.65 179.878V179.23C1433.65 177.936 1433.8 176.21 1434.08 174.052C1434.52 171.894 1435.59 170.815 1437.32 170.815C1437.61 170.815 1437.82 172.829 1437.97 176.857C1438.26 180.741 1438.47 185.2 1438.61 190.234C1438.76 195.269 1438.83 200.087 1438.83 204.69C1438.97 209.293 1439.05 212.242 1439.05 213.537V222.167C1439.05 224.9 1438.9 227.705 1438.61 230.582C1439.33 226.842 1439.69 223.174 1439.69 219.578C1439.84 215.982 1439.91 212.314 1439.91 208.574C1439.91 202.389 1439.77 196.204 1439.48 190.018L1438.61 171.463H1442.71C1442.43 170.024 1442.28 167.867 1442.28 164.99C1442.28 162.401 1442.57 159.883 1443.15 157.438C1443.72 154.849 1444.94 153.554 1446.81 153.554C1447.68 153.554 1448.54 153.986 1449.4 154.849C1450.27 155.712 1450.99 156.719 1451.56 157.87C1452.28 159.02 1452.86 160.243 1453.29 161.538C1453.86 162.688 1454.29 163.551 1454.58 164.127ZM1421.79 276.324C1419.77 277.475 1417.11 279.129 1413.8 281.287C1410.49 283.445 1406.18 285.458 1400.86 287.328C1402.87 286.897 1404.88 286.321 1406.9 285.602C1409.06 284.739 1411.07 283.804 1412.94 282.797C1414.81 281.646 1416.53 280.496 1418.12 279.345C1419.7 278.194 1420.92 277.187 1421.79 276.324ZM1617.12 153.77C1618.27 153.77 1618.91 154.489 1619.06 155.928C1619.35 157.222 1619.49 158.517 1619.49 159.811L1619.27 161.322C1619.13 162.185 1618.91 163.336 1618.63 164.774C1618.34 166.069 1617.98 167.507 1617.55 169.089C1617.26 170.672 1616.83 172.11 1616.25 173.405C1614.24 179.734 1612.58 185.991 1611.29 192.176C1610.14 198.361 1609.2 204.619 1608.49 210.948C1607.77 217.133 1607.19 223.39 1606.76 229.719C1606.33 236.048 1605.9 242.449 1605.46 248.922C1606.04 243.025 1606.54 236.839 1606.98 230.366C1607.55 223.894 1608.27 217.421 1609.13 210.948C1610 204.331 1611.07 197.93 1612.37 191.745C1613.81 185.416 1615.75 179.518 1618.19 174.052C1616.04 187.861 1614.24 201.598 1612.8 215.263C1611.51 228.928 1610.43 242.737 1609.56 256.69L1606.98 257.984C1606.98 266.759 1606.11 275.174 1604.39 283.229C1602.66 291.14 1600.72 299.339 1598.56 307.826C1597.84 307.826 1596.98 307.826 1595.97 307.826C1595.11 307.97 1594.24 308.042 1593.38 308.042C1592.66 308.042 1591.66 307.826 1590.36 307.394C1589.07 306.963 1587.7 306.387 1586.26 305.668C1584.82 305.093 1583.31 304.374 1581.73 303.511C1580.29 302.791 1579.07 302.072 1578.06 301.353C1571.88 297.325 1566.34 292.363 1561.45 286.465C1556.56 280.424 1552.17 273.807 1548.29 266.615C1544.4 259.423 1540.95 251.871 1537.93 243.96C1534.91 235.904 1532.03 227.849 1529.3 219.794C1526.71 211.739 1524.19 203.899 1521.75 196.276C1519.3 188.508 1516.86 181.388 1514.41 174.915L1513.12 175.994C1515.56 183.186 1517.94 191.025 1520.24 199.512C1522.68 207.855 1525.2 216.414 1527.79 225.188C1530.52 233.819 1533.54 242.377 1536.85 250.864C1540.3 259.351 1544.26 267.262 1548.72 274.598C1553.32 281.934 1558.64 288.479 1564.69 294.233C1570.73 299.843 1577.77 304.23 1585.83 307.394C1578.93 305.524 1572.74 302.36 1567.27 297.901C1561.95 293.298 1557.06 287.904 1552.6 281.718C1548.29 275.533 1544.4 268.844 1540.95 261.652C1537.64 254.316 1534.62 246.908 1531.89 239.429C1529.16 231.949 1526.71 224.613 1524.55 217.421C1522.4 210.228 1520.38 203.684 1518.51 197.786C1518.51 203.827 1518.8 209.725 1519.37 215.479C1520.09 221.232 1520.45 227.058 1520.45 232.956C1520.45 242.881 1520.74 252.878 1521.32 262.947C1521.89 272.872 1522.47 282.797 1523.04 292.722L1518.3 293.585C1517.15 293.585 1516.28 292.65 1515.71 290.781C1515.13 288.767 1514.7 286.537 1514.41 284.092C1514.12 281.646 1513.91 279.345 1513.76 277.187C1513.76 274.886 1513.76 273.447 1513.76 272.872H1511.18C1511.18 274.023 1511.1 276.324 1510.96 279.777C1510.96 283.085 1510.74 286.537 1510.31 290.133C1509.88 293.729 1509.16 296.966 1508.15 299.843C1507.29 302.719 1506 304.158 1504.27 304.158C1503.12 304.158 1502.04 302.288 1501.03 298.548C1500.03 294.664 1499.02 289.63 1498.01 283.445C1497.01 277.115 1496.07 269.995 1495.21 262.084C1494.35 254.029 1493.63 245.901 1493.05 237.702C1492.48 229.503 1491.97 221.52 1491.54 213.753C1491.25 205.985 1491.11 199.153 1491.11 193.255C1491.11 185.631 1491.61 178.08 1492.62 170.6C1493.77 163.12 1495.57 155.712 1498.01 148.376L1521.75 143.845C1522.47 144.852 1523.11 145.787 1523.69 146.65C1524.27 147.369 1524.91 148.16 1525.63 149.023C1529.8 155.065 1533.4 161.681 1536.42 168.874C1539.44 175.922 1542.17 183.33 1544.62 191.097C1547.06 198.721 1549.37 206.489 1551.52 214.4C1553.83 222.167 1556.34 229.791 1559.08 237.271C1561.81 244.607 1564.97 251.583 1568.57 258.2C1572.17 264.817 1576.55 270.714 1581.73 275.893C1582.31 271.721 1582.81 266.183 1583.24 259.279C1583.82 252.374 1584.39 244.967 1584.97 237.055C1585.69 229.144 1586.41 221.232 1587.12 213.321C1587.84 205.266 1588.71 198.002 1589.71 191.529C1590.86 184.912 1592.16 179.59 1593.6 175.562C1595.18 171.391 1596.98 169.305 1598.99 169.305L1600.29 170.168C1597.27 179.086 1595.18 188.077 1594.03 197.139C1593.02 206.201 1592.23 215.335 1591.66 224.541C1591.22 233.747 1590.65 242.953 1589.93 252.159C1589.35 261.221 1587.99 270.211 1585.83 279.129L1587.12 279.777C1587.27 278.482 1587.41 277.187 1587.56 275.893C1587.7 274.454 1587.92 273.088 1588.2 271.793C1589.35 263.45 1590.15 255.107 1590.58 246.765C1591.15 238.278 1591.73 229.791 1592.3 221.304C1593.02 212.818 1593.96 204.403 1595.11 196.06C1596.4 187.717 1598.34 179.518 1600.93 171.463L1603.09 172.973C1603.95 172.398 1604.75 171.103 1605.46 169.089C1606.18 166.932 1607.05 164.774 1608.05 162.616C1609.06 160.315 1610.28 158.301 1611.72 156.575C1613.16 154.705 1614.96 153.77 1617.12 153.77ZM1595.11 306.1C1596.69 300.921 1598.13 295.743 1599.42 290.565C1600.72 285.386 1601.72 280.064 1602.44 274.598C1601.58 279.777 1600.43 284.883 1598.99 289.917C1597.7 294.808 1596.4 299.771 1595.11 304.805C1586.48 301.785 1579.43 298.476 1573.96 294.88C1568.64 291.284 1564.11 287.184 1560.37 282.581C1556.77 277.978 1553.54 272.8 1550.66 267.046C1548.36 262.587 1545.84 257.625 1543.11 252.159C1544.83 255.755 1546.35 259.063 1547.64 262.084C1549.65 266.255 1551.6 270.139 1553.47 273.735C1555.48 277.187 1557.56 280.352 1559.72 283.229C1561.88 285.962 1564.54 288.623 1567.71 291.212C1570.87 293.657 1574.61 296.103 1578.93 298.548C1583.38 300.85 1588.78 303.367 1595.11 306.1ZM1585.18 284.523C1583.74 283.516 1581.87 281.575 1579.57 278.698C1577.42 275.821 1575.19 272.872 1572.88 269.851C1570.73 266.687 1568.78 263.882 1567.06 261.437C1565.33 258.991 1564.33 257.697 1564.04 257.553C1566.34 262.875 1569.29 267.766 1572.88 272.225C1576.62 276.54 1580.51 280.64 1584.54 284.523H1585.18ZM1674.48 311.062C1673.32 310.343 1672.61 308.689 1672.32 306.1C1672.03 303.511 1671.89 300.346 1671.89 296.606V291.428H1669.94C1669.8 292.291 1669.44 294.305 1668.87 297.469C1668.43 300.634 1667.79 303.942 1666.92 307.394C1666.2 310.99 1665.27 314.155 1664.12 316.888C1663.11 319.621 1661.96 320.988 1660.67 320.988C1659.52 320.988 1658.58 319.477 1657.86 316.457C1657.14 313.436 1656.64 309.912 1656.35 305.884C1656.06 302 1655.85 298.117 1655.7 294.233C1655.7 290.205 1655.7 287.256 1655.7 285.386C1655.7 275.461 1655.85 265.68 1656.14 256.042C1656.42 246.261 1656.57 236.48 1656.57 226.698C1656.57 216.917 1655.78 207.208 1654.19 197.57C1652.61 187.789 1651.82 178.151 1651.82 168.658C1653.83 166.069 1655.7 163.408 1657.43 160.674C1659.3 157.941 1661.1 155.137 1662.82 152.26C1668 150.965 1673.4 149.742 1679.01 148.592C1684.62 147.441 1690.15 146.866 1695.62 146.866C1710.72 146.866 1723.6 149.239 1734.24 153.986C1745.03 158.589 1753.81 165.206 1760.57 173.836C1767.33 182.323 1772.29 192.536 1775.45 204.475C1778.62 216.27 1780.2 229.288 1780.2 243.528C1780.2 266.543 1773.87 283.66 1761.21 294.88C1748.55 305.956 1730.86 311.494 1708.13 311.494C1707.27 311.494 1705.91 311.35 1704.04 311.062C1702.17 310.919 1700.87 310.415 1700.15 309.552C1704.18 308.977 1708.78 308.257 1713.96 307.394C1719.28 306.675 1724.6 305.74 1729.93 304.589C1735.25 303.439 1740.28 302 1745.03 300.274C1749.92 298.404 1753.95 296.103 1757.11 293.37C1752.8 296.247 1748.34 298.548 1743.74 300.274C1739.28 301.856 1734.67 303.079 1729.93 303.942C1725.32 304.805 1720.58 305.453 1715.69 305.884C1710.8 306.316 1705.91 306.819 1701.01 307.394L1701.66 305.021L1701.01 303.295C1698.28 303.726 1695.76 304.158 1693.46 304.589C1691.31 305.021 1689 305.237 1686.56 305.237C1684.11 305.237 1681.74 304.949 1679.44 304.374L1679.22 310.631L1674.48 311.062ZM1689.79 292.722C1699.72 292.722 1708.93 292.435 1717.41 291.859C1726.04 291.284 1733.52 289.414 1739.85 286.249C1746.18 283.085 1751.14 278.266 1754.74 271.793C1758.48 265.176 1760.35 255.899 1760.35 243.96C1760.35 238.062 1759.92 231.877 1759.06 225.404C1758.34 218.787 1756.9 212.386 1754.74 206.201C1752.73 199.872 1749.92 194.118 1746.33 188.94C1743.02 184.049 1738.85 180.021 1733.81 176.857C1738.7 180.165 1742.73 184.265 1745.89 189.155C1749.49 194.478 1752.22 200.231 1754.09 206.417C1756.11 212.602 1757.47 219.003 1758.19 225.62C1759.06 232.093 1759.49 238.278 1759.49 244.175C1759.49 252.087 1758.77 258.704 1757.33 264.026C1755.89 269.204 1753.88 273.447 1751.29 276.756C1748.7 279.92 1745.46 282.366 1741.58 284.092C1737.84 285.818 1733.6 287.113 1728.85 287.976C1724.25 288.695 1719.14 289.27 1713.53 289.702C1707.92 289.989 1701.95 290.349 1695.62 290.781C1700.66 288.623 1706.05 287.184 1711.8 286.465C1717.7 285.746 1723.31 284.811 1728.63 283.66C1734.1 282.51 1738.99 280.568 1743.3 277.835C1747.62 274.958 1750.86 270.283 1753.01 263.81L1755.6 262.947C1756.18 260.07 1756.54 257.553 1756.68 255.395C1756.83 253.094 1756.9 250.504 1756.9 247.628C1756.9 238.709 1756.18 229.791 1754.74 220.873C1753.3 211.811 1750.64 203.684 1746.76 196.491C1742.87 189.155 1737.48 183.258 1730.57 178.799C1723.67 174.196 1714.82 171.894 1704.04 171.894C1700.01 171.894 1695.98 172.182 1691.95 172.757C1688.07 173.189 1684.19 173.836 1680.3 174.699C1680.59 174.843 1680.73 175.059 1680.73 175.346C1680.73 175.778 1680.66 175.994 1680.52 175.994C1688.14 174.412 1695.48 173.62 1702.53 173.62C1711.3 173.62 1718.92 175.203 1725.4 178.367C1731.87 181.388 1737.19 185.631 1741.36 191.097C1745.68 196.419 1748.84 202.677 1750.86 209.869C1753.01 217.061 1754.16 224.757 1754.31 232.956C1753.16 224.613 1751.58 216.917 1749.56 209.869C1747.55 202.677 1744.6 196.491 1740.72 191.313C1736.83 186.135 1731.8 182.107 1725.61 179.23C1719.43 176.21 1711.59 174.699 1702.09 174.699C1698.5 174.699 1694.9 174.771 1691.31 174.915C1687.71 175.059 1684.19 175.706 1680.73 176.857C1681.45 185.775 1682.1 194.621 1682.67 203.396C1683.25 212.17 1683.54 221.017 1683.54 229.935C1683.54 241.73 1683.03 253.381 1682.03 264.889C1681.16 276.252 1680.37 287.76 1679.65 299.411C1681.09 297.973 1682.75 296.822 1684.62 295.959C1686.49 294.952 1688.21 293.873 1689.79 292.722ZM1775.89 244.607C1775.89 237.559 1775.38 230.438 1774.37 223.246C1773.51 216.054 1772.07 209.078 1770.06 202.317C1772.07 209.653 1773.44 216.989 1774.16 224.325C1775.02 231.661 1775.45 239.069 1775.45 246.549C1775.45 250.289 1775.24 254.101 1774.81 257.984C1774.66 258.416 1774.59 258.847 1774.59 259.279C1775.45 254.532 1775.89 249.641 1775.89 244.607ZM1754.96 245.47C1754.96 247.628 1754.81 249.713 1754.52 251.727C1754.67 250.864 1754.74 250.001 1754.74 249.138V242.018C1754.74 242.162 1754.74 242.305 1754.74 242.449C1754.88 243.312 1754.96 244.319 1754.96 245.47ZM1754.74 242.018C1754.74 241.155 1754.67 240.364 1754.52 239.644C1754.67 240.507 1754.74 241.299 1754.74 242.018ZM1772.43 269.204C1772.72 268.341 1772.94 267.478 1773.08 266.615C1772.94 267.478 1772.72 268.341 1772.43 269.204Z" fill="#DE005D"/>
<g style="mix-blend-mode:exclusion">
<path d="M262.05 365.835V85.9522H335.997C351.475 85.9522 363.72 89.3977 372.732 96.2888C381.849 103.18 388.369 112.986 392.292 125.708C396.214 138.43 398.175 153.591 398.175 171.189C398.175 188.152 396.532 202.941 393.246 215.557C389.959 228.067 384.075 237.768 375.594 244.659C367.219 251.55 355.292 254.995 339.813 254.995H317.073V365.835H262.05ZM317.073 204.744H320.253C330.643 204.744 337.004 201.828 339.336 195.997C341.669 190.166 342.835 181.579 342.835 170.235C342.835 159.634 341.669 151.47 339.336 145.745C337.11 139.915 331.756 136.999 323.275 136.999H317.073V204.744ZM412.729 365.835V85.9522H468.706V318.128H526.273V365.835H412.729ZM531.285 365.835L558.32 85.9522H653.257L679.814 365.835H626.859L622.884 320.672H589.17L585.672 365.835H531.285ZM593.146 275.987H618.59L606.345 133.66H603.801L593.146 275.987ZM719.971 365.835V273.76L675.285 85.9522H730.785L746.369 180.731L761.954 85.9522H817.294L772.767 273.76V365.835H719.971ZM885.917 368.38C845.948 368.38 825.964 339.755 825.964 282.507V161.807C825.964 109.541 848.864 83.4078 894.663 83.4078C913.534 83.4078 928.005 87.2244 938.077 94.8576C948.148 102.385 955.092 113.41 958.909 127.935C962.725 142.459 964.634 160.164 964.634 181.049H909.929V156.241C909.929 150.198 909.081 145.162 907.385 141.134C905.795 136.999 902.402 134.932 897.207 134.932C890.74 134.932 886.447 137.105 884.326 141.452C882.312 145.798 881.305 150.569 881.305 155.764V291.412C881.305 298.939 882.259 305.088 884.167 309.859C886.182 314.524 890.051 316.856 895.776 316.856C901.713 316.856 905.636 314.524 907.544 309.859C909.558 305.088 910.565 298.833 910.565 291.094V251.179H895.617V202.835H963.998V365.835H941.575L932.034 342.3C922.28 359.686 906.908 368.38 885.917 368.38ZM983.004 365.835V85.9522H1068.88C1083.19 85.9522 1094 89.2387 1101.32 95.8117C1108.63 102.279 1113.51 111.396 1115.95 123.164C1118.49 134.826 1119.77 148.555 1119.77 164.351C1119.77 179.618 1117.8 191.81 1113.88 200.927C1110.06 210.044 1102.8 216.352 1092.1 219.851C1100.89 221.653 1107.04 226.053 1110.54 233.05C1114.15 239.941 1115.95 248.899 1115.95 259.925V365.835H1060.77V256.268C1060.77 248.104 1059.07 243.068 1055.68 241.16C1052.39 239.146 1047.04 238.139 1039.62 238.139V365.835H983.004ZM1039.94 189.636H1053.45C1061.19 189.636 1065.06 181.208 1065.06 164.351C1065.06 153.432 1064.21 146.276 1062.52 142.883C1060.82 139.49 1057.64 137.794 1052.98 137.794H1039.94V189.636ZM1201.75 368.38C1179.38 368.38 1162.25 361.648 1150.38 348.184C1138.61 334.614 1132.73 315.054 1132.73 289.504V156.559C1132.73 132.599 1138.56 114.418 1150.22 102.014C1161.99 89.6098 1179.16 83.4078 1201.75 83.4078C1224.33 83.4078 1241.45 89.6098 1253.11 102.014C1264.88 114.418 1270.76 132.599 1270.76 156.559V289.504C1270.76 315.054 1264.83 334.614 1252.95 348.184C1241.18 361.648 1224.12 368.38 1201.75 368.38ZM1202.22 316.856C1210.7 316.856 1214.94 308.64 1214.94 292.207V155.605C1214.94 141.823 1210.81 134.932 1202.54 134.932C1193.21 134.932 1188.55 141.982 1188.55 156.082V292.525C1188.55 301.218 1189.61 307.473 1191.73 311.29C1193.85 315.001 1197.35 316.856 1202.22 316.856ZM1354.81 368.38C1331.49 368.38 1314.31 361.86 1303.29 348.82C1292.26 335.674 1286.75 316.379 1286.75 290.935V85.9522H1341.13V288.709C1341.13 293.373 1341.4 297.879 1341.93 302.226C1342.46 306.466 1343.68 309.965 1345.59 312.721C1347.49 315.478 1350.57 316.856 1354.81 316.856C1359.16 316.856 1362.28 315.531 1364.19 312.88C1366.1 310.124 1367.27 306.572 1367.69 302.226C1368.22 297.879 1368.49 293.373 1368.49 288.709V85.9522H1422.87V290.935C1422.87 316.379 1417.36 335.674 1406.33 348.82C1395.31 361.86 1378.13 368.38 1354.81 368.38ZM1441.08 365.835V85.9522H1498.65L1524.41 220.01V85.9522H1578.48V365.835H1523.78L1495.79 225.894V365.835H1441.08ZM1600.03 365.835V85.9522H1677C1697.14 85.9522 1712.3 91.5711 1722.48 102.809C1732.66 113.941 1737.75 130.267 1737.75 151.788V282.825C1737.75 309.329 1733.08 329.79 1723.75 344.208C1714.53 358.626 1698.31 365.835 1675.09 365.835H1600.03ZM1656.33 316.379H1666.03C1676.31 316.379 1681.45 311.396 1681.45 301.43V157.036C1681.45 147.707 1680.18 141.717 1677.64 139.066C1675.2 136.31 1670.16 134.932 1662.53 134.932H1656.33V316.379Z" fill="white"/>
</g>
<path d="M908.445 41.3379V14.7799H898.251V9.8358H923.912V14.7799H913.718V41.3379H908.445ZM986.476 41.3379V9.8358H991.749V23.0929H1006.67V9.8358H1011.92V41.3379H1006.67V28.037H991.749V41.3379H986.476ZM1077.12 41.3379V9.8358H1097.46V14.7799H1082.39V22.546H1094.84V27.4901H1082.39V36.3938H1097.46V41.3379H1077.12Z" fill="#E1E1E1"/>
<g style="mix-blend-mode:exclusion">
<path d="M1810.36 85.8369C1776.38 85.8369 1748.81 113.399 1748.81 147.384C1748.81 181.368 1776.36 208.931 1810.36 208.931C1844.36 208.931 1871.91 181.388 1871.91 147.384C1871.91 113.38 1844.36 85.8369 1810.36 85.8369ZM1810.36 192.651C1785.36 192.651 1765.09 172.389 1765.09 147.384C1765.09 122.379 1785.36 102.117 1810.36 102.117C1835.37 102.117 1855.63 122.379 1855.63 147.384C1855.63 172.389 1835.37 192.651 1810.36 192.651Z" fill="white"/>
<path d="M1811.8 154.724L1786.93 158.901L1784.12 154.509L1812.67 113.712L1818.73 112.834L1810.64 139.733L1833.99 135.809L1836.61 140.24L1809.65 180.139L1802 181.916L1811.8 154.724Z" fill="white"/>
</g>
</svg>
