<svg width="4352" height="2533" viewBox="0 0 4352 2533" fill="none" xmlns="http://www.w3.org/2000/svg">
<path d="M1834.7 1113.04C1842.29 1120.3 1849.85 1127.65 1857.39 1135.08L1855.99 1136.5C1859.76 1140.21 1863.52 1143.95 1867.27 1147.7C1871.02 1151.45 1874.75 1155.21 1878.47 1158.98L1879.89 1157.57C1887.32 1165.11 1894.67 1172.68 1901.93 1180.27L1900.49 1181.65C1907.82 1189.32 1915.07 1197.01 1922.24 1204.72L1923.71 1203.36C1930.91 1211.12 1938.04 1218.9 1945.07 1226.7L1943.58 1228.04C1950.68 1235.92 1957.69 1243.81 1964.61 1251.72L1966.11 1250.4C1973.1 1258.4 1980 1266.41 1986.8 1274.43L1985.28 1275.73C1992.12 1283.79 1998.86 1291.88 2005.51 1299.97L2007.06 1298.7C2013.81 1306.92 2020.46 1315.15 2027.01 1323.39L2025.44 1324.63C2032.05 1332.94 2038.55 1341.25 2044.95 1349.57L2046.53 1348.35C2052.99 1356.74 2059.34 1365.14 2065.58 1373.55L2063.98 1374.74C2070.33 1383.28 2076.57 1391.83 2082.7 1400.37L2084.32 1399.21C2090.52 1407.84 2096.6 1416.48 2102.57 1425.11L2100.92 1426.25C2106.94 1434.96 2112.85 1443.67 2118.64 1452.37L2120.3 1451.26C2126.21 1460.13 2131.99 1469 2137.66 1477.86L2135.97 1478.94C2141.7 1487.89 2147.3 1496.84 2152.77 1505.78L2154.48 1504.73C2160.03 1513.79 2165.45 1522.83 2170.73 1531.85L2169.01 1532.87C2174.38 1542.04 2179.62 1551.2 2184.73 1560.33L2186.47 1559.35C2191.68 1568.67 2196.74 1577.96 2201.66 1587.23L2199.89 1588.16C2204.88 1597.56 2209.72 1606.93 2214.41 1616.27L2216.2 1615.37C2220.97 1624.88 2225.59 1634.35 2230.05 1643.78L2228.25 1644.64C2232.8 1654.27 2237.19 1663.86 2241.42 1673.4L2243.24 1672.59C2247.58 1682.37 2251.73 1692.11 2255.71 1701.78L2253.86 1702.54C2257.92 1712.42 2261.79 1722.23 2265.48 1731.98L2267.35 1731.27C2271.13 1741.27 2274.71 1751.2 2278.1 1761.06L2276.21 1761.71C2279.67 1771.8 2282.93 1781.81 2285.97 1791.74L2287.89 1791.15C2291.02 1801.37 2293.94 1811.51 2296.63 1821.55L2294.69 1822.07C2297.46 1832.39 2299.98 1842.61 2302.26 1852.71L2304.22 1852.27C2306.58 1862.75 2308.69 1873.12 2310.53 1883.35L2308.57 1883.71C2310.47 1894.25 2312.09 1904.66 2313.42 1914.93L2315.41 1914.67C2316.8 1925.33 2317.88 1935.84 2318.66 1946.18L2316.66 1946.33C2317.46 1957.01 2317.93 1967.52 2318.07 1977.83L2320.07 1977.8C2320.21 1988.57 2319.99 1999.12 2319.4 2009.45L2317.4 2009.34C2316.79 2020.06 2315.78 2030.54 2314.36 2040.76L2316.34 2041.03C2314.86 2051.71 2312.94 2062.1 2310.58 2072.21L2308.63 2071.75C2306.2 2082.15 2303.29 2092.23 2299.9 2101.98L2301.79 2102.63C2298.28 2112.74 2294.25 2122.49 2289.7 2131.86L2287.9 2130.99C2283.29 2140.49 2278.13 2149.6 2272.43 2158.29L2274.11 2159.39C2268.3 2168.23 2261.94 2176.65 2255 2184.62L2253.49 2183.3C2250.05 2187.25 2246.48 2191.08 2242.76 2194.8C2239.04 2198.52 2235.21 2202.09 2231.27 2205.53L2232.58 2207.03C2224.61 2213.97 2216.19 2220.34 2207.35 2226.14L2206.25 2224.47C2197.56 2230.17 2188.46 2235.33 2178.95 2239.94L2179.83 2241.74C2170.45 2246.29 2160.7 2250.32 2150.6 2253.83L2149.94 2251.94C2140.2 2255.33 2130.12 2258.24 2119.72 2260.67L2120.17 2262.62C2110.07 2264.98 2099.67 2266.9 2088.99 2268.38L2088.72 2266.4C2078.5 2267.81 2068.02 2268.83 2057.3 2269.44L2057.41 2271.44C2047.08 2272.03 2036.53 2272.25 2025.77 2272.11L2025.79 2270.11C2015.48 2269.97 2004.98 2269.5 1994.29 2268.7L1994.14 2270.69C1983.8 2269.92 1973.29 2268.83 1962.63 2267.44L1962.89 2265.46C1952.63 2264.12 1942.22 2262.5 1931.67 2260.6L1931.31 2262.57C1921.08 2260.73 1910.72 2258.62 1900.24 2256.25L1900.68 2254.3C1890.57 2252.02 1880.35 2249.5 1870.03 2246.73L1869.51 2248.66C1859.47 2245.97 1849.34 2243.06 1839.11 2239.92L1839.7 2238.01C1829.77 2234.97 1819.76 2231.71 1809.67 2228.24L1809.02 2230.14C1799.16 2226.75 1789.23 2223.17 1779.24 2219.39L1779.94 2217.52C1770.19 2213.83 1760.38 2209.96 1750.51 2205.9L1749.75 2207.75C1740.07 2203.77 1730.33 2199.61 1720.55 2195.28L1721.36 2193.45C1711.82 2189.23 1702.23 2184.84 1692.6 2180.28L1691.75 2182.09C1682.31 2177.63 1672.84 2173.01 1663.33 2168.23L1664.23 2166.45C1654.9 2161.76 1645.53 2156.92 1636.13 2151.93L1635.19 2153.7C1625.93 2148.78 1616.63 2143.71 1607.31 2138.51L1608.29 2136.76C1599.16 2131.66 1590 2126.42 1580.83 2121.05L1579.82 2122.77C1570.79 2117.48 1561.75 2112.06 1552.69 2106.52L1553.74 2104.81C1544.81 2099.34 1535.86 2093.74 1526.9 2088.01L1525.82 2089.69C1516.96 2084.03 1508.09 2078.25 1499.22 2072.34L1500.33 2070.68C1491.63 2064.89 1482.92 2058.98 1474.21 2052.96L1473.08 2054.61C1464.44 2048.64 1455.81 2042.55 1447.17 2036.36L1448.34 2034.73C1439.79 2028.6 1431.25 2022.36 1422.7 2016.02L1421.51 2017.62C1413.11 2011.38 1404.71 2005.02 1396.31 1998.57L1397.53 1996.98C1389.21 1990.58 1380.9 1984.08 1372.6 1977.48L1371.35 1979.05C1363.11 1972.49 1354.88 1965.84 1346.66 1959.09L1347.93 1957.55C1339.84 1950.9 1331.76 1944.15 1323.69 1937.31L1322.39 1938.84C1314.37 1932.04 1306.36 1925.14 1298.37 1918.15L1299.68 1916.64C1291.77 1909.73 1283.88 1902.72 1276.01 1895.62L1274.67 1897.11C1266.86 1890.07 1259.08 1882.95 1251.32 1875.74L1252.68 1874.28C1244.97 1867.11 1237.28 1859.86 1229.61 1852.52L1228.23 1853.97C1220.64 1846.7 1213.08 1839.36 1205.54 1831.93L1206.94 1830.5C1203.17 1826.79 1199.41 1823.06 1195.66 1819.31C1191.91 1815.55 1188.18 1811.79 1184.46 1808.03L1183.04 1809.43C1175.61 1801.89 1168.26 1794.33 1161 1786.74L1162.44 1785.35C1155.11 1777.69 1147.86 1770 1140.69 1762.28L1139.22 1763.64C1132.02 1755.88 1124.89 1748.1 1117.86 1740.3L1119.35 1738.96C1112.25 1731.09 1105.24 1723.2 1098.32 1715.28L1096.82 1716.6C1089.83 1708.61 1082.93 1700.6 1076.13 1692.57L1077.65 1691.28C1070.81 1683.21 1064.07 1675.13 1057.42 1667.03L1055.87 1668.3C1049.12 1660.09 1042.47 1651.86 1035.92 1643.62L1037.49 1642.37C1030.88 1634.07 1024.38 1625.75 1017.98 1617.43L1016.4 1618.65C1009.94 1610.26 1003.59 1601.86 997.346 1593.46L998.951 1592.26C992.603 1583.72 986.363 1575.18 980.233 1566.63L978.608 1567.8C972.414 1559.16 966.331 1550.52 960.362 1541.89L962.007 1540.75C955.986 1532.04 950.08 1523.34 944.291 1514.64L942.626 1515.75C936.72 1506.87 930.936 1498 925.274 1489.15L926.959 1488.07C921.232 1479.11 915.631 1470.16 910.157 1461.23L908.452 1462.27C902.903 1453.22 897.484 1444.17 892.196 1435.15L893.922 1434.14C888.546 1424.96 883.306 1415.81 878.204 1406.68L876.458 1407.65C871.253 1398.34 866.19 1389.04 861.272 1379.78L863.039 1378.84C858.049 1369.44 853.21 1360.07 848.521 1350.74L846.734 1351.64C841.957 1342.13 837.337 1332.65 832.875 1323.22L834.683 1322.37C830.128 1312.74 825.737 1303.15 821.514 1293.61L819.685 1294.42C815.354 1284.63 811.198 1274.9 807.22 1265.22L809.07 1264.46C805.011 1254.59 801.138 1244.77 797.452 1235.02L795.581 1235.73C791.801 1225.73 788.217 1215.8 784.831 1205.94L786.723 1205.3C783.258 1195.21 780.001 1185.19 776.955 1175.27L775.043 1175.85C771.906 1165.63 768.992 1155.49 766.304 1145.46L768.236 1144.94C765.472 1134.62 762.947 1124.4 760.665 1114.29L758.714 1114.73C756.348 1104.25 754.241 1093.89 752.396 1083.65L754.365 1083.3C752.464 1072.75 750.843 1062.34 749.506 1052.08L747.523 1052.34C746.134 1041.67 745.049 1031.17 744.273 1020.83L746.268 1020.68C745.466 1009.99 744.995 999.485 744.86 989.174L742.86 989.2C742.718 978.438 742.941 967.885 743.532 957.553L745.529 957.667C746.142 946.946 747.154 936.468 748.57 926.249L746.589 925.975C748.069 915.298 749.987 904.9 752.351 894.797L754.298 895.252C756.731 884.852 759.638 874.77 763.025 865.027L761.136 864.371C764.65 854.263 768.678 844.513 773.228 835.142L775.028 836.015C779.642 826.512 784.796 817.405 790.497 808.716L788.825 807.618C794.627 798.774 800.994 790.356 807.932 782.389L809.441 783.702C812.875 779.758 816.451 775.926 820.17 772.207C823.888 768.489 827.721 764.913 831.664 761.478L830.351 759.97C838.319 753.031 846.736 746.665 855.581 740.862L856.678 742.534C865.367 736.833 874.475 731.679 883.977 727.065L883.104 725.266C892.475 720.716 902.225 716.687 912.333 713.174L912.99 715.063C922.733 711.676 932.814 708.769 943.214 706.335L942.759 704.388C952.862 702.024 963.261 700.106 973.937 698.627L974.211 700.608C984.43 699.192 994.908 698.179 1005.63 697.566L1005.52 695.569C1015.85 694.978 1026.4 694.756 1037.16 694.897L1037.14 696.897C1047.45 697.032 1057.95 697.503 1068.64 698.305L1068.79 696.311C1079.13 697.086 1089.64 698.171 1100.3 699.56L1100.04 701.543C1110.3 702.881 1120.71 704.501 1131.26 706.402L1131.62 704.434C1141.85 706.278 1152.21 708.385 1162.69 710.751L1162.25 712.702C1172.36 714.985 1182.58 717.509 1192.9 720.273L1193.42 718.341C1203.46 721.03 1213.59 723.944 1223.82 727.081L1223.23 728.993C1233.16 732.038 1243.17 735.295 1253.26 738.76L1253.91 736.869C1263.76 740.254 1273.7 743.838 1283.69 747.618L1282.99 749.489C1292.74 753.175 1302.55 757.049 1312.42 761.107L1313.18 759.257C1322.86 763.236 1332.6 767.392 1342.38 771.723L1341.57 773.552C1351.11 777.775 1360.7 782.165 1370.33 786.721L1371.18 784.913C1380.62 789.375 1390.09 793.994 1399.6 798.771L1398.7 800.558C1408.03 805.247 1417.4 810.087 1426.8 815.076L1427.74 813.309C1437 818.227 1446.3 823.29 1455.62 828.496L1454.64 830.241C1463.77 835.343 1472.93 840.583 1482.1 845.959L1483.11 844.233C1492.14 849.521 1501.18 854.94 1510.24 860.489L1509.19 862.195C1518.12 867.669 1527.07 873.269 1536.03 878.996L1537.11 877.311C1545.97 882.973 1554.83 888.758 1563.71 894.663L1562.6 896.328C1571.3 902.117 1580.01 908.023 1588.72 914.044L1589.85 912.399C1598.49 918.368 1607.12 924.451 1615.76 930.645L1614.59 932.271C1623.14 938.4 1631.68 944.64 1640.23 950.988L1641.42 949.383C1649.82 955.629 1658.22 961.98 1666.62 968.436L1665.4 970.021C1673.72 976.42 1682.03 982.921 1690.33 989.524L1691.58 987.958C1699.82 994.51 1708.05 1001.16 1716.27 1007.91L1715 1009.46C1723.09 1016.11 1731.17 1022.85 1739.24 1029.69L1740.53 1028.16C1748.56 1034.97 1756.57 1041.86 1764.56 1048.85L1763.25 1050.36C1771.16 1057.28 1779.05 1064.29 1786.92 1071.38L1788.26 1069.9C1796.07 1076.93 1803.85 1084.05 1811.61 1091.26L1810.24 1092.73C1817.96 1099.89 1825.65 1107.14 1833.32 1114.48L1834.7 1113.04Z" stroke="url(#paint0_linear_730_18)" stroke-width="4" stroke-dasharray="32 32"/>
<path d="M3191 1786.73C3183.74 1794.32 3176.39 1801.89 3168.96 1809.43L3167.53 1808.03C3163.82 1811.79 3160.09 1815.55 3156.34 1819.31C3152.58 1823.06 3148.82 1826.79 3145.06 1830.5L3146.46 1831.93C3138.92 1839.36 3131.36 1846.7 3123.77 1853.97L3122.38 1852.52C3114.72 1859.86 3107.03 1867.11 3099.31 1874.28L3100.67 1875.74C3092.91 1882.95 3085.13 1890.07 3077.33 1897.1L3075.99 1895.62C3068.12 1902.72 3060.23 1909.73 3052.31 1916.64L3053.63 1918.15C3045.64 1925.14 3037.63 1932.04 3029.6 1938.84L3028.31 1937.31C3020.24 1944.15 3012.16 1950.9 3004.06 1957.55L3005.33 1959.09C2997.12 1965.84 2988.89 1972.49 2980.65 1979.04L2979.4 1977.48C2971.1 1984.08 2962.78 1990.58 2954.46 1996.98L2955.68 1998.57C2947.29 2005.02 2938.89 2011.37 2930.49 2017.62L2929.29 2016.02C2920.75 2022.36 2912.21 2028.6 2903.66 2034.73L2904.83 2036.36C2896.19 2042.55 2887.56 2048.63 2878.92 2054.6L2877.78 2052.96C2869.08 2058.98 2860.37 2064.89 2851.67 2070.67L2852.78 2072.34C2843.9 2078.25 2835.03 2084.03 2826.18 2089.69L2825.1 2088.01C2816.14 2093.73 2807.19 2099.33 2798.26 2104.81L2799.3 2106.51C2790.25 2112.06 2781.2 2117.48 2772.18 2122.77L2771.17 2121.04C2761.99 2126.42 2752.84 2131.66 2743.71 2136.76L2744.68 2138.51C2735.37 2143.71 2726.07 2148.78 2716.81 2153.69L2715.87 2151.93C2706.47 2156.92 2697.1 2161.76 2687.77 2166.45L2688.67 2168.23C2679.16 2173.01 2669.68 2177.63 2660.25 2182.09L2659.4 2180.28C2649.77 2184.84 2640.18 2189.23 2630.64 2193.45L2631.45 2195.28C2621.66 2199.61 2611.93 2203.77 2602.25 2207.75L2601.49 2205.9C2591.62 2209.95 2581.8 2213.83 2572.05 2217.51L2572.76 2219.38C2562.76 2223.16 2552.83 2226.75 2542.97 2230.13L2542.33 2228.24C2532.24 2231.71 2522.22 2234.96 2512.3 2238.01L2512.88 2239.92C2502.66 2243.06 2492.53 2245.97 2482.49 2248.66L2481.97 2246.73C2471.65 2249.49 2461.43 2252.02 2451.32 2254.3L2451.76 2256.25C2441.28 2258.62 2430.92 2260.73 2420.68 2262.57L2420.33 2260.6C2409.78 2262.5 2399.37 2264.12 2389.11 2265.46L2389.37 2267.44C2378.7 2268.83 2368.2 2269.92 2357.86 2270.69L2357.71 2268.7C2347.02 2269.5 2336.51 2269.97 2326.2 2270.11L2326.23 2272.11C2315.47 2272.25 2304.91 2272.03 2294.58 2271.43L2294.7 2269.44C2283.98 2268.82 2273.5 2267.81 2263.28 2266.4L2263 2268.38C2252.33 2266.9 2241.93 2264.98 2231.83 2262.62L2232.28 2260.67C2221.88 2258.23 2211.8 2255.33 2202.06 2251.94L2201.4 2253.83C2191.29 2250.32 2181.54 2246.29 2172.17 2241.74L2173.05 2239.94C2163.54 2235.32 2154.44 2230.17 2145.75 2224.47L2144.65 2226.14C2135.8 2220.34 2127.39 2213.97 2119.42 2207.03L2120.73 2205.53C2116.79 2202.09 2112.96 2198.51 2109.24 2194.8C2105.52 2191.08 2101.94 2187.25 2098.51 2183.3L2097 2184.61C2090.06 2176.65 2083.69 2168.23 2077.89 2159.39L2079.56 2158.29C2073.86 2149.6 2068.71 2140.49 2064.1 2130.99L2062.3 2131.86C2057.75 2122.49 2053.72 2112.74 2050.2 2102.63L2052.09 2101.98C2048.71 2092.23 2045.8 2082.15 2043.37 2071.75L2041.42 2072.21C2039.05 2062.1 2037.14 2051.71 2035.66 2041.03L2037.64 2040.75C2036.22 2030.54 2035.21 2020.06 2034.6 2009.34L2032.6 2009.45C2032.01 1999.12 2031.79 1988.57 2031.93 1977.8L2033.93 1977.83C2034.06 1967.52 2034.53 1957.01 2035.34 1946.33L2033.34 1946.18C2034.12 1935.84 2035.2 1925.33 2036.59 1914.67L2038.57 1914.93C2039.91 1904.66 2041.53 1894.25 2043.43 1883.71L2041.46 1883.35C2043.31 1873.12 2045.42 1862.75 2047.78 1852.27L2049.73 1852.71C2052.01 1842.61 2054.54 1832.39 2057.3 1822.07L2055.37 1821.55C2058.06 1811.51 2060.97 1801.37 2064.11 1791.15L2066.02 1791.74C2069.07 1781.81 2072.33 1771.8 2075.79 1761.71L2073.9 1761.06C2077.28 1751.2 2080.87 1741.27 2084.65 1731.27L2086.52 1731.98C2090.21 1722.23 2094.08 1712.42 2098.14 1702.54L2096.29 1701.78C2100.27 1692.1 2104.42 1682.37 2108.75 1672.59L2110.58 1673.4C2114.8 1663.86 2119.2 1654.27 2123.75 1644.64L2121.94 1643.78C2126.4 1634.35 2131.02 1624.88 2135.8 1615.37L2137.59 1616.27C2142.28 1606.93 2147.12 1597.56 2152.11 1588.16L2150.34 1587.23C2155.26 1577.96 2160.32 1568.67 2165.53 1559.35L2167.27 1560.33C2172.37 1551.19 2177.61 1542.04 2182.99 1532.86L2181.26 1531.85C2186.55 1522.83 2191.97 1513.79 2197.52 1504.73L2199.22 1505.78C2204.7 1496.84 2210.3 1487.89 2216.03 1478.93L2214.34 1477.86C2220 1469 2225.79 1460.13 2231.69 1451.26L2233.36 1452.36C2239.15 1443.66 2245.05 1434.96 2251.07 1426.25L2249.43 1425.11C2255.4 1416.48 2261.48 1407.84 2267.68 1399.21L2269.3 1400.37C2275.43 1391.83 2281.67 1383.28 2288.02 1374.74L2286.41 1373.55C2292.66 1365.14 2299.01 1356.74 2305.47 1348.35L2307.05 1349.57C2313.45 1341.25 2319.95 1332.94 2326.55 1324.63L2324.99 1323.39C2331.54 1315.15 2338.19 1306.92 2344.94 1298.7L2346.49 1299.97C2353.14 1291.87 2359.88 1283.79 2366.72 1275.72L2365.19 1274.43C2372 1266.41 2378.89 1258.4 2385.88 1250.4L2387.39 1251.72C2394.31 1243.81 2401.32 1235.91 2408.41 1228.04L2406.93 1226.7C2413.96 1218.9 2421.08 1211.12 2428.29 1203.36L2429.76 1204.72C2436.92 1197.01 2444.17 1189.32 2451.51 1181.65L2450.07 1180.27C2457.33 1172.68 2464.68 1165.11 2472.11 1157.57L2473.53 1158.98C2477.24 1155.21 2480.98 1151.45 2484.73 1147.7C2488.48 1143.94 2492.24 1140.21 2496.01 1136.5L2494.6 1135.08C2502.14 1127.65 2509.71 1120.3 2517.3 1113.03L2518.68 1114.48C2526.35 1107.14 2534.04 1099.89 2541.75 1092.73L2540.39 1091.26C2548.15 1084.05 2555.93 1076.93 2563.73 1069.9L2565.07 1071.38C2572.95 1064.28 2580.84 1057.28 2588.75 1050.36L2587.43 1048.85C2595.43 1041.86 2603.44 1034.97 2611.46 1028.16L2612.76 1029.69C2620.82 1022.85 2628.91 1016.1 2637 1009.46L2635.73 1007.91C2643.95 1001.16 2652.18 994.509 2660.42 987.957L2661.66 989.523C2669.97 982.92 2678.28 976.419 2686.6 970.02L2685.38 968.435C2693.77 961.979 2702.18 955.628 2710.58 949.382L2711.77 950.987C2720.31 944.639 2728.86 938.399 2737.4 932.27L2736.24 930.644C2744.87 924.45 2753.51 918.368 2762.14 912.398L2763.28 914.043C2771.99 908.022 2780.7 902.116 2789.4 896.327L2788.29 894.662C2797.16 888.756 2806.03 882.972 2814.89 877.31L2815.97 878.995C2824.92 873.268 2833.87 867.668 2842.81 862.194L2841.76 860.488C2850.82 854.939 2859.86 849.52 2868.88 844.232L2869.9 845.958C2879.07 840.582 2888.23 835.342 2897.36 830.24L2896.38 828.494C2905.7 823.289 2914.99 818.226 2924.26 813.308L2925.19 815.075C2934.59 810.086 2943.96 805.246 2953.3 800.557L2952.4 798.77C2961.91 793.993 2971.38 789.373 2980.81 784.912L2981.67 786.72C2991.3 782.164 3000.89 777.774 3010.43 773.55L3009.62 771.722C3019.4 767.39 3029.14 763.235 3038.81 759.256L3039.57 761.106C3049.45 757.048 3059.26 753.174 3069.01 749.488L3068.3 747.617C3078.3 743.837 3088.23 740.253 3098.09 736.867L3098.74 738.759C3108.83 735.294 3118.84 732.037 3128.77 728.991L3128.18 727.079C3138.4 723.943 3148.54 721.029 3158.58 718.34L3159.1 720.272C3169.42 717.508 3179.64 714.984 3189.74 712.701L3189.3 710.75C3199.78 708.384 3210.15 706.277 3220.38 704.432L3220.74 706.401C3231.28 704.5 3241.69 702.879 3251.96 701.542L3251.7 699.559C3262.36 698.17 3272.87 697.085 3283.21 696.309L3283.36 698.304C3294.04 697.502 3304.55 697.031 3314.86 696.896L3314.83 694.896C3325.6 694.755 3336.15 694.977 3346.48 695.568L3346.37 697.565C3357.09 698.178 3367.57 699.19 3377.79 700.606L3378.06 698.625C3388.74 700.105 3399.13 702.023 3409.24 704.387L3408.78 706.334C3419.18 708.767 3429.26 711.674 3439.01 715.061L3439.66 713.172C3449.77 716.686 3459.52 720.714 3468.89 725.265L3468.02 727.064C3477.52 731.678 3486.63 736.832 3495.32 742.533L3496.42 740.861C3505.26 746.663 3513.68 753.03 3521.65 759.968L3520.33 761.477C3524.28 764.911 3528.11 768.487 3531.83 772.206C3535.55 775.924 3539.12 779.757 3542.56 783.701L3544.06 782.387C3551 790.355 3557.37 798.773 3563.17 807.617L3561.5 808.714C3567.2 817.404 3572.36 826.511 3576.97 836.014L3578.77 835.14C3583.32 844.511 3587.35 854.262 3590.86 864.369L3588.97 865.026C3592.36 874.769 3595.27 884.85 3597.7 895.251L3599.65 894.795C3602.01 904.898 3603.93 915.297 3605.41 925.973L3603.43 926.248C3604.84 936.466 3605.86 946.944 3606.47 957.666L3608.47 957.552C3609.06 967.883 3609.28 978.437 3609.14 989.198L3607.14 989.172C3607 999.483 3606.53 1009.99 3605.73 1020.68L3607.72 1020.83C3606.95 1031.16 3605.86 1041.67 3604.47 1052.33L3602.49 1052.08C3601.15 1062.34 3599.53 1072.75 3597.63 1083.3L3599.6 1083.65C3597.76 1093.89 3595.65 1104.25 3593.28 1114.73L3591.33 1114.29C3589.05 1124.4 3586.53 1134.61 3583.76 1144.94L3585.69 1145.45C3583 1155.49 3580.09 1165.63 3576.95 1175.85L3575.04 1175.27C3572 1185.19 3568.74 1195.2 3565.27 1205.29L3567.17 1205.94C3563.78 1215.8 3560.2 1225.73 3556.42 1235.73L3554.55 1235.02C3550.86 1244.77 3546.99 1254.59 3542.93 1264.46L3544.78 1265.22C3540.8 1274.9 3536.64 1284.63 3532.31 1294.42L3530.48 1293.61C3526.26 1303.15 3521.87 1312.73 3517.31 1322.36L3519.12 1323.22C3514.66 1332.65 3510.04 1342.13 3505.26 1351.63L3503.48 1350.74C3498.79 1360.07 3493.95 1369.44 3488.96 1378.84L3490.73 1379.78C3485.81 1389.04 3480.74 1398.33 3475.54 1407.65L3473.79 1406.68C3468.69 1415.81 3463.45 1424.96 3458.08 1434.14L3459.8 1435.15C3454.51 1444.17 3449.09 1453.21 3443.55 1462.27L3441.84 1461.23C3436.37 1470.16 3430.77 1479.11 3425.04 1488.07L3426.72 1489.14C3421.06 1498 3415.28 1506.87 3409.37 1515.75L3407.71 1514.64C3401.92 1523.34 3396.01 1532.04 3389.99 1540.75L3391.64 1541.89C3385.67 1550.52 3379.58 1559.16 3373.39 1567.8L3371.76 1566.63C3365.63 1575.18 3359.4 1583.72 3353.05 1592.26L3354.65 1593.45C3348.41 1601.86 3342.05 1610.26 3335.6 1618.65L3334.01 1617.43C3327.61 1625.75 3321.11 1634.07 3314.51 1642.37L3316.08 1643.61C3309.52 1651.85 3302.87 1660.08 3296.12 1668.3L3294.58 1667.03C3287.93 1675.13 3281.18 1683.21 3274.35 1691.28L3275.87 1692.57C3269.07 1700.6 3262.17 1708.61 3255.18 1716.6L3253.67 1715.28C3246.76 1723.19 3239.75 1731.09 3232.65 1738.96L3234.14 1740.3C3227.1 1748.1 3219.98 1755.88 3212.77 1763.64L3211.31 1762.28C3204.14 1769.99 3196.89 1777.68 3189.55 1785.35L3191 1786.73Z" stroke="url(#paint1_linear_730_18)" stroke-width="4" stroke-dasharray="32 32"/>
<path d="M2334.13 678.493C2341.98 685.953 2349.8 693.51 2357.58 701.161L2356.18 702.587C2360.06 706.409 2363.94 710.255 2367.81 714.124C2371.68 717.993 2375.53 721.871 2379.35 725.758L2380.77 724.356C2388.42 732.139 2395.98 739.957 2403.44 747.807L2401.99 749.185C2409.53 757.117 2416.97 765.083 2424.31 773.079L2425.78 771.726C2433.17 779.776 2440.47 787.856 2447.65 795.964L2446.16 797.291C2453.4 805.46 2460.54 813.658 2467.58 821.881L2469.1 820.581C2476.22 828.904 2483.24 837.254 2490.15 845.625L2488.61 846.899C2495.56 855.318 2502.4 863.761 2509.13 872.223L2510.7 870.978C2517.51 879.541 2524.21 888.124 2530.8 896.723L2529.21 897.939C2535.87 906.632 2542.41 915.342 2548.84 924.065L2550.45 922.879C2556.93 931.685 2563.3 940.505 2569.55 949.335L2567.92 950.49C2574.23 959.414 2580.43 968.348 2586.5 977.288L2588.15 976.165C2594.31 985.246 2600.35 994.334 2606.26 1003.42L2604.58 1004.51C2610.54 1013.69 2616.37 1022.86 2622.07 1032.04L2623.77 1030.98C2629.54 1040.27 2635.17 1049.56 2640.67 1058.84L2638.95 1059.86C2644.54 1069.31 2650 1078.75 2655.31 1088.19L2657.05 1087.21C2662.44 1096.77 2667.67 1106.33 2672.76 1115.87L2671 1116.82C2676.15 1126.47 2681.15 1136.12 2685.99 1145.74L2687.78 1144.84C2692.71 1154.63 2697.48 1164.4 2702.09 1174.15L2700.28 1175C2704.98 1184.94 2709.52 1194.85 2713.88 1204.73L2715.71 1203.92C2720.16 1213.98 2724.43 1224.01 2728.52 1234L2726.67 1234.76C2730.83 1244.91 2734.81 1255.03 2738.61 1265.09L2740.48 1264.39C2744.35 1274.66 2748.03 1284.9 2751.52 1295.07L2749.63 1295.72C2753.19 1306.1 2756.55 1316.43 2759.7 1326.69L2761.62 1326.11C2764.86 1336.66 2767.88 1347.14 2770.69 1357.55L2768.76 1358.07C2771.63 1368.7 2774.28 1379.25 2776.69 1389.72L2778.64 1389.27C2781.12 1400.02 2783.36 1410.68 2785.35 1421.25L2783.39 1421.62C2785.43 1432.44 2787.22 1443.16 2788.75 1453.76L2790.73 1453.48C2792.3 1464.4 2793.61 1475.22 2794.63 1485.91L2792.64 1486.1C2793.7 1497.06 2794.46 1507.89 2794.93 1518.57L2796.93 1518.49C2797.41 1529.53 2797.58 1540.42 2797.43 1551.14L2795.43 1551.12C2795.28 1562.13 2794.8 1572.97 2793.97 1583.62L2795.97 1583.77C2795.11 1594.79 2793.9 1605.62 2792.32 1616.23L2790.34 1615.93C2788.72 1626.81 2786.72 1637.46 2784.32 1647.86L2786.27 1648.31C2783.8 1659.06 2780.92 1669.55 2777.61 1679.78L2775.71 1679.17C2772.35 1689.58 2768.55 1699.71 2764.31 1709.54L2766.15 1710.33C2761.81 1720.41 2757 1730.17 2751.73 1739.61L2749.99 1738.64C2744.69 1748.12 2738.92 1757.27 2732.67 1766.07L2734.3 1767.23C2728.01 1776.1 2721.23 1784.61 2713.96 1792.75L2712.46 1791.41C2708.86 1795.44 2705.14 1799.38 2701.3 1803.22C2697.46 1807.07 2693.52 1810.79 2689.49 1814.39L2690.82 1815.88C2682.69 1823.15 2674.17 1829.93 2665.31 1836.23L2664.15 1834.6C2655.35 1840.84 2646.2 1846.61 2636.71 1851.91L2637.69 1853.66C2628.25 1858.93 2618.48 1863.73 2608.41 1868.07L2607.62 1866.24C2597.79 1870.47 2587.66 1874.27 2577.24 1877.63L2577.86 1879.54C2567.63 1882.84 2557.14 1885.72 2546.39 1888.2L2545.94 1886.25C2535.53 1888.64 2524.88 1890.64 2514.01 1892.26L2514.3 1894.24C2503.69 1895.82 2492.87 1897.04 2481.85 1897.89L2481.7 1895.89C2471.04 1896.72 2460.21 1897.2 2449.19 1897.36L2449.22 1899.36C2438.49 1899.5 2427.6 1899.33 2416.56 1898.85L2416.65 1896.85C2405.97 1896.38 2395.14 1895.62 2384.17 1894.57L2383.98 1896.56C2373.29 1895.53 2362.48 1894.23 2351.55 1892.65L2351.84 1890.67C2341.23 1889.14 2330.52 1887.35 2319.7 1885.31L2319.33 1887.28C2308.76 1885.28 2298.1 1883.04 2287.35 1880.56L2287.79 1878.61C2277.33 1876.2 2266.77 1873.56 2256.15 1870.69L2255.63 1872.62C2245.21 1869.81 2234.73 1866.78 2224.18 1863.54L2224.77 1861.63C2214.51 1858.47 2204.18 1855.11 2193.8 1851.55L2193.15 1853.45C2182.97 1849.96 2172.74 1846.27 2162.46 1842.4L2163.17 1840.53C2153.1 1836.73 2142.99 1832.75 2132.84 1828.59L2132.08 1830.44C2122.09 1826.35 2112.06 1822.08 2102 1817.63L2102.81 1815.8C2092.93 1811.44 2083.02 1806.9 2073.08 1802.2L2072.23 1804.01C2062.48 1799.4 2052.71 1794.63 2042.92 1789.7L2043.82 1787.92C2034.19 1783.07 2024.55 1778.07 2014.89 1772.92L2013.95 1774.69C2004.41 1769.6 1994.85 1764.36 1985.28 1758.97L1986.27 1757.23C1976.83 1751.92 1967.39 1746.47 1957.94 1740.87L1956.92 1742.59C1947.64 1737.1 1938.35 1731.46 1929.06 1725.69L1930.12 1724C1920.94 1718.3 1911.76 1712.47 1902.59 1706.51L1901.5 1708.18C1892.41 1702.27 1883.32 1696.24 1874.24 1690.07L1875.36 1688.42C1866.42 1682.35 1857.49 1676.16 1848.57 1669.84L1847.41 1671.47C1838.58 1665.23 1829.76 1658.86 1820.96 1652.37L1822.14 1650.76C1813.42 1644.33 1804.71 1637.79 1796.02 1631.13L1794.8 1632.72C1786.2 1626.13 1777.62 1619.43 1769.05 1612.62L1770.3 1611.05C1761.84 1604.32 1753.4 1597.48 1744.98 1590.53L1743.7 1592.07C1735.33 1585.16 1726.98 1578.15 1718.66 1571.02L1719.96 1569.5C1711.74 1562.47 1703.54 1555.32 1695.37 1548.08L1694.04 1549.58C1685.93 1542.39 1677.85 1535.1 1669.8 1527.71L1671.16 1526.23C1663.16 1518.89 1655.19 1511.45 1647.26 1503.91L1645.88 1505.36C1638.03 1497.9 1630.22 1490.35 1622.43 1482.7L1623.84 1481.27C1619.95 1477.45 1616.07 1473.6 1612.2 1469.73C1608.33 1465.86 1604.49 1461.99 1600.66 1458.1L1599.24 1459.5C1591.59 1451.72 1584.03 1443.9 1576.57 1436.05L1578.02 1434.67C1570.48 1426.74 1563.04 1418.77 1555.7 1410.78L1554.23 1412.13C1546.84 1404.08 1539.55 1396 1532.36 1387.89L1533.85 1386.57C1526.61 1378.4 1519.47 1370.2 1512.43 1361.98L1510.91 1363.28C1503.79 1354.95 1496.77 1346.6 1489.86 1338.23L1491.4 1336.96C1484.45 1328.54 1477.61 1320.1 1470.88 1311.63L1469.32 1312.88C1462.5 1304.32 1455.8 1295.73 1449.22 1287.13L1450.8 1285.92C1444.15 1277.23 1437.6 1268.52 1431.18 1259.79L1429.57 1260.98C1423.08 1252.17 1416.71 1243.35 1410.46 1234.52L1412.09 1233.37C1405.78 1224.44 1399.59 1215.51 1393.52 1206.57L1391.86 1207.69C1385.7 1198.61 1379.66 1189.52 1373.75 1180.43L1375.43 1179.34C1369.47 1170.17 1363.64 1160.99 1357.94 1151.82L1356.24 1152.87C1350.47 1143.59 1344.84 1134.3 1339.34 1125.02L1341.06 1124C1335.47 1114.55 1330.01 1105.1 1324.7 1095.67L1322.96 1096.65C1317.58 1087.08 1312.34 1077.53 1307.25 1067.98L1309.01 1067.04C1303.86 1057.38 1298.86 1047.74 1294.02 1038.12L1292.23 1039.02C1287.3 1029.23 1282.53 1019.46 1277.92 1009.71L1279.73 1008.85C1275.03 998.917 1270.5 989.006 1266.13 979.126L1264.3 979.935C1259.86 969.874 1255.58 959.845 1251.49 949.855L1253.34 949.096C1249.18 938.944 1245.2 928.832 1241.41 918.766L1239.53 919.471C1235.66 909.193 1231.98 898.962 1228.49 888.784L1230.38 888.135C1226.82 877.753 1223.46 867.427 1220.31 857.163L1218.4 857.75C1215.15 847.202 1212.13 836.72 1209.32 826.309L1211.25 825.788C1208.38 815.159 1205.74 804.607 1203.32 794.139L1201.37 794.589C1198.89 783.837 1196.65 773.173 1194.66 762.605L1196.62 762.234C1194.58 751.416 1192.79 740.701 1191.26 730.095L1189.28 730.381C1187.71 719.452 1186.4 708.64 1185.38 697.952L1187.37 697.761C1186.31 686.798 1185.55 675.969 1185.08 665.284L1183.09 665.371C1182.6 654.33 1182.43 643.44 1182.58 632.713L1184.58 632.741C1184.73 621.728 1185.22 610.89 1186.04 600.239L1184.05 600.085C1184.9 589.065 1186.11 578.242 1187.69 567.631L1189.67 567.925C1191.29 557.051 1193.29 546.402 1195.69 535.993L1193.74 535.545C1196.21 524.798 1199.09 514.303 1202.4 504.075L1204.3 504.69C1207.66 494.279 1211.46 484.149 1215.7 474.319L1213.86 473.527C1218.2 463.451 1223.01 453.684 1228.28 444.245L1230.02 445.22C1235.32 435.734 1241.09 426.582 1247.34 417.784L1245.71 416.626C1252 407.76 1258.79 399.248 1266.06 391.11L1267.55 392.443C1271.15 388.413 1274.87 384.476 1278.71 380.633C1282.55 376.791 1286.49 373.07 1290.52 369.47L1289.19 367.979C1297.32 360.708 1305.84 353.928 1314.7 347.631L1315.86 349.262C1324.66 343.014 1333.81 337.244 1343.3 331.948L1342.32 330.201C1351.76 324.931 1361.53 320.127 1371.6 315.784L1372.4 317.621C1382.23 313.383 1392.36 309.585 1402.77 306.223L1402.15 304.32C1412.38 301.017 1422.87 298.133 1433.62 295.662L1434.07 297.611C1444.48 295.217 1455.13 293.213 1466 291.594L1465.71 289.616C1476.32 288.036 1487.14 286.822 1498.16 285.969L1498.32 287.963C1508.97 287.138 1519.81 286.652 1530.82 286.502L1530.79 284.502C1541.52 284.355 1552.41 284.525 1563.45 285.009L1563.36 287.007C1574.05 287.474 1584.88 288.237 1595.84 289.29L1596.03 287.3C1606.72 288.327 1617.53 289.63 1628.46 291.206L1628.17 293.186C1638.78 294.715 1649.49 296.503 1660.31 298.546L1660.68 296.581C1671.25 298.577 1681.91 300.816 1692.67 303.296L1692.22 305.244C1702.68 307.659 1713.24 310.302 1723.86 313.171L1724.39 311.24C1734.8 314.051 1745.28 317.078 1755.83 320.319L1755.24 322.231C1765.5 325.385 1775.83 328.743 1786.21 332.303L1786.86 330.411C1797.04 333.901 1807.27 337.584 1817.55 341.458L1816.84 343.329C1826.91 347.124 1837.02 351.102 1847.17 355.263L1847.93 353.413C1857.92 357.508 1867.95 361.779 1878.01 366.224L1877.2 368.053C1887.08 372.419 1896.99 376.953 1906.93 381.653L1907.79 379.846C1917.53 384.456 1927.3 389.226 1937.09 394.155L1936.19 395.942C1945.82 400.787 1955.46 405.785 1965.12 410.937L1966.06 409.172C1975.6 414.261 1985.16 419.499 1994.73 424.884L1993.75 426.627C2003.18 431.937 2012.62 437.39 2022.07 442.985L2023.09 441.264C2032.37 446.761 2041.66 452.394 2050.95 458.163L2049.9 459.862C2059.07 465.56 2068.25 471.39 2077.42 477.352L2078.51 475.675C2087.6 481.583 2096.69 487.62 2105.77 493.784L2104.65 495.439C2113.59 501.508 2122.52 507.701 2131.44 514.016L2132.6 512.383C2141.43 518.632 2150.25 525.001 2159.06 531.489L2157.87 533.099C2166.59 539.525 2175.3 546.068 2184 552.727L2185.21 551.139C2193.81 557.726 2202.39 564.426 2210.96 571.239L2209.71 572.804C2218.17 579.536 2226.62 586.377 2235.04 593.327L2236.31 591.784C2244.68 598.695 2253.03 605.712 2261.35 612.836L2260.05 614.355C2268.28 621.392 2276.47 628.533 2284.64 635.777L2285.97 634.28C2294.08 641.47 2302.16 648.76 2310.21 656.15L2308.86 657.623C2316.85 664.964 2324.82 672.405 2332.75 679.943L2334.13 678.493Z" stroke="url(#paint2_linear_730_18)" stroke-width="4" stroke-dasharray="32 32"/>
<path d="M2775.43 1436.05C2767.97 1443.9 2760.41 1451.72 2752.76 1459.5L2751.34 1458.1C2747.51 1461.99 2743.67 1465.86 2739.8 1469.73C2735.93 1473.6 2732.05 1477.45 2728.16 1481.27L2729.57 1482.7C2721.78 1490.35 2713.97 1497.9 2706.12 1505.36L2704.74 1503.91C2696.81 1511.45 2688.84 1518.89 2680.84 1526.23L2682.2 1527.71C2674.15 1535.1 2666.07 1542.39 2657.96 1549.58L2656.63 1548.08C2648.46 1555.32 2640.26 1562.47 2632.04 1569.5L2633.34 1571.02C2625.02 1578.15 2616.67 1585.16 2608.3 1592.07L2607.02 1590.53C2598.6 1597.48 2590.16 1604.32 2581.7 1611.05L2582.94 1612.62C2574.38 1619.43 2565.8 1626.13 2557.2 1632.72L2555.98 1631.13C2547.29 1637.79 2538.58 1644.33 2529.86 1650.76L2531.04 1652.37C2522.24 1658.86 2513.42 1665.23 2504.59 1671.47L2503.43 1669.84C2494.51 1676.16 2485.58 1682.35 2476.63 1688.42L2477.76 1690.07C2468.68 1696.24 2459.59 1702.27 2450.5 1708.18L2449.41 1706.51C2440.24 1712.47 2431.06 1718.3 2421.88 1724L2422.94 1725.69C2413.65 1731.46 2404.36 1737.1 2395.08 1742.59L2394.06 1740.87C2384.61 1746.47 2375.17 1751.92 2365.73 1757.23L2366.72 1758.97C2357.15 1764.36 2347.59 1769.6 2338.05 1774.69L2337.11 1772.92C2327.45 1778.07 2317.81 1783.07 2308.18 1787.92L2309.08 1789.7C2299.29 1794.63 2289.52 1799.4 2279.77 1804.01L2278.92 1802.2C2268.98 1806.9 2259.07 1811.44 2249.19 1815.8L2250 1817.63C2239.94 1822.08 2229.91 1826.35 2219.92 1830.44L2219.16 1828.59C2209.01 1832.75 2198.9 1836.73 2188.83 1840.53L2189.54 1842.4C2179.26 1846.27 2169.03 1849.96 2158.85 1853.45L2158.2 1851.55C2147.82 1855.11 2137.49 1858.47 2127.23 1861.63L2127.82 1863.54C2117.27 1866.78 2106.79 1869.81 2096.37 1872.62L2095.85 1870.69C2085.22 1873.56 2074.67 1876.2 2064.2 1878.61L2064.65 1880.56C2053.9 1883.04 2043.24 1885.28 2032.67 1887.28L2032.3 1885.31C2021.48 1887.35 2010.77 1889.14 2000.16 1890.67L2000.45 1892.65C1989.52 1894.23 1978.71 1895.53 1968.02 1896.56L1967.83 1894.57C1956.86 1895.62 1946.03 1896.38 1935.35 1896.85L1935.44 1898.85C1924.4 1899.33 1913.51 1899.5 1902.78 1899.36L1902.81 1897.36C1891.79 1897.2 1880.96 1896.72 1870.3 1895.89L1870.15 1897.89C1859.13 1897.04 1848.31 1895.82 1837.7 1894.24L1837.99 1892.26C1827.12 1890.64 1816.47 1888.64 1806.06 1886.25L1805.61 1888.2C1794.86 1885.72 1784.37 1882.84 1774.14 1879.54L1774.76 1877.63C1764.34 1874.27 1754.21 1870.47 1744.38 1866.24L1743.59 1868.07C1733.52 1863.73 1723.75 1858.93 1714.31 1853.66L1715.29 1851.91C1705.8 1846.61 1696.65 1840.84 1687.85 1834.6L1686.69 1836.23C1677.83 1829.93 1669.31 1823.15 1661.18 1815.88L1662.51 1814.39C1658.48 1810.79 1654.54 1807.07 1650.7 1803.22C1646.86 1799.38 1643.14 1795.44 1639.54 1791.41L1638.04 1792.75C1630.77 1784.61 1623.99 1776.1 1617.7 1767.23L1619.33 1766.07C1613.08 1757.27 1607.31 1748.12 1602.01 1738.64L1600.27 1739.61C1595 1730.17 1590.19 1720.41 1585.85 1710.33L1587.69 1709.54C1583.45 1699.71 1579.65 1689.58 1576.29 1679.17L1574.39 1679.78C1571.08 1669.55 1568.2 1659.06 1565.73 1648.31L1567.68 1647.86C1565.28 1637.46 1563.28 1626.81 1561.66 1615.93L1559.68 1616.23C1558.1 1605.61 1556.89 1594.79 1556.03 1583.77L1558.03 1583.62C1557.2 1572.97 1556.72 1562.13 1556.57 1551.12L1554.57 1551.14C1554.42 1540.42 1554.59 1529.53 1555.07 1518.49L1557.07 1518.57C1557.54 1507.89 1558.3 1497.06 1559.36 1486.1L1557.36 1485.9C1558.39 1475.22 1559.7 1464.4 1561.27 1453.48L1563.25 1453.76C1564.78 1443.16 1566.57 1432.44 1568.61 1421.62L1566.65 1421.25C1568.64 1410.68 1570.88 1400.02 1573.36 1389.27L1575.31 1389.72C1577.72 1379.25 1580.37 1368.7 1583.24 1358.07L1581.31 1357.55C1584.12 1347.14 1587.14 1336.66 1590.38 1326.11L1592.3 1326.69C1595.45 1316.43 1598.81 1306.1 1602.37 1295.72L1600.48 1295.07C1603.97 1284.9 1607.65 1274.66 1611.52 1264.39L1613.39 1265.09C1617.19 1255.03 1621.17 1244.91 1625.33 1234.76L1623.48 1234C1627.57 1224.01 1631.84 1213.98 1636.29 1203.92L1638.12 1204.73C1642.48 1194.85 1647.02 1184.94 1651.72 1175L1649.91 1174.15C1654.52 1164.4 1659.29 1154.63 1664.22 1144.84L1666.01 1145.74C1670.85 1136.12 1675.85 1126.47 1681 1116.82L1679.24 1115.87C1684.33 1106.33 1689.56 1096.77 1694.95 1087.21L1696.69 1088.19C1702 1078.75 1707.46 1069.31 1713.05 1059.86L1711.33 1058.84C1716.83 1049.56 1722.46 1040.27 1728.23 1030.98L1729.93 1032.04C1735.63 1022.86 1741.46 1013.69 1747.42 1004.51L1745.74 1003.42C1751.65 994.333 1757.69 985.246 1763.85 976.165L1765.5 977.288C1771.57 968.347 1777.77 959.413 1784.08 950.49L1782.45 949.334C1788.7 940.504 1795.07 931.684 1801.55 922.878L1803.16 924.064C1809.59 915.341 1816.13 906.632 1822.79 897.939L1821.2 896.723C1827.79 888.123 1834.49 879.541 1841.3 870.978L1842.87 872.223C1849.6 863.761 1856.44 855.318 1863.39 846.898L1861.85 845.625C1868.76 837.253 1875.78 828.904 1882.9 820.58L1884.42 821.881C1891.46 813.658 1898.6 805.46 1905.84 797.291L1904.35 795.964C1911.54 787.856 1918.83 779.775 1926.22 771.726L1927.69 773.078C1935.03 765.083 1942.47 757.117 1950.01 749.185L1948.56 747.807C1956.02 739.957 1963.58 732.139 1971.23 724.356L1972.65 725.758C1976.47 721.871 1980.32 717.993 1984.19 714.124C1988.06 710.254 1991.94 706.409 1995.82 702.587L1994.42 701.161C2002.2 693.51 2010.02 685.953 2017.87 678.493L2019.25 679.942C2027.18 672.404 2035.15 664.964 2043.14 657.623L2041.79 656.15C2049.84 648.76 2057.92 641.469 2066.03 634.28L2067.36 635.777C2075.53 628.533 2083.72 621.392 2091.95 614.355L2090.65 612.835C2098.97 605.712 2107.32 598.694 2115.69 591.784L2116.96 593.327C2125.38 586.377 2133.83 579.535 2142.29 572.803L2141.04 571.238C2149.61 564.426 2158.19 557.726 2166.79 551.139L2168 552.727C2176.7 546.068 2185.41 539.525 2194.13 533.099L2192.94 531.488C2201.75 525.001 2210.57 518.632 2219.4 512.383L2220.56 514.016C2229.48 507.7 2238.41 501.508 2247.35 495.439L2246.23 493.784C2255.31 487.62 2264.4 481.583 2273.49 475.675L2274.58 477.352C2283.75 471.39 2292.93 465.56 2302.1 459.861L2301.05 458.162C2310.34 452.394 2319.63 446.761 2328.91 441.264L2329.93 442.985C2339.38 437.39 2348.82 431.937 2358.25 426.627L2357.27 424.884C2366.84 419.499 2376.4 414.261 2385.94 409.172L2386.88 410.936C2396.54 405.785 2406.18 400.787 2415.81 395.942L2414.91 394.155C2424.7 389.226 2434.47 384.456 2444.21 379.845L2445.07 381.653C2455.01 376.952 2464.92 372.419 2474.8 368.053L2473.99 366.224C2484.05 361.779 2494.08 357.508 2504.07 353.413L2504.83 355.263C2514.98 351.102 2525.09 347.124 2535.16 343.329L2534.45 341.458C2544.73 337.583 2554.96 333.901 2565.14 330.411L2565.79 332.303C2576.17 328.743 2586.5 325.385 2596.76 322.231L2596.17 320.319C2606.72 317.078 2617.2 314.051 2627.61 311.24L2628.13 313.171C2638.76 310.301 2649.32 307.658 2659.78 305.244L2659.33 303.295C2670.09 300.816 2680.75 298.577 2691.32 296.581L2691.69 298.546C2702.51 296.503 2713.22 294.715 2723.83 293.185L2723.54 291.206C2734.47 289.63 2745.28 288.327 2755.97 287.299L2756.16 289.29C2767.13 288.237 2777.95 287.474 2788.64 287.007L2788.55 285.009C2799.59 284.525 2810.48 284.355 2821.21 284.502L2821.18 286.502C2832.19 286.652 2843.03 287.138 2853.68 287.963L2853.84 285.969C2864.86 286.822 2875.68 288.036 2886.29 289.616L2886 291.594C2896.87 293.213 2907.52 295.217 2917.93 297.611L2918.38 295.661C2929.13 298.132 2939.62 301.017 2949.85 304.32L2949.23 306.223C2959.64 309.585 2969.77 313.383 2979.6 317.62L2980.4 315.784C2990.47 320.127 3000.24 324.931 3009.68 330.201L3008.7 331.948C3018.19 337.244 3027.34 343.013 3036.14 349.262L3037.3 347.631C3046.16 353.928 3054.67 360.708 3062.81 367.978L3061.48 369.47C3065.51 373.07 3069.45 376.791 3073.29 380.633C3077.13 384.476 3080.85 388.413 3084.45 392.443L3085.94 391.11C3093.21 399.248 3099.99 407.759 3106.29 416.626L3104.66 417.784C3110.91 426.582 3116.68 435.734 3121.98 445.22L3123.72 444.245C3128.99 453.684 3133.8 463.451 3138.14 473.527L3136.3 474.319C3140.54 484.149 3144.34 494.279 3147.7 504.69L3149.6 504.075C3152.91 514.303 3155.79 524.798 3158.26 535.545L3156.31 535.993C3158.71 546.402 3160.71 557.051 3162.33 567.925L3164.31 567.631C3165.89 578.242 3167.1 589.065 3167.95 600.085L3165.96 600.239C3166.78 610.89 3167.27 621.728 3167.42 632.741L3169.42 632.714C3169.57 643.44 3169.4 654.33 3168.91 665.371L3166.92 665.284C3166.45 675.969 3165.69 686.798 3164.63 697.761L3166.62 697.952C3165.6 708.64 3164.29 719.452 3162.72 730.381L3160.74 730.095C3159.21 740.701 3157.42 751.416 3155.38 762.234L3157.34 762.605C3155.35 773.173 3153.11 783.837 3150.63 794.589L3148.68 794.139C3146.26 804.607 3143.62 815.159 3140.75 825.788L3142.68 826.309C3139.87 836.72 3136.85 847.202 3133.6 857.75L3131.69 857.162C3128.54 867.426 3125.18 877.753 3121.62 888.135L3123.51 888.784C3120.02 898.962 3116.34 909.193 3112.47 919.471L3110.59 918.765C3106.8 928.832 3102.82 938.944 3098.66 949.096L3100.51 949.855C3096.42 959.845 3092.14 969.874 3087.7 979.934L3085.87 979.126C3081.5 989.006 3076.97 998.917 3072.27 1008.85L3074.08 1009.71C3069.47 1019.45 3064.7 1029.23 3059.77 1039.02L3057.98 1038.12C3053.14 1047.74 3048.14 1057.38 3042.99 1067.04L3044.75 1067.98C3039.66 1077.53 3034.42 1087.08 3029.04 1096.65L3027.3 1095.67C3021.99 1105.1 3016.53 1114.55 3010.94 1124L3012.66 1125.02C3007.16 1134.3 3001.53 1143.59 2995.76 1152.87L2994.06 1151.82C2988.36 1160.99 2982.53 1170.17 2976.57 1179.34L2978.25 1180.43C2972.34 1189.52 2966.3 1198.61 2960.14 1207.69L2958.48 1206.57C2952.41 1215.51 2946.22 1224.44 2939.91 1233.37L2941.54 1234.52C2935.29 1243.35 2928.92 1252.17 2922.43 1260.98L2920.82 1259.79C2914.4 1268.52 2907.85 1277.23 2901.2 1285.92L2902.78 1287.13C2896.2 1295.73 2889.5 1304.32 2882.68 1312.88L2881.12 1311.63C2874.39 1320.1 2867.55 1328.54 2860.6 1336.96L2862.14 1338.23C2855.23 1346.6 2848.21 1354.95 2841.09 1363.28L2839.57 1361.98C2832.53 1370.2 2825.39 1378.4 2818.15 1386.57L2819.64 1387.89C2812.45 1396 2805.16 1404.08 2797.77 1412.13L2796.3 1410.78C2788.96 1418.77 2781.52 1426.74 2773.98 1434.67L2775.43 1436.05Z" stroke="url(#paint3_linear_730_18)" stroke-width="4" stroke-dasharray="32 32"/>
<path d="M2693.48 623.101H2674.51L2703.42 539.346H2726.24L2755.11 623.101H2736.14L2715.16 558.485H2714.5L2693.48 623.101ZM2692.3 590.179H2737.12V604.002H2692.3V590.179ZM2765.2 623.101V539.346H2798.24C2804.56 539.346 2809.96 540.477 2814.43 542.74C2818.93 544.976 2822.35 548.152 2824.7 552.269C2827.07 556.358 2828.26 561.17 2828.26 566.705C2828.26 572.267 2827.06 577.052 2824.66 581.06C2822.26 585.04 2818.78 588.094 2814.23 590.22C2809.7 592.347 2804.22 593.41 2797.79 593.41H2775.66V579.178H2794.93C2798.31 579.178 2801.12 578.715 2803.35 577.788C2805.59 576.861 2807.25 575.47 2808.34 573.616C2809.46 571.763 2810.02 569.459 2810.02 566.705C2810.02 563.924 2809.46 561.579 2808.34 559.671C2807.25 557.762 2805.57 556.317 2803.31 555.336C2801.07 554.327 2798.25 553.823 2794.85 553.823H2782.9V623.101H2765.2ZM2810.43 584.986L2831.24 623.101H2811.69L2791.33 584.986H2810.43ZM2837.58 553.946V539.346H2906.37V553.946H2880.73V623.101H2863.22V553.946H2837.58Z" fill="white"/>
<path d="M865.679 955.541V940.941H934.466V955.541H908.824V1024.7H891.32V955.541H865.679ZM945.794 1024.7V940.941H1002.23V955.541H963.502V975.498H999.327V990.098H963.502V1010.1H1002.39V1024.7H945.794ZM1090.21 970.263H1072.3C1071.97 967.946 1071.3 965.887 1070.29 964.088C1069.28 962.261 1067.99 960.707 1066.41 959.426C1064.82 958.144 1063 957.163 1060.93 956.481C1058.88 955.8 1056.66 955.459 1054.26 955.459C1049.93 955.459 1046.15 956.536 1042.93 958.69C1039.71 960.816 1037.22 963.924 1035.45 968.014C1033.68 972.076 1032.79 977.011 1032.79 982.818C1032.79 988.789 1033.68 993.806 1035.45 997.868C1037.25 1001.93 1039.76 1005 1042.97 1007.07C1046.19 1009.14 1049.91 1010.18 1054.14 1010.18C1056.51 1010.18 1058.7 1009.86 1060.72 1009.24C1062.77 1008.61 1064.58 1007.7 1066.16 1006.5C1067.74 1005.27 1069.05 1003.78 1070.09 1002.04C1071.15 1000.29 1071.89 998.304 1072.3 996.069L1090.21 996.15C1089.74 999.995 1088.59 1003.7 1086.73 1007.27C1084.9 1010.82 1082.44 1013.99 1079.33 1016.8C1076.25 1019.58 1072.57 1021.79 1068.29 1023.43C1064.03 1025.04 1059.22 1025.84 1053.85 1025.84C1046.38 1025.84 1039.7 1024.15 1033.81 1020.77C1027.95 1017.39 1023.32 1012.5 1019.91 1006.09C1016.53 999.681 1014.84 991.925 1014.84 982.818C1014.84 973.685 1016.55 965.915 1019.99 959.508C1023.42 953.101 1028.09 948.22 1033.98 944.867C1039.86 941.486 1046.49 939.796 1053.85 939.796C1058.7 939.796 1063.2 940.477 1067.35 941.841C1071.52 943.204 1075.21 945.194 1078.43 947.811C1081.65 950.401 1084.26 953.578 1086.28 957.34C1088.33 961.103 1089.64 965.41 1090.21 970.263ZM1102.91 1024.7V940.941H1120.61V975.498H1156.56V940.941H1174.23V1024.7H1156.56V990.098H1120.61V1024.7H1102.91Z" fill="white"/>
<path d="M3056.56 1024.7H3026.87V940.941H3056.8C3065.23 940.941 3072.48 942.618 3078.56 945.971C3084.64 949.297 3089.31 954.082 3092.59 960.326C3095.89 966.569 3097.54 974.039 3097.54 982.737C3097.54 991.461 3095.89 998.959 3092.59 1005.23C3089.31 1011.5 3084.61 1016.31 3078.48 1019.67C3072.37 1023.02 3065.06 1024.7 3056.56 1024.7ZM3044.57 1009.52H3055.82C3061.06 1009.52 3065.46 1008.6 3069.03 1006.74C3072.63 1004.86 3075.33 1001.96 3077.13 998.032C3078.95 994.078 3079.87 988.98 3079.87 982.737C3079.87 976.548 3078.95 971.49 3077.13 967.564C3075.33 963.638 3072.64 960.748 3069.07 958.894C3065.5 957.04 3061.1 956.113 3055.86 956.113H3044.57V1009.52ZM3110.65 1024.7V940.941H3167.09V955.541H3128.36V975.498H3164.19V990.098H3128.36V1010.1H3167.25V1024.7H3110.65ZM3226.6 965.029C3226.28 961.73 3224.87 959.167 3222.39 957.34C3219.91 955.513 3216.54 954.6 3212.29 954.6C3209.4 954.6 3206.96 955.009 3204.97 955.827C3202.98 956.618 3201.45 957.722 3200.39 959.14C3199.35 960.557 3198.83 962.166 3198.83 963.965C3198.78 965.465 3199.09 966.773 3199.77 967.891C3200.48 969.009 3201.45 969.977 3202.68 970.795C3203.91 971.586 3205.32 972.281 3206.93 972.881C3208.54 973.453 3210.26 973.944 3212.08 974.353L3219.61 976.152C3223.26 976.97 3226.62 978.061 3229.67 979.424C3232.72 980.787 3235.37 982.464 3237.6 984.454C3239.84 986.444 3241.57 988.789 3242.8 991.488C3244.05 994.187 3244.69 997.282 3244.72 1000.77C3244.69 1005.9 3243.38 1010.34 3240.79 1014.1C3238.23 1017.84 3234.52 1020.74 3229.67 1022.81C3224.84 1024.86 3219.02 1025.88 3212.21 1025.88C3205.45 1025.88 3199.56 1024.85 3194.54 1022.77C3189.55 1020.7 3185.65 1017.63 3182.84 1013.57C3180.06 1009.48 3178.6 1004.43 3178.47 998.4H3195.6C3195.79 1001.21 3196.6 1003.55 3198.02 1005.43C3199.46 1007.29 3201.38 1008.69 3203.78 1009.65C3206.21 1010.57 3208.95 1011.04 3212 1011.04C3215 1011.04 3217.61 1010.6 3219.81 1009.73C3222.05 1008.86 3223.78 1007.64 3225.01 1006.09C3226.23 1004.53 3226.85 1002.75 3226.85 1000.73C3226.85 998.85 3226.29 997.268 3225.17 995.987C3224.08 994.705 3222.47 993.615 3220.35 992.715C3218.25 991.815 3215.67 990.998 3212.62 990.261L3203.5 987.971C3196.44 986.254 3190.86 983.568 3186.77 979.915C3182.68 976.261 3180.65 971.34 3180.68 965.151C3180.65 960.08 3182 955.65 3184.73 951.86C3187.48 948.07 3191.25 945.112 3196.05 942.986C3200.85 940.859 3206.3 939.796 3212.41 939.796C3218.63 939.796 3224.05 940.859 3228.69 942.986C3233.35 945.112 3236.98 948.07 3239.57 951.86C3242.16 955.65 3243.49 960.039 3243.57 965.029H3226.6ZM3274.34 940.941V1024.7H3256.63V940.941H3274.34ZM3344.44 968.014C3343.87 966.024 3343.07 964.265 3342.03 962.738C3341 961.184 3339.73 959.876 3338.23 958.812C3336.76 957.722 3335.07 956.89 3333.16 956.318C3331.28 955.745 3329.19 955.459 3326.9 955.459C3322.62 955.459 3318.86 956.522 3315.61 958.649C3312.4 960.775 3309.89 963.87 3308.09 967.932C3306.29 971.967 3305.39 976.902 3305.39 982.737C3305.39 988.571 3306.27 993.533 3308.05 997.623C3309.82 1001.71 3312.33 1004.83 3315.57 1006.99C3318.82 1009.11 3322.65 1010.18 3327.06 1010.18C3331.07 1010.18 3334.49 1009.47 3337.33 1008.05C3340.19 1006.61 3342.37 1004.57 3343.87 1001.96C3345.4 999.34 3346.16 996.246 3346.16 992.674L3349.76 993.206H3328.17V979.874H3363.22V990.425C3363.22 997.786 3361.66 1004.11 3358.55 1009.4C3355.45 1014.66 3351.16 1018.72 3345.71 1021.59C3340.26 1024.42 3334.02 1025.84 3326.98 1025.84C3319.13 1025.84 3312.23 1024.11 3306.29 1020.65C3300.34 1017.16 3295.71 1012.21 3292.38 1005.8C3289.08 999.368 3287.44 991.734 3287.44 982.9C3287.44 976.111 3288.42 970.059 3290.38 964.742C3292.37 959.399 3295.15 954.873 3298.72 951.165C3302.29 947.457 3306.45 944.635 3311.2 942.699C3315.94 940.764 3321.08 939.796 3326.61 939.796C3331.36 939.796 3335.77 940.491 3339.86 941.881C3343.95 943.245 3347.58 945.18 3350.74 947.689C3353.93 950.197 3356.54 953.182 3358.55 956.645C3360.57 960.08 3361.87 963.87 3362.44 968.014H3344.44ZM3446.57 940.941V1024.7H3431.28L3394.84 971.981H3394.22V1024.7H3376.52V940.941H3392.06L3428.21 993.615H3428.95V940.941H3446.57Z" fill="white"/>
<path d="M1424.77 539.346H1446.61L1469.68 595.619H1470.66L1493.72 539.346H1515.56V623.101H1498.39V568.586H1497.69L1476.02 622.692H1464.32L1442.64 568.382H1441.95V623.101H1424.77V539.346ZM1581.89 539.346H1599.59V593.737C1599.59 599.844 1598.13 605.188 1595.22 609.769C1592.33 614.349 1588.28 617.92 1583.07 620.483C1577.86 623.019 1571.8 624.287 1564.87 624.287C1557.92 624.287 1551.84 623.019 1546.63 620.483C1541.43 617.92 1537.38 614.349 1534.49 609.769C1531.6 605.188 1530.15 599.844 1530.15 593.737V539.346H1547.86V592.224C1547.86 595.414 1548.56 598.249 1549.95 600.73C1551.36 603.212 1553.35 605.161 1555.92 606.579C1558.48 607.996 1561.46 608.705 1564.87 608.705C1568.31 608.705 1571.29 607.996 1573.83 606.579C1576.39 605.161 1578.37 603.212 1579.76 600.73C1581.18 598.249 1581.89 595.414 1581.89 592.224V539.346ZM1659.6 563.433C1659.27 560.134 1657.87 557.572 1655.39 555.745C1652.9 553.918 1649.54 553.005 1645.28 553.005C1642.39 553.005 1639.95 553.414 1637.96 554.232C1635.97 555.022 1634.45 556.127 1633.38 557.544C1632.35 558.962 1631.83 560.571 1631.83 562.37C1631.78 563.87 1632.09 565.178 1632.77 566.296C1633.48 567.414 1634.45 568.382 1635.67 569.2C1636.9 569.99 1638.32 570.686 1639.93 571.285C1641.54 571.858 1643.25 572.349 1645.08 572.758L1652.6 574.557C1656.26 575.375 1659.61 576.466 1662.67 577.829C1665.72 579.192 1668.36 580.869 1670.6 582.859C1672.83 584.849 1674.57 587.194 1675.79 589.893C1677.05 592.592 1677.69 595.687 1677.71 599.176C1677.69 604.302 1676.38 608.746 1673.79 612.509C1671.23 616.244 1667.52 619.147 1662.67 621.219C1657.84 623.264 1652.02 624.287 1645.2 624.287C1638.44 624.287 1632.55 623.251 1627.54 621.178C1622.55 619.106 1618.65 616.039 1615.84 611.977C1613.06 607.887 1611.6 602.83 1611.46 596.804H1628.6C1628.79 599.613 1629.59 601.957 1631.01 603.839C1632.46 605.693 1634.38 607.097 1636.78 608.051C1639.2 608.978 1641.94 609.441 1645 609.441C1648 609.441 1650.6 609.005 1652.81 608.133C1655.04 607.26 1656.78 606.047 1658 604.493C1659.23 602.939 1659.84 601.153 1659.84 599.136C1659.84 597.254 1659.28 595.673 1658.17 594.392C1657.08 593.11 1655.47 592.02 1653.34 591.12C1651.24 590.22 1648.67 589.402 1645.61 588.666L1636.49 586.376C1629.43 584.658 1623.85 581.973 1619.77 578.32C1615.68 574.666 1613.64 569.745 1613.67 563.556C1613.64 558.485 1614.99 554.055 1617.72 550.265C1620.47 546.475 1624.25 543.517 1629.05 541.39C1633.85 539.264 1639.3 538.201 1645.41 538.201C1651.62 538.201 1657.05 539.264 1661.68 541.39C1666.35 543.517 1669.97 546.475 1672.56 550.265C1675.15 554.055 1676.49 558.444 1676.57 563.433H1659.6ZM1707.33 539.346V623.101H1689.63V539.346H1707.33ZM1795.8 568.668H1777.89C1777.56 566.351 1776.89 564.292 1775.89 562.493C1774.88 560.666 1773.58 559.112 1772 557.831C1770.42 556.549 1768.59 555.568 1766.52 554.886C1764.48 554.205 1762.25 553.864 1759.85 553.864C1755.52 553.864 1751.74 554.941 1748.53 557.095C1745.31 559.221 1742.81 562.329 1741.04 566.419C1739.27 570.481 1738.38 575.416 1738.38 581.223C1738.38 587.194 1739.27 592.211 1741.04 596.273C1742.84 600.335 1745.35 603.402 1748.57 605.474C1751.78 607.546 1755.51 608.583 1759.73 608.583C1762.1 608.583 1764.3 608.269 1766.32 607.642C1768.36 607.015 1770.17 606.101 1771.76 604.902C1773.34 603.675 1774.65 602.189 1775.68 600.444C1776.74 598.699 1777.48 596.709 1777.89 594.473L1795.8 594.555C1795.34 598.399 1794.18 602.107 1792.33 605.679C1790.5 609.223 1788.03 612.399 1784.92 615.208C1781.84 617.989 1778.16 620.197 1773.88 621.833C1769.63 623.441 1764.82 624.246 1759.45 624.246C1751.98 624.246 1745.3 622.555 1739.41 619.175C1733.54 615.794 1728.91 610.9 1725.5 604.493C1722.12 598.086 1720.43 590.329 1720.43 581.223C1720.43 572.09 1722.15 564.319 1725.58 557.912C1729.02 551.505 1733.68 546.625 1739.57 543.272C1745.46 539.891 1752.08 538.201 1759.45 538.201C1764.3 538.201 1768.8 538.882 1772.94 540.245C1777.11 541.609 1780.81 543.599 1784.02 546.216C1787.24 548.806 1789.86 551.983 1791.88 555.745C1793.92 559.507 1795.23 563.815 1795.8 568.668Z" fill="white"/>
<defs>
<linearGradient id="paint0_linear_730_18" x1="818.755" y1="770.793" x2="2244.17" y2="2196.21" gradientUnits="userSpaceOnUse">
<stop stop-color="#CA1AD5"/>
<stop offset="1" stop-color="#21FFAF"/>
</linearGradient>
<linearGradient id="paint1_linear_730_18" x1="3533.24" y1="770.792" x2="2107.82" y2="2196.21" gradientUnits="userSpaceOnUse">
<stop stop-color="#CA1AD5"/>
<stop offset="1" stop-color="#21FFAF"/>
</linearGradient>
<linearGradient id="paint2_linear_730_18" x1="1277.3" y1="379.219" x2="2702.72" y2="1804.64" gradientUnits="userSpaceOnUse">
<stop stop-color="#CA1AD5"/>
<stop offset="1" stop-color="#21FFAF"/>
</linearGradient>
<linearGradient id="paint3_linear_730_18" x1="3074.7" y1="379.219" x2="1649.28" y2="1804.64" gradientUnits="userSpaceOnUse">
<stop stop-color="#CA1AD5"/>
<stop offset="1" stop-color="#21FFAF"/>
</linearGradient>
</defs>
</svg>
