<svg width="4577" height="2833" viewBox="0 0 4577 2833" fill="none" xmlns="http://www.w3.org/2000/svg">
<path d="M1697.1 1530.75V1362.75H1767.18C1777.1 1362.75 1785.82 1364.51 1793.34 1368.03C1800.86 1371.55 1806.74 1376.47 1810.98 1382.79C1815.22 1389.11 1817.34 1396.51 1817.34 1404.99V1406.91C1817.34 1414.75 1815.86 1421.19 1812.9 1426.23C1809.94 1431.27 1806.34 1435.19 1802.1 1437.99C1797.86 1440.79 1793.74 1442.83 1789.74 1444.11V1447.47C1793.74 1448.43 1797.9 1450.31 1802.22 1453.11C1806.54 1455.91 1810.18 1459.87 1813.14 1464.99C1816.1 1470.11 1817.58 1476.59 1817.58 1484.43V1486.83C1817.58 1495.95 1815.38 1503.83 1810.98 1510.47C1806.58 1517.11 1800.58 1522.15 1792.98 1525.59C1785.38 1529.03 1776.78 1530.75 1767.18 1530.75H1697.1ZM1717.98 1436.67H1765.26C1774.86 1436.67 1782.5 1434.27 1788.18 1429.47C1793.86 1424.67 1796.7 1418.27 1796.7 1410.27V1407.87C1796.7 1399.87 1793.9 1393.47 1788.3 1388.67C1782.7 1383.87 1775.02 1381.47 1765.26 1381.47H1717.98V1436.67ZM1717.98 1512.03H1764.78C1775.18 1512.03 1783.14 1509.59 1788.66 1504.71C1794.18 1499.83 1796.94 1493.15 1796.94 1484.67V1482.75C1796.94 1474.27 1794.18 1467.59 1788.66 1462.71C1783.14 1457.83 1775.18 1455.39 1764.78 1455.39H1717.98V1512.03Z" fill="white"/>
<path d="M1837.16 1530.75V1362.75H1940.84V1381.47H1858.04V1436.91H1934.12V1455.63H1858.04V1512.03H1942.04V1530.75H1837.16Z" fill="white"/>
<path d="M1959.13 1530.75V1362.75H1999.45L2056.57 1517.55H2059.93V1362.75H2080.33V1530.75H2040.25L1983.13 1375.71H1979.77V1530.75H1959.13Z" fill="white"/>
<path d="M2150.95 1534.11C2134.47 1534.11 2121.43 1529.47 2111.83 1520.19C2102.23 1510.91 2097.43 1497.63 2097.43 1480.35V1467.15H2118.07V1480.35C2118.07 1490.75 2120.79 1499.19 2126.23 1505.67C2131.67 1512.15 2139.83 1515.39 2150.71 1515.39C2161.59 1515.39 2169.55 1512.15 2174.11 1505.67C2178.67 1499.19 2180.95 1490.75 2180.95 1480.35V1362.75H2201.83V1480.35C2201.83 1497.79 2197.51 1511.11 2188.87 1520.31C2180.23 1529.51 2167.59 1534.11 2150.95 1534.11Z" fill="white"/>
<path d="M2211 1530.75L2262.36 1362.75H2298.84L2350.2 1530.75H2328.84L2316.12 1488.51H2245.08L2232.36 1530.75H2211ZM2250.36 1469.79H2310.84L2282.28 1375.47H2278.92L2250.36 1469.79Z" fill="white"/>
<path d="M2365.44 1530.75V1362.75H2405.04L2448.72 1517.55H2452.08L2495.76 1362.75H2535.12V1530.75H2515.2V1376.43H2511.84L2468.16 1530.75H2432.64L2388.96 1376.43H2385.6V1530.75H2365.44Z" fill="white"/>
<path d="M2559.65 1530.75V1362.75H2580.53V1530.75H2559.65Z" fill="white"/>
<path d="M2604.81 1530.75V1362.75H2645.13L2702.25 1517.55H2705.61V1362.75H2726.01V1530.75H2685.93L2628.81 1375.71H2625.45V1530.75H2604.81Z" fill="white"/>
<path d="M1697.1 1728.4V1560.4H1800.78V1579.12H1717.98V1634.56H1794.06V1653.28H1717.98V1709.68H1801.98V1728.4H1697.1Z" fill="white"/>
<path d="M1816.59 1728.4V1701.04L1909.71 1582V1579.12H1819.23V1560.4H1930.11V1587.76L1836.99 1706.8V1709.68H1932.03V1728.4H1816.59Z" fill="white"/>
<path d="M1949.82 1728.4V1560.4H2053.5V1579.12H1970.7V1634.56H2046.78V1653.28H1970.7V1709.68H2054.7V1728.4H1949.82Z" fill="white"/>
<path d="M2132.05 1731.76C2111.89 1731.76 2095.81 1725.96 2083.81 1714.36C2071.81 1702.76 2065.81 1685.92 2065.81 1663.84V1624.96C2065.81 1602.88 2071.81 1586.04 2083.81 1574.44C2095.81 1562.84 2111.89 1557.04 2132.05 1557.04C2152.21 1557.04 2168.25 1562.84 2180.17 1574.44C2192.09 1586.04 2198.05 1602.88 2198.05 1624.96V1663.84C2198.05 1685.92 2192.09 1702.76 2180.17 1714.36C2168.25 1725.96 2152.21 1731.76 2132.05 1731.76ZM2132.05 1713.04C2146.45 1713.04 2157.61 1708.76 2165.53 1700.2C2173.45 1691.64 2177.41 1679.68 2177.41 1664.32V1624.48C2177.41 1609.12 2173.45 1597.16 2165.53 1588.6C2157.61 1580.04 2146.45 1575.76 2132.05 1575.76C2117.65 1575.76 2106.49 1580.04 2098.57 1588.6C2090.65 1597.16 2086.69 1609.12 2086.69 1624.48V1664.32C2086.69 1679.68 2090.65 1691.64 2098.57 1700.2C2106.49 1708.76 2117.65 1713.04 2132.05 1713.04ZM2205.71 1727.34L2191.12 1741.93L2136.82 1687.63L2151.41 1673.04L2205.71 1727.34Z" fill="white"/>
<path d="M2279.81 1731.76C2267.33 1731.76 2256.41 1729.52 2247.05 1725.04C2237.69 1720.56 2230.45 1713.88 2225.33 1705C2220.21 1696.12 2217.65 1685.12 2217.65 1672V1560.4H2238.29V1672.48C2238.29 1685.92 2241.93 1696.04 2249.21 1702.84C2256.49 1709.64 2266.69 1713.04 2279.81 1713.04C2292.93 1713.04 2303.33 1709.64 2310.53 1702.84C2317.73 1696.04 2321.33 1685.92 2321.33 1672.48V1560.4H2341.97V1672C2341.97 1685.12 2339.45 1696.12 2334.41 1705C2329.37 1713.88 2322.17 1720.56 2312.81 1725.04C2303.45 1729.52 2292.45 1731.76 2279.81 1731.76Z" fill="white"/>
<path d="M2366.11 1728.4V1560.4H2386.99V1728.4H2366.11Z" fill="white"/>
<path d="M2411.28 1728.4V1560.4H2514.96V1579.12H2432.16V1634.56H2508.24V1653.28H2432.16V1709.68H2516.16V1728.4H2411.28Z" fill="white"/>
<path d="M2533.25 1728.4V1560.4H2554.13V1709.68H2638.61V1728.4H2533.25Z" fill="white"/>
<path d="M2693.31 1608.27L2665.75 1612.91L2668.55 1609.07L2677.11 1583.5L2670.92 1584.39L2644.9 1624.45L2648.39 1629.77L2675.95 1625.13L2673.15 1628.97L2664.59 1654.55L2670.78 1653.65L2696.8 1613.59L2693.31 1608.27Z" fill="white"/>
<path d="M2670.88 1560.4C2665.8 1560.4 2660.71 1561.08 2655.76 1562.41C2624.72 1570.77 2606.24 1602.97 2614.56 1634.19C2621.37 1659.77 2644.51 1677.64 2670.82 1677.64C2675.9 1677.64 2680.99 1676.96 2685.94 1675.63C2716.98 1667.27 2735.46 1635.07 2727.14 1603.85C2720.33 1578.27 2697.2 1560.4 2670.88 1560.4ZM2626.96 1630.88C2620.46 1606.49 2634.88 1581.35 2659.1 1574.82C2662.96 1573.78 2666.92 1573.26 2670.87 1573.26C2691.38 1573.26 2709.41 1587.2 2714.73 1607.17C2721.23 1631.56 2706.81 1656.7 2682.59 1663.23C2678.74 1664.27 2674.77 1664.79 2670.82 1664.79C2650.32 1664.79 2632.28 1650.85 2626.96 1630.88Z" fill="white"/>
<path d="M834.553 172.071V4.07129H904.633C914.553 4.07129 923.273 5.83129 930.793 9.35129C938.313 12.8713 944.193 17.7913 948.433 24.1113C952.673 30.4313 954.793 37.8313 954.793 46.3113V48.2313C954.793 56.0713 953.313 62.5113 950.353 67.5513C947.393 72.5913 943.793 76.5113 939.553 79.3113C935.313 82.1113 931.193 84.1513 927.193 85.4313V88.7913C931.193 89.7513 935.353 91.6313 939.673 94.4313C943.993 97.2313 947.633 101.191 950.593 106.311C953.553 111.431 955.033 117.911 955.033 125.751V128.151C955.033 137.271 952.833 145.151 948.433 151.791C944.033 158.431 938.033 163.471 930.433 166.911C922.833 170.351 914.233 172.071 904.633 172.071H834.553ZM855.433 77.9913H902.713C912.313 77.9913 919.953 75.5913 925.633 70.7913C931.313 65.9913 934.153 59.5913 934.153 51.5913V49.1913C934.153 41.1913 931.353 34.7913 925.753 29.9913C920.153 25.1913 912.473 22.7913 902.713 22.7913H855.433V77.9913ZM855.433 153.351H902.233C912.633 153.351 920.593 150.911 926.113 146.031C931.633 141.151 934.393 134.471 934.393 125.991V124.071C934.393 115.591 931.633 108.911 926.113 104.031C920.593 99.1513 912.633 96.7113 902.233 96.7113H855.433V153.351Z" fill="white"/>
<path d="M974.612 172.071V4.07129H1078.29V22.7913H995.492V78.2313H1071.57V96.9513H995.492V153.351H1079.49V172.071H974.612Z" fill="white"/>
<path d="M1096.58 172.071V4.07129H1136.9L1194.02 158.871H1197.38V4.07129H1217.78V172.071H1177.7L1120.58 17.0313H1117.22V172.071H1096.58Z" fill="white"/>
<path d="M1288.4 175.431C1271.92 175.431 1258.88 170.791 1249.28 161.511C1239.68 152.231 1234.88 138.951 1234.88 121.671V108.471H1255.52V121.671C1255.52 132.071 1258.24 140.511 1263.68 146.991C1269.12 153.471 1277.28 156.711 1288.16 156.711C1299.04 156.711 1307 153.471 1311.56 146.991C1316.12 140.511 1318.4 132.071 1318.4 121.671V4.07129H1339.28V121.671C1339.28 139.111 1334.96 152.431 1326.32 161.631C1317.68 170.831 1305.04 175.431 1288.4 175.431Z" fill="white"/>
<path d="M1348.45 172.071L1399.81 4.07129H1436.29L1487.65 172.071H1466.29L1453.57 129.831H1382.53L1369.81 172.071H1348.45ZM1387.81 111.111H1448.29L1419.73 16.7913H1416.37L1387.81 111.111Z" fill="white"/>
<path d="M1502.89 172.071V4.07129H1542.49L1586.17 158.871H1589.53L1633.21 4.07129H1672.57V172.071H1652.65V17.7513H1649.29L1605.61 172.071H1570.09L1526.41 17.7513H1523.05V172.071H1502.89Z" fill="white"/>
<path d="M1697.1 172.071V4.07129H1717.98V172.071H1697.1Z" fill="white"/>
<path d="M1742.26 172.071V4.07129H1782.58L1839.7 158.871H1843.06V4.07129H1863.46V172.071H1823.38L1766.26 17.0313H1762.9V172.071H1742.26Z" fill="white"/>
<path d="M1933.22 172.062V4.06152H2036.9V22.7815H1954.1V78.2215H2030.18V96.9415H1954.1V153.342H2038.1V172.062H1933.22Z" fill="white"/>
<path d="M2052.71 172.062V144.702L2145.83 25.6615V22.7815H2055.35V4.06152H2166.23V31.4215L2073.11 150.462V153.342H2168.15V172.062H2052.71Z" fill="white"/>
<path d="M2185.94 172.062V4.06152H2289.62V22.7815H2206.82V78.2215H2282.9V96.9415H2206.82V153.342H2290.82V172.062H2185.94Z" fill="white"/>
<path d="M2368.17 175.422C2348.01 175.422 2331.93 169.622 2319.93 158.022C2307.93 146.422 2301.93 129.582 2301.93 107.502V68.6217C2301.93 46.5417 2307.93 29.7017 2319.93 18.1017C2331.93 6.50167 2348.01 0.70166 2368.17 0.70166C2388.33 0.70166 2404.37 6.50167 2416.29 18.1017C2428.21 29.7017 2434.17 46.5417 2434.17 68.6217V107.502C2434.17 129.582 2428.21 146.422 2416.29 158.022C2404.37 169.622 2388.33 175.422 2368.17 175.422ZM2368.17 156.702C2382.57 156.702 2393.73 152.422 2401.65 143.862C2409.57 135.302 2413.53 123.342 2413.53 107.982V68.1417C2413.53 52.7817 2409.57 40.8217 2401.65 32.2617C2393.73 23.7017 2382.57 19.4217 2368.17 19.4217C2353.77 19.4217 2342.61 23.7017 2334.69 32.2617C2326.77 40.8217 2322.81 52.7817 2322.81 68.1417V107.982C2322.81 123.342 2326.77 135.302 2334.69 143.862C2342.61 152.422 2353.77 156.702 2368.17 156.702ZM2441.83 171.002L2427.24 185.592L2372.94 131.292L2387.53 116.702L2441.83 171.002Z" fill="white"/>
<path d="M2515.93 175.422C2503.45 175.422 2492.53 173.182 2483.17 168.702C2473.81 164.222 2466.57 157.542 2461.45 148.662C2456.33 139.782 2453.77 128.782 2453.77 115.662V4.06152H2474.41V116.142C2474.41 129.582 2478.05 139.702 2485.33 146.502C2492.61 153.302 2502.81 156.702 2515.93 156.702C2529.05 156.702 2539.45 153.302 2546.65 146.502C2553.85 139.702 2557.45 129.582 2557.45 116.142V4.06152H2578.09V115.662C2578.09 128.782 2575.57 139.782 2570.53 148.662C2565.49 157.542 2558.29 164.222 2548.93 168.702C2539.57 173.182 2528.57 175.422 2515.93 175.422Z" fill="white"/>
<path d="M2602.23 172.062V4.06152H2623.11V172.062H2602.23Z" fill="white"/>
<path d="M2647.4 172.062V4.06152H2751.08V22.7815H2668.28V78.2215H2744.36V96.9415H2668.28V153.342H2752.28V172.062H2647.4Z" fill="white"/>
<path d="M2769.37 172.062V4.06152H2790.25V153.342H2874.73V172.062H2769.37Z" fill="white"/>
<path d="M2929.43 51.9316L2901.87 56.5716L2904.67 52.7316L2913.23 27.1616L2907.04 28.0516L2881.02 68.1116L2884.51 73.4316L2912.07 68.7916L2909.27 72.6316L2900.71 98.2116L2906.9 97.3116L2932.92 57.2516L2929.43 51.9316Z" fill="white"/>
<path d="M2907 4.06152C2901.92 4.06152 2896.83 4.74153 2891.88 6.07153C2860.84 14.4315 2842.36 46.6315 2850.68 77.8515C2857.49 103.432 2880.63 121.302 2906.94 121.302C2912.02 121.302 2917.11 120.622 2922.06 119.292C2953.1 110.932 2971.58 78.7315 2963.26 47.5115C2956.45 21.9315 2933.32 4.06152 2907 4.06152ZM2863.08 74.5415C2856.58 50.1515 2871 25.0115 2895.22 18.4815C2899.08 17.4415 2903.04 16.9215 2906.99 16.9215C2927.5 16.9215 2945.53 30.8615 2950.85 50.8315C2957.35 75.2215 2942.93 100.362 2918.71 106.892C2914.86 107.932 2910.89 108.452 2906.94 108.452C2886.44 108.452 2868.4 94.5115 2863.08 74.5415Z" fill="white"/>
<path d="M2081.82 453.279V285.279H2151.9C2161.82 285.279 2170.54 287.039 2178.06 290.559C2185.58 294.079 2191.46 298.999 2195.7 305.319C2199.94 311.639 2202.06 319.039 2202.06 327.519V329.439C2202.06 337.279 2200.58 343.719 2197.62 348.759C2194.66 353.799 2191.06 357.719 2186.82 360.519C2182.58 363.319 2178.46 365.359 2174.46 366.639V369.999C2178.46 370.959 2182.62 372.839 2186.94 375.639C2191.26 378.439 2194.9 382.399 2197.86 387.519C2200.82 392.639 2202.3 399.119 2202.3 406.959V409.359C2202.3 418.479 2200.1 426.359 2195.7 432.999C2191.3 439.639 2185.3 444.679 2177.7 448.119C2170.1 451.559 2161.5 453.279 2151.9 453.279H2081.82ZM2102.7 359.199H2149.98C2159.58 359.199 2167.22 356.799 2172.9 351.999C2178.58 347.199 2181.42 340.799 2181.42 332.799V330.399C2181.42 322.399 2178.62 315.999 2173.02 311.199C2167.42 306.399 2159.74 303.999 2149.98 303.999H2102.7V359.199ZM2102.7 434.559H2149.5C2159.9 434.559 2167.86 432.119 2173.38 427.239C2178.9 422.359 2181.66 415.679 2181.66 407.199V405.279C2181.66 396.799 2178.9 390.119 2173.38 385.239C2167.86 380.359 2159.9 377.919 2149.5 377.919H2102.7V434.559Z" fill="white"/>
<path d="M2221.88 453.279V285.279H2325.56V303.999H2242.76V359.439H2318.84V378.159H2242.76V434.559H2326.76V453.279H2221.88Z" fill="white"/>
<path d="M2343.85 453.279V285.279H2384.17L2441.29 440.079H2444.65V285.279H2465.05V453.279H2424.97L2367.85 298.239H2364.49V453.279H2343.85Z" fill="white"/>
<path d="M2535.67 456.639C2519.19 456.639 2506.15 451.999 2496.55 442.719C2486.95 433.439 2482.15 420.159 2482.15 402.879V389.679H2502.79V402.879C2502.79 413.279 2505.51 421.719 2510.95 428.199C2516.39 434.679 2524.55 437.919 2535.43 437.919C2546.31 437.919 2554.27 434.679 2558.83 428.199C2563.39 421.719 2565.67 413.279 2565.67 402.879V285.279H2586.55V402.879C2586.55 420.319 2582.23 433.639 2573.59 442.839C2564.95 452.039 2552.31 456.639 2535.67 456.639Z" fill="white"/>
<path d="M2595.72 453.279L2647.08 285.279H2683.56L2734.92 453.279H2713.56L2700.84 411.039H2629.8L2617.08 453.279H2595.72ZM2635.08 392.319H2695.56L2667 297.999H2663.64L2635.08 392.319Z" fill="white"/>
<path d="M2750.16 453.279V285.279H2789.76L2833.44 440.079H2836.8L2880.48 285.279H2919.84V453.279H2899.92V298.959H2896.56L2852.88 453.279H2817.36L2773.68 298.959H2770.32V453.279H2750.16Z" fill="white"/>
<path d="M2944.37 453.279V285.279H2965.25V453.279H2944.37Z" fill="white"/>
<path d="M2989.53 453.279V285.279H3029.85L3086.97 440.079H3090.33V285.279H3110.73V453.279H3070.65L3013.53 298.239H3010.17V453.279H2989.53Z" fill="white"/>
<path d="M3215.75 333.46L3188.19 338.1L3190.99 334.26L3199.55 308.69L3193.36 309.58L3167.34 349.64L3170.83 354.96L3198.39 350.32L3195.59 354.16L3187.03 379.74L3193.22 378.84L3219.24 338.78L3215.75 333.46Z" fill="white"/>
<path d="M3193.32 285.59C3188.24 285.59 3183.15 286.27 3178.2 287.6C3147.16 295.96 3128.68 328.16 3137 359.38C3143.81 384.96 3166.95 402.83 3193.26 402.83C3198.34 402.83 3203.43 402.15 3208.38 400.82C3239.42 392.46 3257.9 360.26 3249.58 329.04C3242.77 303.46 3219.64 285.59 3193.32 285.59ZM3149.4 356.07C3142.9 331.68 3157.32 306.54 3181.54 300.01C3185.4 298.97 3189.36 298.45 3193.31 298.45C3213.82 298.45 3231.85 312.39 3237.17 332.36C3243.67 356.75 3229.25 381.89 3205.03 388.42C3201.18 389.46 3197.21 389.98 3193.26 389.98C3172.76 389.98 3154.72 376.04 3149.4 356.07Z" fill="white"/>
<path d="M2697.44 724.326V556.326H2800.88V574.566H2717.6V630.726H2794.16V648.966H2717.6V706.086H2802.08V724.326H2697.44Z" fill="white"/>
<path d="M2821.48 724.326V697.686L2915.08 577.206V574.326H2824.36V556.326H2935V582.966L2841.4 703.446V706.326H2936.92V724.326H2821.48Z" fill="white"/>
<path d="M2958.19 724.326V556.326H3028.03C3037.79 556.326 3046.43 558.086 3053.95 561.606C3061.47 565.126 3067.31 570.086 3071.47 576.486C3075.79 582.726 3077.95 590.086 3077.95 598.566V600.486C3077.95 608.326 3076.43 614.806 3073.39 619.926C3070.51 624.886 3066.91 628.806 3062.59 631.686C3058.43 634.406 3054.35 636.406 3050.35 637.686V641.046C3054.35 642.006 3058.51 643.926 3062.83 646.806C3067.15 649.526 3070.75 653.446 3073.63 658.566C3076.67 663.686 3078.19 670.166 3078.19 678.006V680.406C3078.19 689.526 3076.03 697.446 3071.71 704.166C3067.39 710.726 3061.39 715.766 3053.71 719.286C3046.19 722.646 3037.55 724.326 3027.79 724.326H2958.19ZM2978.35 706.086H3025.63C3036.19 706.086 3044.27 703.606 3049.87 698.646C3055.47 693.686 3058.27 686.966 3058.27 678.486V676.326C3058.27 667.846 3055.47 661.126 3049.87 656.166C3044.27 651.206 3036.19 648.726 3025.63 648.726H2978.35V706.086ZM2978.35 630.486H3026.11C3035.87 630.486 3043.63 628.086 3049.39 623.286C3055.15 618.326 3058.03 611.846 3058.03 603.846V601.446C3058.03 593.286 3055.15 586.806 3049.39 582.006C3043.63 577.046 3035.87 574.566 3026.11 574.566H2978.35V630.486Z" fill="white"/>
<path d="M3100.3 724.326V556.326H3203.74V574.566H3120.46V630.726H3197.02V648.966H3120.46V706.086H3204.94V724.326H3100.3Z" fill="white"/>
<path d="M3228.54 724.326V556.326H3267.66L3326.22 711.606H3329.34V556.326H3349.26V724.326H3310.14L3251.82 568.806H3248.46V724.326H3228.54Z" fill="white"/>
<path d="M3450.9 603.69L3423.47 608.281L3426.26 604.481L3434.78 579.182L3428.62 580.062L3402.73 619.699L3406.2 624.962L3433.62 620.371L3430.84 624.171L3422.32 649.48L3428.48 648.59L3454.37 608.953L3450.9 603.69Z" fill="white"/>
<path d="M3428.58 556.326C3423.52 556.326 3418.46 556.999 3413.53 558.314C3382.64 566.586 3364.25 598.445 3372.53 629.335C3379.31 654.645 3402.34 672.326 3428.52 672.326C3433.57 672.326 3438.64 671.653 3443.57 670.337C3474.45 662.065 3492.84 630.206 3484.56 599.316C3477.79 574.007 3454.77 556.326 3428.58 556.326V556.326ZM3384.87 626.06C3378.4 601.928 3392.75 577.054 3416.86 570.593C3420.7 569.564 3424.64 569.05 3428.57 569.05C3448.98 569.05 3466.92 582.842 3472.21 602.601C3478.68 626.733 3464.33 651.607 3440.23 658.068C3436.4 659.097 3432.45 659.612 3428.52 659.612C3408.12 659.612 3390.17 645.819 3384.87 626.06Z" fill="white"/>
<path d="M3405.57 2294.19L3456.93 2126.19H3493.41L3544.77 2294.19H3523.41L3510.69 2251.95H3439.65L3426.93 2294.19H3405.57ZM3444.93 2233.23H3505.41L3476.85 2138.91H3473.49L3444.93 2233.23V2233.23Z" fill="white"/>
<path d="M2882.46 2294.19V2126.19H2952.54C2962.46 2126.19 2971.18 2127.95 2978.7 2131.47C2986.22 2134.99 2992.1 2139.91 2996.34 2146.23C3000.58 2152.55 3002.7 2159.95 3002.7 2168.43V2170.35C3002.7 2178.19 3001.22 2184.63 2998.26 2189.67C2995.3 2194.71 2991.7 2198.63 2987.46 2201.43C2983.22 2204.23 2979.1 2206.27 2975.1 2207.55V2210.91C2979.1 2211.87 2983.26 2213.75 2987.58 2216.55C2991.9 2219.35 2995.54 2223.31 2998.5 2228.43C3001.46 2233.55 3002.94 2240.03 3002.94 2247.87V2250.27C3002.94 2259.39 3000.74 2267.27 2996.34 2273.91C2991.94 2280.55 2985.94 2285.59 2978.34 2289.03C2970.74 2292.47 2962.14 2294.19 2952.54 2294.19H2882.46ZM2903.34 2200.11H2950.62C2960.22 2200.11 2967.86 2197.71 2973.54 2192.91C2979.22 2188.11 2982.06 2181.71 2982.06 2173.71V2171.31C2982.06 2163.31 2979.26 2156.91 2973.66 2152.11C2968.06 2147.31 2960.38 2144.91 2950.62 2144.91H2903.34V2200.11ZM2903.34 2275.47H2950.14C2960.54 2275.47 2968.5 2273.03 2974.02 2268.15C2979.54 2263.27 2982.3 2256.59 2982.3 2248.11V2246.19C2982.3 2237.71 2979.54 2231.03 2974.02 2226.15C2968.5 2221.27 2960.54 2218.83 2950.14 2218.83H2903.34V2275.47V2275.47Z" fill="white"/>
<path d="M3022.52 2294.19V2126.19H3126.2V2144.91H3043.4V2200.35H3119.48V2219.07H3043.4V2275.47H3127.4V2294.19H3022.52Z" fill="white"/>
<path d="M3144.49 2294.19V2126.19H3184.81L3241.93 2280.99H3245.29V2126.19H3265.69V2294.19H3225.61L3168.49 2139.15H3165.13V2294.19H3144.49Z" fill="white"/>
<path d="M3342.89 2297.55C3326.41 2297.55 3313.37 2292.91 3303.77 2283.63C3294.17 2274.35 3289.37 2261.07 3289.37 2243.79V2230.59H3310.01V2243.79C3310.01 2254.19 3312.73 2262.63 3318.17 2269.11C3323.61 2275.59 3331.77 2278.83 3342.65 2278.83C3353.53 2278.83 3361.49 2275.59 3366.05 2269.11C3370.61 2262.63 3372.89 2254.19 3372.89 2243.79V2126.19H3393.77V2243.79C3393.77 2261.23 3389.45 2274.55 3380.81 2283.75C3372.17 2292.95 3359.53 2297.55 3342.89 2297.55Z" fill="white"/>
<path d="M3629.91 2174.37L3602.35 2179.01L3605.15 2175.17L3613.71 2149.6L3607.52 2150.49L3581.5 2190.55L3584.99 2195.87L3612.55 2191.23L3609.75 2195.07L3601.19 2220.65L3607.38 2219.75L3633.4 2179.69L3629.91 2174.37Z" fill="white"/>
<path d="M3607.48 2126.5C3602.4 2126.5 3597.31 2127.18 3592.36 2128.51C3561.32 2136.87 3542.84 2169.07 3551.16 2200.29C3557.97 2225.87 3581.11 2243.74 3607.42 2243.74C3612.5 2243.74 3617.59 2243.06 3622.54 2241.73C3653.58 2233.37 3672.06 2201.17 3663.74 2169.95C3656.93 2144.37 3633.8 2126.5 3607.48 2126.5V2126.5ZM3563.56 2196.98C3557.06 2172.59 3571.48 2147.45 3595.7 2140.92C3599.56 2139.88 3603.52 2139.36 3607.47 2139.36C3627.98 2139.36 3646.01 2153.3 3651.33 2173.27C3657.83 2197.66 3643.41 2222.8 3619.19 2229.33C3615.34 2230.37 3611.37 2230.89 3607.42 2230.89C3586.92 2230.89 3568.88 2216.95 3563.56 2196.98Z" fill="white"/>
<path d="M2769.37 992.013V824.013H2839.45C2849.37 824.013 2858.09 825.773 2865.61 829.293C2873.13 832.813 2879.01 837.733 2883.25 844.053C2887.49 850.373 2889.61 857.773 2889.61 866.253V868.173C2889.61 876.013 2888.13 882.453 2885.17 887.493C2882.21 892.533 2878.61 896.453 2874.37 899.253C2870.13 902.053 2866.01 904.093 2862.01 905.373V908.733C2866.01 909.693 2870.17 911.573 2874.49 914.373C2878.81 917.173 2882.45 921.133 2885.41 926.253C2888.37 931.373 2889.85 937.853 2889.85 945.693V948.093C2889.85 957.213 2887.65 965.093 2883.25 971.733C2878.85 978.373 2872.85 983.413 2865.25 986.853C2857.65 990.293 2849.05 992.013 2839.45 992.013H2769.37ZM2790.25 897.933H2837.53C2847.13 897.933 2854.77 895.533 2860.45 890.733C2866.13 885.933 2868.97 879.533 2868.97 871.533V869.133C2868.97 861.133 2866.17 854.733 2860.57 849.933C2854.97 845.133 2847.29 842.733 2837.53 842.733H2790.25V897.933ZM2790.25 973.293H2837.05C2847.45 973.293 2855.41 970.853 2860.93 965.973C2866.45 961.093 2869.21 954.413 2869.21 945.933V944.013C2869.21 935.533 2866.45 928.853 2860.93 923.973C2855.41 919.093 2847.45 916.653 2837.05 916.653H2790.25V973.293V973.293Z" fill="white"/>
<path d="M2909.43 992.013V824.013H3013.11V842.733H2930.31V898.173H3006.39V916.893H2930.31V973.293H3014.31V992.013H2909.43Z" fill="white"/>
<path d="M3031.4 992.013V824.013H3071.72L3128.84 978.813H3132.2V824.013H3152.6V992.013H3112.52L3055.4 836.973H3052.04V992.013H3031.4Z" fill="white"/>
<path d="M3223.22 995.373C3206.74 995.373 3193.7 990.733 3184.1 981.453C3174.5 972.173 3169.7 958.893 3169.7 941.613V928.413H3190.34V941.613C3190.34 952.013 3193.06 960.453 3198.5 966.933C3203.94 973.413 3212.1 976.653 3222.98 976.653C3233.86 976.653 3241.82 973.413 3246.38 966.933C3250.94 960.453 3253.22 952.013 3253.22 941.613V824.013H3274.1V941.613C3274.1 959.053 3269.78 972.373 3261.14 981.573C3252.5 990.773 3239.86 995.373 3223.22 995.373Z" fill="white"/>
<path d="M3299.31 992.013V824.013H3320.19V992.013H3299.31Z" fill="white"/>
<path d="M3425.21 872.194L3397.65 876.834L3400.45 872.994L3409.01 847.424L3402.82 848.314L3376.8 888.374L3380.29 893.694L3407.85 889.054L3405.05 892.894L3396.49 918.474L3402.68 917.574L3428.7 877.514L3425.21 872.194Z" fill="white"/>
<path d="M3402.78 824.324C3397.7 824.324 3392.61 825.004 3387.66 826.334C3356.62 834.694 3338.14 866.894 3346.46 898.114C3353.27 923.694 3376.41 941.564 3402.72 941.564C3407.8 941.564 3412.89 940.884 3417.84 939.554C3448.88 931.194 3467.36 898.994 3459.04 867.774C3452.23 842.194 3429.1 824.324 3402.78 824.324V824.324ZM3358.86 894.804C3352.36 870.414 3366.78 845.274 3391 838.744C3394.86 837.704 3398.82 837.184 3402.77 837.184C3423.28 837.184 3441.31 851.124 3446.63 871.094C3453.13 895.484 3438.71 920.624 3414.49 927.154C3410.64 928.194 3406.67 928.714 3402.72 928.714C3382.22 928.714 3364.18 914.774 3358.86 894.804Z" fill="white"/>
<path d="M2553.67 1263.06V1095.06H2623.75C2633.67 1095.06 2642.39 1096.82 2649.91 1100.34C2657.43 1103.86 2663.31 1108.78 2667.55 1115.1C2671.79 1121.42 2673.91 1128.82 2673.91 1137.3V1139.22C2673.91 1147.06 2672.43 1153.5 2669.47 1158.54C2666.51 1163.58 2662.91 1167.5 2658.67 1170.3C2654.43 1173.1 2650.31 1175.14 2646.31 1176.42V1179.78C2650.31 1180.74 2654.47 1182.62 2658.79 1185.42C2663.11 1188.22 2666.75 1192.18 2669.71 1197.3C2672.67 1202.42 2674.15 1208.9 2674.15 1216.74V1219.14C2674.15 1228.26 2671.95 1236.14 2667.55 1242.78C2663.15 1249.42 2657.15 1254.46 2649.55 1257.9C2641.95 1261.34 2633.35 1263.06 2623.75 1263.06H2553.67ZM2574.55 1168.98H2621.83C2631.43 1168.98 2639.07 1166.58 2644.75 1161.78C2650.43 1156.98 2653.27 1150.58 2653.27 1142.58V1140.18C2653.27 1132.18 2650.47 1125.78 2644.87 1120.98C2639.27 1116.18 2631.59 1113.78 2621.83 1113.78H2574.55V1168.98ZM2574.55 1244.34H2621.35C2631.75 1244.34 2639.71 1241.9 2645.23 1237.02C2650.75 1232.14 2653.51 1225.46 2653.51 1216.98V1215.06C2653.51 1206.58 2650.75 1199.9 2645.23 1195.02C2639.71 1190.14 2631.75 1187.7 2621.35 1187.7H2574.55V1244.34Z" fill="white"/>
<path d="M2693.73 1263.06V1095.06H2797.41V1113.78H2714.61V1169.22H2790.69V1187.94H2714.61V1244.34H2798.61V1263.06H2693.73Z" fill="white"/>
<path d="M2815.7 1263.06V1095.06H2856.02L2913.14 1249.86H2916.5V1095.06H2936.9V1263.06H2896.82L2839.7 1108.02H2836.34V1263.06H2815.7Z" fill="white"/>
<path d="M3041.64 1143.24L3014.08 1147.88L3016.88 1144.04L3025.44 1118.47L3019.25 1119.36L2993.23 1159.42L2996.72 1164.74L3024.28 1160.1L3021.48 1163.94L3012.92 1189.52L3019.11 1188.62L3045.13 1148.56L3041.64 1143.24Z" fill="white"/>
<path d="M3019.21 1095.37C3014.13 1095.37 3009.04 1096.05 3004.09 1097.38C2973.05 1105.74 2954.57 1137.94 2962.89 1169.16C2969.7 1194.74 2992.84 1212.61 3019.15 1212.61C3024.23 1212.61 3029.32 1211.93 3034.27 1210.6C3065.31 1202.24 3083.79 1170.04 3075.47 1138.82C3068.66 1113.24 3045.53 1095.37 3019.21 1095.37ZM2975.29 1165.85C2968.79 1141.46 2983.21 1116.32 3007.43 1109.79C3011.29 1108.75 3015.25 1108.23 3019.2 1108.23C3039.71 1108.23 3057.74 1122.17 3063.06 1142.14C3069.56 1166.53 3055.14 1191.67 3030.92 1198.2C3027.07 1199.24 3023.1 1199.76 3019.15 1199.76C2998.65 1199.76 2980.61 1185.82 2975.29 1165.85Z" fill="white"/>
<path d="M3481.13 2565.24V2397.24H3551.21C3561.13 2397.24 3569.85 2399 3577.37 2402.52C3584.89 2406.04 3590.77 2410.96 3595.01 2417.28C3599.25 2423.6 3601.37 2431 3601.37 2439.48V2441.4C3601.37 2449.24 3599.89 2455.68 3596.93 2460.72C3593.97 2465.76 3590.37 2469.68 3586.13 2472.48C3581.89 2475.28 3577.77 2477.32 3573.77 2478.6V2481.96C3577.77 2482.92 3581.93 2484.8 3586.25 2487.6C3590.57 2490.4 3594.21 2494.36 3597.17 2499.48C3600.13 2504.6 3601.61 2511.08 3601.61 2518.92V2521.32C3601.61 2530.44 3599.41 2538.32 3595.01 2544.96C3590.61 2551.6 3584.61 2556.64 3577.01 2560.08C3569.41 2563.52 3560.81 2565.24 3551.21 2565.24H3481.13ZM3502.01 2471.16H3549.29C3558.89 2471.16 3566.53 2468.76 3572.21 2463.96C3577.89 2459.16 3580.73 2452.76 3580.73 2444.76V2442.36C3580.73 2434.36 3577.93 2427.96 3572.33 2423.16C3566.73 2418.36 3559.05 2415.96 3549.29 2415.96H3502.01V2471.16ZM3502.01 2546.52H3548.81C3559.21 2546.52 3567.17 2544.08 3572.69 2539.2C3578.21 2534.32 3580.97 2527.64 3580.97 2519.16V2517.24C3580.97 2508.76 3578.21 2502.08 3572.69 2497.2C3567.17 2492.32 3559.21 2489.88 3548.81 2489.88H3502.01V2546.52V2546.52Z" fill="white"/>
<path d="M3706.35 2445.42L3678.79 2450.06L3681.59 2446.22L3690.15 2420.65L3683.96 2421.54L3657.94 2461.6L3661.43 2466.92L3688.99 2462.28L3686.19 2466.12L3677.63 2491.7L3683.82 2490.8L3709.84 2450.74L3706.35 2445.42Z" fill="white"/>
<path d="M3683.92 2397.55C3678.84 2397.55 3673.75 2398.23 3668.8 2399.56C3637.76 2407.92 3619.28 2440.12 3627.6 2471.34C3634.41 2496.92 3657.55 2514.79 3683.86 2514.79C3688.94 2514.79 3694.03 2514.11 3698.98 2512.78C3730.02 2504.42 3748.5 2472.22 3740.18 2441C3733.37 2415.42 3710.24 2397.55 3683.92 2397.55V2397.55ZM3640 2468.03C3633.5 2443.64 3647.92 2418.5 3672.14 2411.97C3676 2410.93 3679.96 2410.41 3683.91 2410.41C3704.42 2410.41 3722.45 2424.35 3727.77 2444.32C3734.27 2468.71 3719.85 2493.85 3695.63 2500.38C3691.78 2501.42 3687.81 2501.94 3683.86 2501.94C3663.36 2501.94 3645.32 2488 3640 2468.03Z" fill="white"/>
<path d="M3490.13 2733.39L3450.71 2740.03L3454.72 2734.54L3466.96 2697.96L3458.11 2699.24L3420.89 2756.53L3425.88 2764.14L3465.3 2757.51L3461.29 2763L3449.05 2799.58L3457.9 2798.3L3495.12 2741L3490.13 2733.39Z" fill="white"/>
<path d="M3458.05 2664.93C3450.78 2664.93 3443.5 2665.9 3436.42 2667.8C3392.03 2679.76 3365.6 2725.81 3377.5 2770.46C3387.24 2807.05 3420.33 2832.61 3457.96 2832.61C3465.23 2832.61 3472.51 2831.64 3479.59 2829.73C3523.98 2817.78 3550.41 2771.72 3538.51 2727.07C3528.77 2690.48 3495.69 2664.93 3458.05 2664.93V2664.93ZM3395.23 2765.73C3385.93 2730.85 3406.56 2694.89 3441.2 2685.55C3446.72 2684.06 3452.38 2683.32 3458.03 2683.32C3487.37 2683.32 3513.16 2703.26 3520.76 2731.82C3530.06 2766.7 3509.44 2802.66 3474.8 2812C3469.29 2813.49 3463.61 2814.23 3457.96 2814.23C3428.64 2814.23 3402.84 2794.29 3395.23 2765.73Z" fill="white"/>
<path d="M2435.3 2012.97V1844.97H2538.98V1863.69H2456.18V1919.13H2532.26V1937.85H2456.18V1994.25H2540.18V2012.97H2435.3Z" fill="white"/>
<path d="M2554.79 2012.97V1985.61L2647.91 1866.57V1863.69H2557.43V1844.97H2668.31V1872.33L2575.19 1991.37V1994.25H2670.23V2012.97H2554.79Z" fill="white"/>
<path d="M2688.02 2012.97V1844.97H2791.7V1863.69H2708.9V1919.13H2784.98V1937.85H2708.9V1994.25H2792.9V2012.97H2688.02V2012.97Z" fill="white"/>
<path d="M2870.25 2016.33C2850.09 2016.33 2834.01 2010.53 2822.01 1998.93C2810.01 1987.33 2804.01 1970.49 2804.01 1948.41V1909.53C2804.01 1887.45 2810.01 1870.61 2822.01 1859.01C2834.01 1847.41 2850.09 1841.61 2870.25 1841.61C2890.41 1841.61 2906.45 1847.41 2918.37 1859.01C2930.29 1870.61 2936.25 1887.45 2936.25 1909.53V1948.41C2936.25 1970.49 2930.29 1987.33 2918.37 1998.93C2906.45 2010.53 2890.41 2016.33 2870.25 2016.33ZM2870.25 1997.61C2884.65 1997.61 2895.81 1993.33 2903.73 1984.77C2911.65 1976.21 2915.61 1964.25 2915.61 1948.89V1909.05C2915.61 1893.69 2911.65 1881.73 2903.73 1873.17C2895.81 1864.61 2884.65 1860.33 2870.25 1860.33C2855.85 1860.33 2844.69 1864.61 2836.77 1873.17C2828.85 1881.73 2824.89 1893.69 2824.89 1909.05V1948.89C2824.89 1964.25 2828.85 1976.21 2836.77 1984.77C2844.69 1993.33 2855.85 1997.61 2870.25 1997.61V1997.61ZM2943.91 2011.91L2929.32 2026.5L2875.02 1972.2L2889.61 1957.61L2943.91 2011.91Z" fill="white"/>
<path d="M3018.01 2016.33C3005.53 2016.33 2994.61 2014.09 2985.25 2009.61C2975.89 2005.13 2968.65 1998.45 2963.53 1989.57C2958.41 1980.69 2955.85 1969.69 2955.85 1956.57V1844.97H2976.49V1957.05C2976.49 1970.49 2980.13 1980.61 2987.41 1987.41C2994.69 1994.21 3004.89 1997.61 3018.01 1997.61C3031.13 1997.61 3041.53 1994.21 3048.73 1987.41C3055.93 1980.61 3059.53 1970.49 3059.53 1957.05V1844.97H3080.17V1956.57C3080.17 1969.69 3077.65 1980.69 3072.61 1989.57C3067.57 1998.45 3060.37 2005.13 3051.01 2009.61C3041.65 2014.09 3030.65 2016.33 3018.01 2016.33V2016.33Z" fill="white"/>
<path d="M3104.31 2012.97V1844.97H3125.19V2012.97H3104.31Z" fill="white"/>
<path d="M3149.48 2012.97V1844.97H3253.16V1863.69H3170.36V1919.13H3246.44V1937.85H3170.36V1994.25H3254.36V2012.97H3149.48Z" fill="white"/>
<path d="M3271.46 2012.97V1844.97H3292.34V1994.25H3376.82V2012.97H3271.46Z" fill="white"/>
<path d="M3431.51 1892.84L3403.95 1897.48L3406.75 1893.64L3415.31 1868.07L3409.12 1868.96L3383.1 1909.02L3386.59 1914.34L3414.15 1909.7L3411.35 1913.54L3402.79 1939.12L3408.98 1938.22L3435 1898.16L3431.51 1892.84Z" fill="white"/>
<path d="M3409.08 1844.97C3404 1844.97 3398.91 1845.65 3393.96 1846.98C3362.92 1855.34 3344.44 1887.54 3352.76 1918.76C3359.57 1944.34 3382.71 1962.21 3409.02 1962.21C3414.1 1962.21 3419.19 1961.53 3424.14 1960.2C3455.18 1951.84 3473.66 1919.64 3465.34 1888.42C3458.53 1862.84 3435.4 1844.97 3409.08 1844.97V1844.97ZM3365.16 1915.45C3358.66 1891.06 3373.08 1865.92 3397.3 1859.39C3401.16 1858.35 3405.12 1857.83 3409.07 1857.83C3429.58 1857.83 3447.61 1871.77 3452.93 1891.74C3459.43 1916.13 3445.01 1941.27 3420.79 1947.8C3416.94 1948.84 3412.97 1949.36 3409.02 1949.36C3388.52 1949.36 3370.48 1935.42 3365.16 1915.45Z" fill="white"/>
</svg>
