<svg width="491" height="139" viewBox="0 0 491 139" fill="none" xmlns="http://www.w3.org/2000/svg">
<g clip-path="url(#clip0_738_113)">
<path d="M200.155 43.9893C184.136 59.9334 184.136 85.6893 200.155 101.633C216.173 117.577 242.049 117.577 258.068 101.633C274.086 85.6893 274.086 59.9334 258.068 43.9893L246.074 55.9269C255.439 65.2481 255.439 80.3746 246.074 89.6957C236.71 99.0169 221.513 99.0169 212.148 89.6957C202.783 80.3746 202.783 65.2481 212.148 55.9269L200.155 43.9893Z" fill="white"/>
<path d="M155.467 93.1296C155.467 52.8196 187.751 34.9949 212.723 34.9949V18.1514C178.797 18.1514 138.545 43.989 138.545 93.1296H155.467Z" fill="white"/>
<path d="M277.045 73.3431C277.538 95.8284 296.267 113.653 318.857 113.163C327.236 112.999 335.04 110.301 341.448 105.804L331.837 91.9037C328.058 94.5202 323.458 96.1555 318.529 96.2373C305.303 96.4825 294.296 86.0167 294.049 72.8525" fill="white"/>
<path d="M406.904 115.104L360.984 35.9385L346.329 44.3602L392.249 123.526L406.904 115.104Z" fill="white"/>
<path d="M385.479 97.3V0H402.401V115.125L385.479 97.3Z" fill="white"/>
<path d="M362.148 139.082V23.957H345.226V139.082H362.148Z" fill="white"/>
<path d="M360.294 -0.0210586L292.867 1.41992L293.23 18.2596L360.657 16.8186L360.294 -0.0210586Z" fill="white"/>
<path d="M333.315 60.8328L276.963 62.0593L269.98 45.2157L332.987 43.9893L333.315 60.8328Z" fill="white"/>
<path d="M311.341 72.921L309.791 1.06641L292.873 1.42797L294.423 73.2826L311.341 72.921Z" fill="white"/>
<path d="M84.1641 72.7705C84.1641 95.2558 102.483 113.489 125.073 113.489C133.452 113.489 141.256 110.955 147.745 106.621L138.463 92.5576C134.602 95.174 130.002 96.6458 125.073 96.6458C111.847 96.6458 101.086 85.9346 101.086 72.7705" fill="white"/>
<path d="M286.655 0.899414H220.609V17.7429H286.655V0.899414Z" fill="white"/>
<path d="M158.342 0.899414H84.1641V17.7429H158.342V0.899414Z" fill="white"/>
<path d="M212.723 0.899414H163.764V17.7429H212.723V0.899414Z" fill="white"/>
<path d="M187.012 93.1297H143.393V76.2861H182.494C182.494 76.2861 182.084 81.9279 187.012 93.1297Z" fill="white"/>
<path d="M138.545 30.6621H84V47.5056H138.545V30.6621Z" fill="white"/>
<path d="M101.086 72.7706V0.899414L84.1638 0.899414V72.7706H101.086Z" fill="white"/>
<path d="M237.449 87.7335V6.2959L220.527 6.2959V87.7335H237.449Z" fill="white"/>
<path d="M274.598 5.85361L235.041 45.2266L247.007 57.1367L286.564 17.7638L274.598 5.85361Z" fill="white"/>
</g>
<defs>
<clipPath id="clip0_738_113">
<rect width="491" height="139" fill="white"/>
</clipPath>
</defs>
</svg>
