<svg width="2044" height="245" viewBox="0 0 2044 245" fill="none" xmlns="http://www.w3.org/2000/svg">
<path d="M1768.15 114.729L1745.22 118.589L1747.55 115.394L1754.67 94.1196L1749.52 94.8601L1727.87 128.19L1730.77 132.617L1753.71 128.756L1751.38 131.951L1744.25 153.234L1749.4 152.485L1771.05 119.155L1768.15 114.729Z" fill="white"/>
<path d="M1749.49 74.9004C1745.26 74.9004 1741.03 75.4662 1736.91 76.5727C1711.08 83.5284 1695.71 110.319 1702.63 136.294C1708.29 157.577 1727.55 172.445 1749.44 172.445C1753.66 172.445 1757.9 171.88 1762.02 170.773C1787.84 163.817 1803.22 137.027 1796.3 111.051C1790.63 89.7684 1771.39 74.9004 1749.49 74.9004V74.9004ZM1712.94 133.541C1707.54 113.248 1719.53 92.331 1739.69 86.898C1742.9 86.0327 1746.19 85.6001 1749.48 85.6001C1766.54 85.6001 1781.54 97.1983 1785.97 113.814C1791.38 134.106 1779.38 155.023 1759.23 160.456C1756.03 161.321 1752.72 161.754 1749.44 161.754C1732.38 161.754 1717.37 150.156 1712.94 133.541Z" fill="white"/>
<path d="M1157.18 244.491C1142.13 244.491 1129.76 240.607 1119.8 233.363C1109.84 225.856 1104.97 215.033 1104.97 200.762C1104.97 191.816 1107.16 184.091 1111.28 177.807C1115.41 171.523 1121.73 166.46 1129.98 162.576C1138.23 158.692 1148.19 156.073 1159.6 154.11L1220.55 145.643L1220.55 170.999L1164.95 178.505C1155.47 179.945 1148.93 182.127 1145.03 184.79C1141.12 187.452 1139.46 191.772 1139.46 198.057C1139.46 204.341 1141.65 209.185 1146.26 212.066C1150.86 214.946 1158.15 216.43 1168.59 216.43C1176.62 216.43 1184.13 215.208 1191.89 212.546C1199.44 210.145 1205.5 205.781 1210.32 199.497C1214.93 193.474 1217.34 184.746 1217.34 173.923L1221.95 215.688L1217.08 215.426C1213.92 220.488 1209.8 225.071 1204.22 229.435C1198.65 233.799 1192.07 237.421 1184.3 240.04C1176.53 242.702 1167.54 244.142 1157.58 244.142L1157.1 244.142L1157.1 244.404L1157.18 244.491ZM1251.39 241.349L1218.4 241.349L1218.4 209.011L1217.43 200.064L1217.43 137.046C1217.43 124.739 1214.53 116.534 1208.7 112.17C1202.86 107.806 1193.38 105.667 1180.31 105.667C1167.23 105.667 1157.97 107.849 1152.4 112.432C1146.83 117.014 1143.89 124.739 1143.89 135.606L1143.89 140.45L1109.4 140.45L1109.4 137.308C1109.4 125.219 1112.29 114.352 1118.39 104.969C1124.45 95.5425 1132.96 87.818 1143.89 82.4937C1154.81 77.1694 1167.67 74.2891 1182.02 74.2891C1196.37 74.2891 1209.93 77.1694 1220.15 82.7555C1230.33 88.5599 1238.1 96.2844 1243.45 106.409C1248.54 116.534 1251.22 128.143 1251.22 141.89L1251.22 241.393L1251.48 241.393L1251.39 241.349Z" fill="white"/>
<path d="M1061.04 74.5073C1067.58 74.5073 1072.93 75.9475 1077.06 78.6096C1081.45 81.2718 1084.82 84.894 1086.75 88.9963C1088.95 93.0987 1089.91 97.681 1089.91 102.263C1089.91 109.246 1087.72 115.05 1083.6 119.633C1079.69 124.215 1074.12 126.615 1067.58 126.615C1061.04 126.615 1056.17 124.913 1052.05 121.553C1048.14 118.193 1045.99 113.567 1045.99 107.806C1045.99 102.482 1047.22 98.1611 1049.9 94.5388C1052.57 90.9166 1055.73 88.2544 1059.11 86.0724C1056.7 84.8504 1054.24 84.3703 1051.08 84.8504C1045.99 85.3304 1041.38 87.0325 1037.26 90.1747C1033.13 93.3169 1029.49 97.1573 1026.59 101.783C1023.7 106.366 1021.24 111.21 1019.57 116.534C1018.13 121.858 1017.38 126.921 1017.38 131.765L1017.38 209.534C1017.38 219.921 1020.06 226.686 1025.41 230.308C1030.76 233.668 1038.27 235.37 1048.49 235.37L1048.49 241.873C1043.62 241.611 1036.6 241.393 1027.38 241.131C1018.39 240.651 1008.96 240.389 998.994 240.389C990.745 240.389 982.495 240.651 974.246 241.131C966.216 241.393 960.16 241.611 956.299 241.873L956.299 235.37C964.066 235.37 969.639 233.668 972.798 230.526C976.177 227.384 977.888 221.361 977.888 212.677L977.888 113.697C977.888 104.271 976.177 97.2882 973.017 92.9241C970.121 88.3417 964.505 85.9414 956.255 85.9414L956.255 79.4388C963.056 80.1807 969.595 80.3989 975.913 80.3989C983.68 80.3989 990.964 80.1371 997.985 79.4388C1005.27 78.6969 1011.59 77.5186 1017.64 76.0784L1017.64 108.679C1020.06 102.874 1023.48 97.3319 1027.34 92.2695C1031.47 87.207 1036.56 83.1047 1042.17 79.9625C1048.01 76.3403 1054.33 74.6383 1061.13 74.6383L1061.04 74.5073Z" fill="white"/>
<path d="M929.971 142.327C942.345 138.224 949.322 135.213 955.466 132.202C960.161 129.889 972.228 124.259 974.641 122.557L980.214 119.415C981.662 118.455 982.891 117.975 983.856 117.975C986.269 117.975 987.498 119.415 987.498 122.077C987.498 124.739 974.641 132.464 965.163 139.446C954.588 146.473 943.793 152.233 929.488 157.776C927.294 183.612 919.045 204.385 904.959 220.314C890.874 236.244 870.47 244.23 844.273 244.23C825.098 244.23 810.529 236.724 800.349 221.754C790.169 206.305 785.035 188.674 785.035 168.381C785.035 148.087 791.091 128.536 802.982 110.425C815.356 92.3134 831.153 83.3669 850.065 83.3669C858.798 77.3443 868.758 74.2021 880.65 74.2021C892.541 74.2021 903.731 80.4865 913.911 93.0553C924.355 105.842 929.708 122.033 929.927 142.327L929.971 142.327ZM899.869 165.762L883.107 166.722C869.022 166.722 856.867 162.62 846.95 154.415C836.989 145.731 832.118 136.566 832.118 126.398C832.118 116.229 833.83 107.544 837.209 100.082C823.869 110.468 817.287 130.98 817.287 161.66C817.287 176.411 820.446 190.376 826.502 203.905C832.557 217.172 842.299 223.718 855.638 223.718C868.978 223.718 879.202 218.176 886.705 207.047C894.253 195.919 898.597 182.172 899.826 165.762L899.869 165.762ZM871.216 89.4767C866.345 89.4767 862.484 91.877 859.544 96.4594C856.867 100.824 855.419 105.406 855.419 110.687C855.419 122.033 859.324 131.198 867.091 138.224C875.121 145.207 884.336 148.829 894.779 148.829L900.352 148.829C899.606 133.86 897.193 120.113 892.585 107.763C888.197 95.6738 881.176 89.4331 871.216 89.4331L871.216 89.4767Z" fill="white"/>
<path d="M1494.18 244.492C1486.9 244.492 1481.81 242.79 1478.87 239.429C1475.71 235.807 1474 230.265 1474 222.758C1474 212.852 1475.71 196.442 1479.35 173.487C1482.51 152.975 1483.96 140.145 1483.96 134.384C1483.96 125.219 1477.9 124.477 1475.93 124.477C1471.06 124.477 1465.97 128.842 1458.68 138.966C1452.63 147.433 1446.31 158.78 1439.99 172.789C1433.94 186.798 1428.8 201.767 1424.94 217.216C1422.26 228.563 1419.37 236.069 1415.94 239.691C1413.05 242.833 1408.18 244.535 1401.38 244.535C1394.57 244.535 1389.22 241.393 1385.84 234.891C1382.2 227.384 1380.27 218.22 1380.27 207.615C1380.27 198.188 1381.5 184.441 1383.91 166.548C1386.11 150.139 1387.07 139.49 1387.07 134.428C1387.07 125.263 1381.02 124.521 1379.04 124.521C1373.69 124.521 1368.11 129.365 1361.31 139.752C1355.48 148.917 1349.42 160.744 1343.85 175.014C1338.5 189.242 1334.15 203.25 1330.73 217.041C1328.05 228.17 1325.16 235.894 1321.73 239.517C1319.06 242.659 1314.19 244.361 1307.43 244.361C1299.4 244.361 1293.83 240.259 1290.45 231.574C1286.8 222.147 1285.09 206.218 1285.09 184.746C1285.09 152.626 1289.7 121.728 1298.92 92.7499C1300.85 86.2473 1304.01 81.6213 1308.39 79.0028C1313 75.8606 1319.8 74.4204 1328.32 74.4204C1333.89 74.4204 1336.08 75.1623 1336.83 75.6424C1337.79 76.3843 1338.06 78.0427 1338.06 79.5265C1338.06 83.1487 1336.13 92.0953 1332.48 105.624C1330.07 115.749 1327.88 124.696 1326.43 132.202C1324.98 139.708 1323.53 148.873 1322.52 160.22L1322.52 161.442L1329.54 162.882L1330.03 161.922C1336.83 142.589 1344.86 126.179 1353.81 112.912C1363.02 99.8635 1372.5 89.9568 1381.98 83.7161C1391.46 77.4317 1400.19 74.0713 1408.22 74.0713C1416.25 74.0713 1421.08 75.7733 1424.02 78.9155C1427.18 82.2759 1428.89 87.6002 1428.89 94.8447C1428.89 102.569 1426.48 117.058 1421.87 137.832C1419.67 146.996 1418.49 153.761 1417.74 158.343L1417.48 159.565L1424.5 161.485L1424.98 160.525C1433.23 139.752 1442.23 122.863 1452.19 109.814C1462.15 97.0268 1472.11 87.862 1481.33 82.5378C1490.54 76.9953 1499.05 74.3331 1506.82 74.3331C1513.84 74.3331 1518.97 76.0352 1522.35 79.6574C1526 83.0178 1527.71 88.3421 1527.71 95.1066C1527.71 101.391 1526.26 113.698 1523.58 131.547C1521.17 146.778 1518.97 161.747 1517.53 175.494C1516.08 189.242 1515.33 204.691 1515.33 221.624C1515.33 230.09 1513.62 236.374 1510.24 239.735C1507.35 243.095 1501.73 244.797 1494.23 244.797L1494.18 244.492Z" fill="white"/>
<path d="M762.568 215.252L758.663 241.567L691.175 241.567L695.081 215.252L713.423 215.252L722.374 152.233C725.051 132.9 724.568 119.153 720.926 111.646C717.547 103.66 709.737 99.8194 698.108 99.8194C690.078 99.8194 681.829 102.482 673.579 108.024C665.549 113.348 658.748 120.113 652.956 128.536C647.383 137.002 643.96 145.905 642.512 155.332L634 215.208L641.547 215.208C648.831 215.208 652.561 215.208 652.561 215.208L648.699 241.306L581.431 241.306L585.293 215.208L595.868 215.208L604.38 215.208L620.177 103.18L601.133 103.18L605.039 77.0821L641.547 77.0821C644.926 77.0821 648.041 77.9986 649.972 80.6171C651.815 83.1483 652.473 85.7668 651.99 89.1709L648.612 113.785C654.93 102.176 663.663 92.7931 675.071 85.2868C686.744 77.5622 698.152 73.9399 709.298 73.9399C745.236 73.9399 759.804 98.3356 753.003 147.345L743.524 215.208L762.612 215.208L762.568 215.252Z" fill="white"/>
<path d="M528.378 199.585C528.378 209.491 532.021 214.554 539.041 214.554C543.912 214.554 548.037 213.812 551.196 212.372C554.356 210.931 556.55 210.189 557.734 210.189C559.928 210.189 561.113 211.411 561.113 213.812C561.113 223.238 556.242 231.181 546.282 237.945C535.838 244.928 525.395 246.63 514.469 243.27C507.448 240.869 502.094 235.283 498.672 227.079C496.96 222.715 496.258 219.092 496.258 215.47C496.258 209.928 496.741 203.861 497.97 197.621C487.789 218.132 475.152 232.403 460.101 240.346C454.045 243.488 447.727 244.928 440.925 244.928C434.124 244.928 428.288 243.488 423.198 240.826C418.327 237.945 413.983 234.061 410.56 229.217C403.54 219.092 400.38 206.262 400.863 190.813C401.609 171.479 407.181 152.67 418.108 134.078C428.068 116.709 440.706 102.438 455.757 91.5715C470.808 80.4429 485.113 74.9004 498.233 74.9004C511.353 74.9004 522.016 80.9229 530.046 93.0117C537.593 80.9229 544.132 74.9004 549.968 74.9004C556.286 74.9004 560.894 76.1224 564.053 78.2608C570.109 82.625 572.083 86.4654 570.372 89.6076C542.947 145.382 528.861 180.164 528.115 193.911C528.378 195.351 528.378 197.271 528.378 199.454L528.378 199.585ZM437.59 200.326C437.59 213.375 441.715 219.878 450.228 219.878C456.766 219.878 464.533 214.554 474.011 203.687C487.833 187.758 499.988 166.242 510.432 139.228C513.81 130.762 516.75 122.339 518.944 113.872C518.462 106.366 515.302 101.085 509.729 97.6813C507.799 96.4593 504.859 95.9793 500.997 95.9793C497.136 95.9793 492.748 97.4195 487.394 100.343C482.304 103.224 477.214 107.108 472.344 111.952C467.473 116.796 463.129 122.557 458.741 129.321C454.616 135.824 450.974 143.069 447.815 151.055C440.794 167.246 437.634 183.874 437.634 200.326L437.59 200.326Z" fill="white"/>
<path d="M1563.6 89.9566C1573.56 84.1522 1583.52 80.0499 1592.96 77.8679C1602.65 75.4676 1613.36 74.2456 1624.99 74.2456C1643.68 74.2456 1658.25 78.828 1668.91 87.7745C1679.84 96.721 1685.41 110.73 1685.41 129.321L1685.41 204.909C1685.41 215.514 1689.8 221.1 1698.27 221.1C1701.65 221.1 1705.07 220.358 1708.23 219.179L1708.71 238.251C1701.91 242.353 1693.88 244.535 1684.93 244.535C1665.01 244.535 1654.56 233.668 1653.38 211.717L1653.38 211.237C1648.51 219.703 1641.49 227.428 1632.01 234.192C1623.01 240.957 1611.87 244.317 1598.49 244.317C1587.3 244.317 1575.89 240.957 1564.74 234.192C1553.82 227.428 1548.24 215.339 1548.24 198.45C1548.24 177.938 1556.27 164.627 1572.51 158.387C1589.01 151.884 1606.52 148.48 1624.95 148.48C1636.14 148.48 1645.57 148.96 1653.12 149.92L1653.12 137.831C1653.12 127.227 1650.92 118.018 1646.8 110.555C1642.67 103.049 1633.46 99.2086 1618.89 99.2086C1607.22 99.2086 1597.3 101.391 1589.27 105.493L1582.95 132.071L1556.98 129.19L1563.51 90.0875L1563.6 89.9566ZM1653.2 177.851L1653.2 168.424C1648.82 167.944 1644.21 167.464 1639.38 167.202C1634.77 166.722 1629.9 166.46 1625.08 166.46C1613.89 166.46 1603.71 168.381 1594.98 172.003C1586.24 175.625 1581.86 183.131 1581.86 194.696C1581.86 203.381 1584.53 209.666 1589.89 213.768C1595.46 217.652 1601.78 219.572 1609.06 219.572C1619.5 219.572 1629.47 215.95 1638.42 208.705C1647.41 201.199 1652.24 190.856 1653.25 177.807L1653.2 177.851Z" fill="white"/>
<path d="M300.686 241.35C297.307 241.35 302.88 241.35 299.72 241.35L290.242 241.35C287.083 241.35 283.441 241.35 279.799 241.35L267.161 241.35C255.972 241.35 246.055 241.35 237.059 241.611C228.327 241.611 228.327 241.873 219.595 241.873L216.699 241.873L216.699 218.219L220.341 218.219C225.695 218.219 229.819 217.958 232.715 217.259C235.392 216.517 237.103 216.037 238.288 215.077C239.253 214.335 239.736 213.375 239.736 212.415C239.999 210.713 239.999 208.793 239.999 206.393L239.999 33.9209C239.999 31.0406 239.517 29.3386 239.034 28.5967C238.771 27.6365 237.806 27.1565 236.138 26.4146C234.69 25.9345 232.233 25.1926 227.143 25.1926C222.755 24.9308 225.914 24.9308 219.113 24.9308L216.216 24.9308L216.216 0.316886L318.413 0.316891C333.728 0.316891 347.067 2.01891 358.213 5.37932C369.402 8.73973 378.836 13.5839 386.12 19.8683C393.405 26.1527 399.24 33.6155 402.619 42.3438C406.261 51.0285 407.973 60.6733 407.973 70.8418C407.973 81.0102 406.261 90.6551 403.102 99.0779C399.723 107.763 394.37 115.269 387.086 121.291C379.802 127.314 370.587 132.158 359.178 135.519C347.988 138.879 334.43 140.581 318.633 140.581L279.535 140.581L279.535 206C279.535 209.884 280.018 211.804 280.501 212.982C280.984 214.204 281.729 215.165 282.914 215.645C284.362 216.387 286.293 216.867 288.97 217.085C291.866 217.347 295.508 217.347 299.633 217.347L303.275 217.347L303.275 241L300.598 241.262L300.686 241.35ZM279.799 116.273L311.831 116.273C331.753 116.273 346.54 112.65 356.019 105.144C365.233 97.8996 369.841 86.8146 369.841 71.3218C369.841 63.8155 368.876 57.0946 366.682 51.2903C364.751 45.7478 361.328 40.9036 356.984 37.2813C352.596 33.3972 346.804 30.5169 339.52 28.3348C332.236 26.1527 323.24 25.1926 312.577 25.1926L279.799 25.1926L279.799 116.229L279.799 116.273Z" fill="white"/>
</svg>
