<svg width="1446" height="814" viewBox="0 0 1446 814" fill="none" xmlns="http://www.w3.org/2000/svg">
<g clip-path="url(#clip0_419_2243)">
<path d="M1111.24 419.001H1104.42V395.728H1111.65C1113.87 395.728 1115.77 396.19 1117.34 397.115C1118.93 398.039 1120.14 399.365 1120.98 401.092C1121.82 402.819 1122.24 404.891 1122.24 407.308C1122.24 409.747 1121.81 411.842 1120.95 413.592C1120.09 415.334 1118.84 416.671 1117.2 417.603C1115.56 418.535 1113.57 419.001 1111.24 419.001ZM1106.55 417.092H1111.12C1113.12 417.092 1114.79 416.698 1116.14 415.91C1117.49 415.122 1118.5 413.997 1119.17 412.535C1119.85 411.073 1120.18 409.331 1120.18 407.308C1120.18 405.3 1119.84 403.573 1119.18 402.126C1118.53 400.679 1117.56 399.569 1116.28 398.796C1114.99 398.024 1113.41 397.637 1111.53 397.637H1106.55V417.092ZM1127.39 419.001V395.728H1140.89V397.637H1129.52V406.399H1140.18V408.308H1129.52V417.092H1141.12V419.001H1127.39ZM1164.62 403.001H1162.48C1162.32 402.206 1162.04 401.471 1161.62 400.796C1161.21 400.115 1160.69 399.52 1160.07 399.012C1159.45 398.505 1158.75 398.111 1157.96 397.831C1157.17 397.55 1156.32 397.41 1155.4 397.41C1153.93 397.41 1152.59 397.793 1151.38 398.558C1150.18 399.323 1149.21 400.448 1148.48 401.933C1147.76 403.41 1147.4 405.221 1147.4 407.365C1147.4 409.524 1147.76 411.342 1148.48 412.819C1149.21 414.296 1150.18 415.418 1151.38 416.183C1152.59 416.94 1153.93 417.319 1155.4 417.319C1156.32 417.319 1157.17 417.179 1157.96 416.899C1158.75 416.618 1159.45 416.228 1160.07 415.728C1160.69 415.221 1161.21 414.626 1161.62 413.944C1162.04 413.262 1162.32 412.524 1162.48 411.728H1164.62C1164.43 412.796 1164.07 413.793 1163.55 414.717C1163.04 415.634 1162.38 416.437 1161.57 417.126C1160.78 417.815 1159.86 418.353 1158.82 418.74C1157.79 419.126 1156.65 419.319 1155.4 419.319C1153.45 419.319 1151.71 418.831 1150.2 417.853C1148.68 416.868 1147.49 415.482 1146.63 413.694C1145.77 411.906 1145.35 409.796 1145.35 407.365C1145.35 404.933 1145.77 402.823 1146.63 401.035C1147.49 399.247 1148.68 397.865 1150.2 396.887C1151.71 395.902 1153.45 395.41 1155.4 395.41C1156.65 395.41 1157.79 395.603 1158.82 395.99C1159.86 396.368 1160.78 396.906 1161.57 397.603C1162.38 398.293 1163.04 399.096 1163.55 400.012C1164.07 400.929 1164.43 401.925 1164.62 403.001ZM1171.74 395.728V419.001H1169.61V395.728H1171.74ZM1190.56 401.546C1190.43 400.251 1189.86 399.221 1188.84 398.456C1187.83 397.69 1186.55 397.308 1185.01 397.308C1183.93 397.308 1182.98 397.493 1182.15 397.865C1181.33 398.236 1180.69 398.751 1180.22 399.41C1179.76 400.062 1179.53 400.804 1179.53 401.637C1179.53 402.251 1179.66 402.789 1179.92 403.251C1180.19 403.713 1180.54 404.111 1180.99 404.444C1181.45 404.77 1181.95 405.05 1182.49 405.285C1183.04 405.52 1183.6 405.717 1184.16 405.876L1186.62 406.581C1187.36 406.785 1188.1 407.046 1188.84 407.365C1189.59 407.683 1190.26 408.084 1190.88 408.569C1191.5 409.046 1191.99 409.634 1192.37 410.331C1192.74 411.02 1192.93 411.849 1192.93 412.819C1192.93 414.062 1192.61 415.179 1191.97 416.171C1191.32 417.164 1190.4 417.952 1189.2 418.535C1187.99 419.111 1186.55 419.399 1184.87 419.399C1183.28 419.399 1181.91 419.137 1180.74 418.615C1179.57 418.084 1178.66 417.353 1177.99 416.421C1177.32 415.49 1176.95 414.41 1176.87 413.183H1179.05C1179.12 414.099 1179.43 414.876 1179.96 415.512C1180.49 416.149 1181.18 416.634 1182.03 416.967C1182.87 417.293 1183.82 417.456 1184.87 417.456C1186.03 417.456 1187.06 417.262 1187.96 416.876C1188.87 416.482 1189.58 415.937 1190.09 415.24C1190.62 414.535 1190.88 413.717 1190.88 412.785C1190.88 411.997 1190.67 411.338 1190.26 410.808C1189.85 410.27 1189.28 409.819 1188.55 409.456C1187.82 409.092 1186.98 408.77 1186.01 408.49L1183.23 407.671C1181.4 407.126 1179.99 406.372 1178.98 405.41C1177.97 404.448 1177.47 403.221 1177.47 401.728C1177.47 400.478 1177.8 399.38 1178.47 398.433C1179.14 397.478 1180.05 396.736 1181.2 396.206C1182.35 395.668 1183.64 395.399 1185.07 395.399C1186.52 395.399 1187.8 395.664 1188.91 396.194C1190.03 396.724 1190.91 397.456 1191.56 398.387C1192.22 399.312 1192.57 400.365 1192.62 401.546H1190.56ZM1200.17 395.728V419.001H1198.05V395.728H1200.17ZM1225.44 407.365C1225.44 409.789 1225.01 411.899 1224.14 413.694C1223.28 415.482 1222.09 416.868 1220.58 417.853C1219.07 418.831 1217.33 419.319 1215.37 419.319C1213.41 419.319 1211.67 418.831 1210.16 417.853C1208.65 416.868 1207.46 415.482 1206.6 413.694C1205.74 411.899 1205.31 409.789 1205.31 407.365C1205.31 404.94 1205.74 402.834 1206.6 401.046C1207.46 399.251 1208.65 397.865 1210.17 396.887C1211.68 395.902 1213.42 395.41 1215.37 395.41C1217.33 395.41 1219.07 395.902 1220.58 396.887C1222.09 397.865 1223.28 399.251 1224.14 401.046C1225.01 402.834 1225.44 404.94 1225.44 407.365ZM1223.37 407.365C1223.37 405.281 1223.02 403.497 1222.33 402.012C1221.63 400.52 1220.68 399.38 1219.47 398.592C1218.27 397.804 1216.9 397.41 1215.37 397.41C1213.85 397.41 1212.49 397.804 1211.28 398.592C1210.08 399.38 1209.12 400.516 1208.42 402.001C1207.72 403.486 1207.37 405.274 1207.37 407.365C1207.37 409.448 1207.72 411.232 1208.42 412.717C1209.11 414.202 1210.06 415.342 1211.27 416.137C1212.47 416.925 1213.84 417.319 1215.37 417.319C1216.9 417.319 1218.27 416.925 1219.47 416.137C1220.69 415.349 1221.64 414.213 1222.34 412.728C1223.03 411.236 1223.38 409.448 1223.37 407.365ZM1248.7 395.728V419.001H1246.64L1232.89 399.512H1232.7V419.001H1230.58V395.728H1232.64L1246.43 415.24H1246.61V395.728H1248.7ZM1263.89 395.728H1266.35L1274.79 416.001H1274.99L1283.44 395.728H1285.89V419.001H1283.89V400.217H1283.71L1275.86 419.001H1273.93L1266.07 400.217H1265.89V419.001H1263.89V395.728ZM1292.11 419.001H1289.89L1298.35 395.728H1300.62L1309.09 419.001H1306.86L1299.57 398.49H1299.41L1292.11 419.001ZM1293.72 410.081H1305.26V411.99H1293.72V410.081ZM1313.08 419.001V395.728H1315.2V408.262H1315.41L1326.77 395.728H1329.57L1319.62 406.49L1329.52 419.001H1326.93L1318.31 407.967L1315.2 411.444V419.001H1313.08ZM1335.7 395.728V419.001H1333.58V395.728H1335.7ZM1360.02 395.728V419.001H1357.95L1344.2 399.512H1344.02V419.001H1341.89V395.728H1343.95L1357.74 415.24H1357.93V395.728H1360.02ZM1382.31 403.001C1382.09 402.228 1381.78 401.505 1381.37 400.831C1380.97 400.149 1380.46 399.554 1379.85 399.046C1379.25 398.531 1378.56 398.13 1377.77 397.842C1376.99 397.554 1376.12 397.41 1375.16 397.41C1373.64 397.41 1372.29 397.804 1371.09 398.592C1369.89 399.38 1368.95 400.516 1368.25 402.001C1367.56 403.486 1367.22 405.274 1367.22 407.365C1367.22 409.448 1367.56 411.232 1368.26 412.717C1368.96 414.202 1369.91 415.342 1371.12 416.137C1372.34 416.925 1373.74 417.319 1375.31 417.319C1376.74 417.319 1378 417.001 1379.1 416.365C1380.2 415.728 1381.06 414.819 1381.67 413.637C1382.29 412.456 1382.59 411.05 1382.58 409.421L1383.26 409.637H1375.81V407.728H1384.65V409.637C1384.65 411.622 1384.25 413.338 1383.44 414.785C1382.64 416.232 1381.54 417.349 1380.14 418.137C1378.73 418.925 1377.12 419.319 1375.31 419.319C1373.28 419.319 1371.5 418.831 1369.98 417.853C1368.45 416.868 1367.27 415.482 1366.42 413.694C1365.58 411.899 1365.16 409.789 1365.16 407.365C1365.16 405.539 1365.4 403.891 1365.89 402.421C1366.37 400.952 1367.06 399.694 1367.94 398.649C1368.84 397.603 1369.89 396.804 1371.11 396.251C1372.33 395.69 1373.68 395.41 1375.16 395.41C1376.43 395.41 1377.59 395.611 1378.65 396.012C1379.71 396.414 1380.64 396.967 1381.44 397.671C1382.25 398.368 1382.92 399.175 1383.43 400.092C1383.95 401.001 1384.31 401.971 1384.49 403.001H1382.31Z" fill="white"/>
<path d="M631.403 373V349.727H638.915C640.566 349.727 641.945 350.027 643.051 350.625C644.165 351.216 645.002 352.038 645.562 353.091C646.131 354.136 646.415 355.337 646.415 356.693C646.415 358.049 646.131 359.246 645.562 360.284C645.002 361.322 644.169 362.133 643.062 362.716C641.956 363.299 640.585 363.591 638.949 363.591H632.551V361.648H638.892C640.104 361.648 641.112 361.447 641.915 361.045C642.725 360.644 643.328 360.072 643.722 359.33C644.123 358.587 644.324 357.708 644.324 356.693C644.324 355.678 644.123 354.792 643.722 354.034C643.32 353.269 642.714 352.678 641.903 352.261C641.1 351.845 640.085 351.636 638.858 351.636H633.528V373H631.403ZM641.665 362.5L647.392 373H644.938L639.267 362.5H641.665ZM651.591 373V349.727H665.091V351.636H653.716V360.398H664.375V362.307H653.716V371.091H665.318V373H651.591ZM670.591 373V349.727H678.102C679.754 349.727 681.133 350.045 682.239 350.682C683.352 351.311 684.189 352.167 684.75 353.25C685.318 354.333 685.602 355.553 685.602 356.909C685.602 358.265 685.322 359.489 684.761 360.58C684.201 361.663 683.367 362.523 682.261 363.159C681.155 363.788 679.78 364.102 678.136 364.102H672.227V362.193H678.08C679.299 362.193 680.311 361.966 681.114 361.511C681.917 361.049 682.515 360.42 682.909 359.625C683.311 358.83 683.511 357.924 683.511 356.909C683.511 355.894 683.311 354.989 682.909 354.193C682.515 353.398 681.913 352.773 681.102 352.318C680.299 351.864 679.28 351.636 678.045 351.636H672.716V373H670.591ZM690.591 373V349.727H704.091V351.636H692.716V360.398H703.375V362.307H692.716V371.091H704.318V373H690.591ZM709.591 373V349.727H717.102C718.754 349.727 720.133 350.027 721.239 350.625C722.352 351.216 723.189 352.038 723.75 353.091C724.318 354.136 724.602 355.337 724.602 356.693C724.602 358.049 724.318 359.246 723.75 360.284C723.189 361.322 722.356 362.133 721.25 362.716C720.144 363.299 718.773 363.591 717.136 363.591H710.739V361.648H717.08C718.292 361.648 719.299 361.447 720.102 361.045C720.913 360.644 721.515 360.072 721.909 359.33C722.311 358.587 722.511 357.708 722.511 356.693C722.511 355.678 722.311 354.792 721.909 354.034C721.508 353.269 720.902 352.678 720.091 352.261C719.288 351.845 718.273 351.636 717.045 351.636H711.716V373H709.591ZM719.852 362.5L725.58 373H723.125L717.455 362.5H719.852ZM728.369 351.636V349.727H745.244V351.636H737.869V373H735.744V351.636H728.369ZM768.139 361.364C768.139 363.788 767.707 365.898 766.844 367.693C765.98 369.481 764.791 370.867 763.276 371.852C761.768 372.83 760.033 373.318 758.071 373.318C756.109 373.318 754.37 372.83 752.855 371.852C751.348 370.867 750.162 369.481 749.298 367.693C748.442 365.898 748.014 363.788 748.014 361.364C748.014 358.939 748.442 356.833 749.298 355.045C750.162 353.25 751.351 351.864 752.866 350.886C754.382 349.902 756.116 349.409 758.071 349.409C760.033 349.409 761.768 349.902 763.276 350.886C764.791 351.864 765.98 353.25 766.844 355.045C767.707 356.833 768.139 358.939 768.139 361.364ZM766.071 361.364C766.071 359.28 765.723 357.496 765.026 356.011C764.329 354.519 763.378 353.379 762.173 352.591C760.969 351.803 759.601 351.409 758.071 351.409C756.548 351.409 755.185 351.803 753.98 352.591C752.776 353.379 751.821 354.515 751.116 356C750.42 357.485 750.071 359.273 750.071 361.364C750.071 363.447 750.42 365.231 751.116 366.716C751.813 368.201 752.764 369.341 753.969 370.136C755.173 370.924 756.541 371.318 758.071 371.318C759.601 371.318 760.969 370.924 762.173 370.136C763.385 369.348 764.34 368.212 765.037 366.727C765.734 365.235 766.079 363.447 766.071 361.364ZM775.403 349.727V373H773.278V349.727H775.403ZM781.591 373V349.727H789.102C790.754 349.727 792.133 350.027 793.239 350.625C794.352 351.216 795.189 352.038 795.75 353.091C796.318 354.136 796.602 355.337 796.602 356.693C796.602 358.049 796.318 359.246 795.75 360.284C795.189 361.322 794.356 362.133 793.25 362.716C792.144 363.299 790.773 363.591 789.136 363.591H782.739V361.648H789.08C790.292 361.648 791.299 361.447 792.102 361.045C792.913 360.644 793.515 360.072 793.909 359.33C794.311 358.587 794.511 357.708 794.511 356.693C794.511 355.678 794.311 354.792 793.909 354.034C793.508 353.269 792.902 352.678 792.091 352.261C791.288 351.845 790.273 351.636 789.045 351.636H783.716V373H781.591ZM791.852 362.5L797.58 373H795.125L789.455 362.5H791.852ZM801.778 373V349.727H815.278V351.636H803.903V360.398H814.562V362.307H803.903V371.091H815.506V373H801.778ZM630.107 419V395.727H643.607V397.636H632.232V406.398H642.891V408.307H632.232V417.091H643.834V419H630.107ZM649.47 395.727L655.913 405.83H656.061L662.504 395.727H665.016L657.527 407.364L665.016 419H662.504L656.061 409.011H655.913L649.47 419H646.959L654.561 407.364L646.959 395.727H649.47ZM669.044 419V395.727H676.555C678.207 395.727 679.586 396.045 680.692 396.682C681.805 397.311 682.643 398.167 683.203 399.25C683.771 400.333 684.055 401.553 684.055 402.909C684.055 404.265 683.775 405.489 683.214 406.58C682.654 407.663 681.821 408.523 680.714 409.159C679.608 409.788 678.233 410.102 676.589 410.102H670.68V408.193H676.533C677.752 408.193 678.764 407.966 679.567 407.511C680.37 407.049 680.968 406.42 681.362 405.625C681.764 404.83 681.964 403.924 681.964 402.909C681.964 401.894 681.764 400.989 681.362 400.193C680.968 399.398 680.366 398.773 679.555 398.318C678.752 397.864 677.733 397.636 676.499 397.636H671.169V419H669.044ZM689.044 419V395.727H702.544V397.636H691.169V406.398H701.828V408.307H691.169V417.091H702.771V419H689.044ZM708.044 419V395.727H715.555C717.207 395.727 718.586 396.027 719.692 396.625C720.805 397.216 721.643 398.038 722.203 399.091C722.771 400.136 723.055 401.337 723.055 402.693C723.055 404.049 722.771 405.246 722.203 406.284C721.643 407.322 720.809 408.133 719.703 408.716C718.597 409.299 717.226 409.591 715.589 409.591H709.192V407.648H715.533C716.745 407.648 717.752 407.447 718.555 407.045C719.366 406.644 719.968 406.072 720.362 405.33C720.764 404.587 720.964 403.708 720.964 402.693C720.964 401.678 720.764 400.792 720.362 400.034C719.961 399.269 719.355 398.678 718.544 398.261C717.741 397.845 716.726 397.636 715.499 397.636H710.169V419H708.044ZM718.305 408.5L724.033 419H721.578L715.908 408.5H718.305ZM730.357 395.727V419H728.232V395.727H730.357ZM736.544 419V395.727H750.044V397.636H738.669V406.398H749.328V408.307H738.669V417.091H750.271V419H736.544ZM773.669 395.727V419H771.601L757.851 399.511H757.669V419H755.544V395.727H757.601L771.396 415.239H771.578V395.727H773.669ZM798.084 403H795.947C795.788 402.205 795.5 401.47 795.084 400.795C794.675 400.114 794.16 399.519 793.538 399.011C792.917 398.504 792.213 398.11 791.425 397.83C790.637 397.549 789.785 397.409 788.868 397.409C787.398 397.409 786.057 397.792 784.845 398.557C783.641 399.322 782.675 400.447 781.947 401.932C781.228 403.409 780.868 405.22 780.868 407.364C780.868 409.523 781.228 411.341 781.947 412.818C782.675 414.295 783.641 415.417 784.845 416.182C786.057 416.939 787.398 417.318 788.868 417.318C789.785 417.318 790.637 417.178 791.425 416.898C792.213 416.617 792.917 416.227 793.538 415.727C794.16 415.22 794.675 414.625 795.084 413.943C795.5 413.261 795.788 412.523 795.947 411.727H798.084C797.894 412.795 797.538 413.792 797.016 414.716C796.5 415.633 795.841 416.436 795.038 417.125C794.243 417.814 793.326 418.352 792.288 418.739C791.25 419.125 790.11 419.318 788.868 419.318C786.913 419.318 785.179 418.83 783.663 417.852C782.148 416.867 780.959 415.481 780.095 413.693C779.239 411.905 778.811 409.795 778.811 407.364C778.811 404.932 779.239 402.822 780.095 401.034C780.959 399.246 782.148 397.864 783.663 396.886C785.179 395.902 786.913 395.409 788.868 395.409C790.11 395.409 791.25 395.602 792.288 395.989C793.326 396.367 794.243 396.905 795.038 397.602C795.841 398.292 796.5 399.095 797.016 400.011C797.538 400.928 797.894 401.924 798.084 403ZM803.075 419V395.727H816.575V397.636H805.2V406.398H815.859V408.307H805.2V417.091H816.803V419H803.075ZM646.091 441.727H648.545L656.989 462H657.193L665.636 441.727H668.091V465H666.091V446.216H665.909L658.057 465H656.125L648.273 446.216H648.091V465H646.091V441.727ZM674.312 465H672.085L680.551 441.727H682.824L691.29 465H689.062L681.767 444.489H681.608L674.312 465ZM675.915 456.08H687.46V457.989H675.915V456.08ZM691.151 443.636V441.727H708.026V443.636H700.651V465H698.526V443.636H691.151ZM728.321 441.727H730.446V457.136C730.446 458.72 730.075 460.136 729.332 461.386C728.59 462.629 727.556 463.61 726.23 464.33C724.912 465.042 723.378 465.398 721.628 465.398C719.885 465.398 718.351 465.038 717.026 464.318C715.7 463.598 714.666 462.617 713.923 461.375C713.181 460.133 712.81 458.72 712.81 457.136V441.727H714.935V456.989C714.935 458.223 715.211 459.326 715.764 460.295C716.317 461.258 717.094 462.015 718.094 462.568C719.101 463.121 720.279 463.398 721.628 463.398C722.976 463.398 724.154 463.121 725.162 462.568C726.17 462.015 726.946 461.258 727.491 460.295C728.045 459.326 728.321 458.223 728.321 456.989V441.727ZM736.622 465V441.727H744.134C745.785 441.727 747.164 442.027 748.27 442.625C749.384 443.216 750.221 444.038 750.781 445.091C751.349 446.136 751.634 447.337 751.634 448.693C751.634 450.049 751.349 451.246 750.781 452.284C750.221 453.322 749.387 454.133 748.281 454.716C747.175 455.299 745.804 455.591 744.168 455.591H737.77V453.648H744.111C745.323 453.648 746.33 453.447 747.134 453.045C747.944 452.644 748.546 452.072 748.94 451.33C749.342 450.587 749.543 449.708 749.543 448.693C749.543 447.678 749.342 446.792 748.94 446.034C748.539 445.269 747.933 444.678 747.122 444.261C746.319 443.845 745.304 443.636 744.077 443.636H738.747V465H736.622ZM746.884 454.5L752.611 465H750.156L744.486 454.5H746.884ZM758.935 441.727V465H756.81V441.727H758.935ZM763.713 443.636V441.727H780.588V443.636H773.213V465H771.088V443.636H763.713ZM783.19 441.727H785.645L792.543 452.773H792.747L799.645 441.727H802.099L793.702 454.92V465H791.588V454.92L783.19 441.727Z" fill="white"/>
<circle cx="723.006" cy="407.001" r="178.727" transform="rotate(-180 723.006 407.001)" stroke="white" stroke-width="3"/>
<circle cx="723.001" cy="407.001" r="327.117" transform="rotate(-180 723.001 407.001)" stroke="white" stroke-width="0.866096" stroke-dasharray="10.39 10.39"/>
<line x1="903.233" y1="405.488" x2="1085.46" y2="405.488" stroke="white" stroke-width="3.02618"/>
</g>
<defs>
<clipPath id="clip0_419_2243">
<rect width="1446" height="814" fill="white"/>
</clipPath>
</defs>
</svg>
